<svg width="221" height="121" viewBox="0 0 221 121" fill="none" xmlns="http://www.w3.org/2000/svg">
<path d="M91.8973 45.4452L106.43 56.9853C107.079 57.5004 107.187 58.444 106.672 59.0927L61.7657 115.647C61.2505 116.296 60.3069 116.404 59.6582 115.889L45.125 104.349C44.4763 103.834 44.368 102.89 44.8831 102.241L89.7898 45.6872C90.3049 45.0384 91.2485 44.9301 91.8973 45.4452Z" fill="#F8F7EB" stroke="black" stroke-width="5"/>
<path d="M107.679 51.2196L122.041 39.4678C122.683 38.9433 123.628 39.0377 124.152 39.6788L169.883 95.5687C170.407 96.2099 170.313 97.1549 169.672 97.6795L155.309 109.431C154.668 109.956 153.723 109.861 153.199 109.22L107.468 53.3304C106.943 52.6893 107.038 51.7442 107.679 51.2196Z" fill="#F8F7EB" stroke="black" stroke-width="5"/>
<path d="M4 15C1.79086 15 0 16.7909 0 19V48C0 50.2091 1.79086 52 4 52H16V15H4Z" fill="#949388"/>
<path d="M217 52C219.209 52 221 50.2091 221 48V19C221 16.7909 219.209 15 217 15H204V52H217Z" fill="#F8F7EB"/>
<path fill-rule="evenodd" clip-rule="evenodd" d="M16 52H192V15H16V52Z" fill="#7768AE"/>
<path d="M204 52V15H192V52H204Z" fill="#949388"/>
<path d="M4 17.5H13.5V49.5H4C3.17157 49.5 2.5 48.8284 2.5 48V19C2.5 18.1716 3.17157 17.5 4 17.5ZM217 17.5C217.828 17.5 218.5 18.1716 218.5 19V48C218.5 48.8284 217.828 49.5 217 49.5H206.5V17.5H217ZM201.5 17.5V49.5H194.5V17.5H201.5ZM189.5 17.5V49.5H18.5V17.5H189.5Z" stroke="black" stroke-width="5"/>
<path d="M4 15C1.79086 15 0 16.7909 0 19V48C0 50.2091 1.79086 52 4 52H16V15H4Z" fill="#949388"/>
<path d="M217 52C219.209 52 221 50.2091 221 48V19C221 16.7909 219.209 15 217 15H204V52H217Z" fill="#F8F7EB"/>
<path fill-rule="evenodd" clip-rule="evenodd" d="M16 52H192V15H16V52Z" fill="#F8F7EB"/>
<path d="M204 52V15H192V52H204Z" fill="#949388"/>
<path d="M4 17.5H13.5V49.5H4C3.17157 49.5 2.5 48.8284 2.5 48V19C2.5 18.1716 3.17157 17.5 4 17.5ZM217 17.5C217.828 17.5 218.5 18.1716 218.5 19V48C218.5 48.8284 217.828 49.5 217 49.5H206.5V17.5H217ZM201.5 17.5V49.5H194.5V17.5H201.5ZM189.5 17.5V49.5H18.5V17.5H189.5Z" stroke="black" stroke-width="5"/>
<path d="M139.512 20.2141C139.512 18.0705 138.368 16.0897 136.512 15.0179L113.5 1.73205C111.644 0.660254 109.356 0.660254 107.5 1.73205L95.9941 8.375L125.006 58.625L136.512 51.9821C138.368 50.9103 139.512 48.9295 139.512 46.7859V20.2141Z" fill="#ECECE4"/>
<path d="M81.4882 46.7859C81.4882 48.9295 82.6318 50.9103 84.4882 51.9821L107.5 65.2679C109.356 66.3397 111.644 66.3397 113.5 65.2679L125.006 58.625L95.9941 8.375L84.4882 15.0179C82.6318 16.0897 81.4882 18.0705 81.4882 20.2141V46.7859Z" fill="#ECECE4"/>
<path d="M121.59 57.709L112.25 63.1025C111.167 63.7278 109.833 63.7278 108.75 63.1025L85.7382 49.8174C84.6553 49.1922 83.9882 48.0365 83.9882 46.7861V20.2139C83.9882 18.9635 84.6553 17.8078 85.7382 17.1826L95.078 11.7891L121.59 57.709ZM108.75 3.89746C109.833 3.27225 111.167 3.27225 112.25 3.89746L135.262 17.1826C136.344 17.8078 137.012 18.9635 137.012 20.2139V46.7861C137.012 48.0365 136.344 49.1922 135.262 49.8174L125.921 55.21L99.4091 9.29004L108.75 3.89746Z" stroke="black" stroke-width="5"/>
</svg>
