<svg width="32" height="32" viewBox="0 0 32 32" fill="none" xmlns="http://www.w3.org/2000/svg">
<path d="M25.5 3H5.5C4.83696 3 4.20107 3.26339 3.73223 3.73223C3.26339 4.20107 3 4.83696 3 5.5V25.5C3 26.163 3.26339 26.7989 3.73223 27.2678C4.20107 27.7366 4.83696 28 5.5 28H25.5C26.163 28 26.7989 27.7366 27.2678 27.2678C27.7366 26.7989 28 26.163 28 25.5V5.5C28 4.83696 27.7366 4.20107 27.2678 3.73223C26.7989 3.26339 26.163 3 25.5 3ZM25 25H6V6H25V25ZM11.02 15.25L12.02 9.25C12.0791 8.90031 12.2602 8.58288 12.5311 8.35404C12.8021 8.1252 13.1454 7.99977 13.5 8H18.5C18.8978 8 19.2794 8.15804 19.5607 8.43934C19.842 8.72064 20 9.10218 20 9.5C20 9.89782 19.842 10.2794 19.5607 10.5607C19.2794 10.842 18.8978 11 18.5 11H14.7712L14.4325 13.0288C14.6211 13.0097 14.8105 13.0001 15 13C16.3261 13 17.5979 13.5268 18.5355 14.4645C19.4732 15.4021 20 16.6739 20 18C20 19.3261 19.4732 20.5979 18.5355 21.5355C17.5979 22.4732 16.3261 23 15 23C14.3379 23.0099 13.6807 22.8867 13.0672 22.6376C12.4537 22.3885 11.8965 22.0186 11.4288 21.55C11.2909 21.4093 11.182 21.2429 11.1085 21.0601C11.0349 20.8774 10.9981 20.682 11 20.485C11.002 20.288 11.0428 20.0933 11.12 19.9121C11.1972 19.7309 11.3093 19.5666 11.45 19.4287C11.5907 19.2909 11.7571 19.182 11.9399 19.1085C12.1226 19.0349 12.318 18.9981 12.515 19C12.712 19.002 12.9067 19.0428 13.0879 19.12C13.2691 19.1972 13.4334 19.3093 13.5712 19.45C13.7597 19.6337 13.9836 19.7771 14.2292 19.8717C14.4748 19.9662 14.737 20.0099 15 20C15.5304 20 16.0391 19.7893 16.4142 19.4142C16.7893 19.0391 17 18.5304 17 18C17 17.4696 16.7893 16.9609 16.4142 16.5858C16.0391 16.2107 15.5304 16 15 16C14.737 15.9901 14.4748 16.0338 14.2292 16.1283C13.9836 16.2229 13.7597 16.3663 13.5712 16.55C13.3478 16.7785 13.0571 16.9297 12.7417 16.9815C12.4263 17.0332 12.1026 16.9829 11.8178 16.8377C11.533 16.6926 11.302 16.4603 11.1585 16.1747C11.015 15.8891 10.9665 15.5651 11.02 15.25Z" fill="#6366F1"/>
</svg>
