<svg width="280" height="28" viewBox="0 0 280 28" fill="none" xmlns="http://www.w3.org/2000/svg">
<path d="M122.454 0.336735L197.029 0L226.687 2.05988C233.746 1.8123 240.825 2.23814 247.875 2.05988C255.424 1.87172 266.454 -0.376314 273.6 0.0693296C275.662 0.198071 278.377 1.2478 279.288 3.27796C280.266 5.44676 280.161 18.7566 279.432 21.7771C276.545 26.2336 245.535 24.9957 239.223 26.808C219.32 25.4512 199.581 25.2829 179.678 24.8273C138.165 23.8667 101.448 26.2633 60.8076 27.7884C50.7459 28.1647 7.43934 29.0461 2.279 19.8262C1.60758 15.9343 -2.57441 2.85212 2.41328 1.10915C3.90959 0.584284 22.4408 3.76322 26.2583 3.97119C57.6807 5.72406 90.8777 0.485254 122.444 0.306997L122.454 0.336735Z" fill="black"/>
</svg>
