<svg width="388" height="158" viewBox="0 0 388 158" fill="none" xmlns="http://www.w3.org/2000/svg">
<rect width="388" height="158" fill="white"/>
<rect x="10.5" y="12.5" width="367" height="131" fill="white" stroke="black"/>
<line x1="35" y1="44.5" x2="231" y2="44.5" stroke="black"/>
<line x1="10" y1="44.5" x2="378" y2="44.5" stroke="black"/>
<line x1="10" y1="77.5" x2="378" y2="77.5" stroke="black"/>
<line x1="10" y1="110.5" x2="378" y2="110.5" stroke="black"/>
<line x1="10" y1="143.5" x2="345" y2="143.5" stroke="black"/>
<line x1="194.5" y1="12" x2="194.5" y2="144" stroke="black"/>
<path d="M83.2305 25.9277L80.9102 33H79.041L82.2109 24.4688H83.4004L83.2305 25.9277ZM85.1582 33L82.832 25.9277L82.6445 24.4688H83.8457L87.0332 33H85.1582ZM85.0527 29.8242V31.2012H80.5469V29.8242H85.0527ZM91.1465 31.248C91.1465 31.127 91.1113 31.0176 91.041 30.9199C90.9707 30.8223 90.8398 30.7324 90.6484 30.6504C90.4609 30.5645 90.1895 30.4863 89.834 30.416C89.5137 30.3457 89.2148 30.2578 88.9375 30.1523C88.6641 30.043 88.4258 29.9121 88.2227 29.7598C88.0234 29.6074 87.8672 29.4277 87.7539 29.2207C87.6406 29.0098 87.584 28.7695 87.584 28.5C87.584 28.2344 87.6406 27.9844 87.7539 27.75C87.8711 27.5156 88.0371 27.3086 88.252 27.1289C88.4707 26.9453 88.7363 26.8027 89.0488 26.7012C89.3652 26.5957 89.7207 26.543 90.1152 26.543C90.666 26.543 91.1387 26.6309 91.5332 26.8066C91.9316 26.9824 92.2363 27.2246 92.4473 27.5332C92.6621 27.8379 92.7695 28.1855 92.7695 28.5762H91.082C91.082 28.4121 91.0469 28.2656 90.9766 28.1367C90.9102 28.0039 90.8047 27.9004 90.6602 27.8262C90.5195 27.748 90.3359 27.709 90.1094 27.709C89.9219 27.709 89.7598 27.7422 89.623 27.8086C89.4863 27.8711 89.3809 27.957 89.3066 28.0664C89.2363 28.1719 89.2012 28.2891 89.2012 28.418C89.2012 28.5156 89.2207 28.6035 89.2598 28.6816C89.3027 28.7559 89.3711 28.8242 89.4648 28.8867C89.5586 28.9492 89.6797 29.0078 89.8281 29.0625C89.9805 29.1133 90.168 29.1602 90.3906 29.2031C90.8477 29.2969 91.2559 29.4199 91.6152 29.5723C91.9746 29.7207 92.2598 29.9238 92.4707 30.1816C92.6816 30.4355 92.7871 30.7695 92.7871 31.1836C92.7871 31.4648 92.7246 31.7227 92.5996 31.957C92.4746 32.1914 92.2949 32.3965 92.0605 32.5723C91.8262 32.7441 91.5449 32.8789 91.2168 32.9766C90.8926 33.0703 90.5273 33.1172 90.1211 33.1172C89.5312 33.1172 89.0312 33.0117 88.6211 32.8008C88.2148 32.5898 87.9062 32.3223 87.6953 31.998C87.4883 31.6699 87.3848 31.334 87.3848 30.9902H88.9844C88.9922 31.2207 89.0508 31.4062 89.1602 31.5469C89.2734 31.6875 89.416 31.7891 89.5879 31.8516C89.7637 31.9141 89.9531 31.9453 90.1562 31.9453C90.375 31.9453 90.5566 31.916 90.7012 31.8574C90.8457 31.7949 90.9551 31.7129 91.0293 31.6113C91.1074 31.5059 91.1465 31.3848 91.1465 31.248ZM97.3105 31.248C97.3105 31.127 97.2754 31.0176 97.2051 30.9199C97.1348 30.8223 97.0039 30.7324 96.8125 30.6504C96.625 30.5645 96.3535 30.4863 95.998 30.416C95.6777 30.3457 95.3789 30.2578 95.1016 30.1523C94.8281 30.043 94.5898 29.9121 94.3867 29.7598C94.1875 29.6074 94.0312 29.4277 93.918 29.2207C93.8047 29.0098 93.748 28.7695 93.748 28.5C93.748 28.2344 93.8047 27.9844 93.918 27.75C94.0352 27.5156 94.2012 27.3086 94.416 27.1289C94.6348 26.9453 94.9004 26.8027 95.2129 26.7012C95.5293 26.5957 95.8848 26.543 96.2793 26.543C96.8301 26.543 97.3027 26.6309 97.6973 26.8066C98.0957 26.9824 98.4004 27.2246 98.6113 27.5332C98.8262 27.8379 98.9336 28.1855 98.9336 28.5762H97.2461C97.2461 28.4121 97.2109 28.2656 97.1406 28.1367C97.0742 28.0039 96.9688 27.9004 96.8242 27.8262C96.6836 27.748 96.5 27.709 96.2734 27.709C96.0859 27.709 95.9238 27.7422 95.7871 27.8086C95.6504 27.8711 95.5449 27.957 95.4707 28.0664C95.4004 28.1719 95.3652 28.2891 95.3652 28.418C95.3652 28.5156 95.3848 28.6035 95.4238 28.6816C95.4668 28.7559 95.5352 28.8242 95.6289 28.8867C95.7227 28.9492 95.8438 29.0078 95.9922 29.0625C96.1445 29.1133 96.332 29.1602 96.5547 29.2031C97.0117 29.2969 97.4199 29.4199 97.7793 29.5723C98.1387 29.7207 98.4238 29.9238 98.6348 30.1816C98.8457 30.4355 98.9512 30.7695 98.9512 31.1836C98.9512 31.4648 98.8887 31.7227 98.7637 31.957C98.6387 32.1914 98.459 32.3965 98.2246 32.5723C97.9902 32.7441 97.709 32.8789 97.3809 32.9766C97.0566 33.0703 96.6914 33.1172 96.2852 33.1172C95.6953 33.1172 95.1953 33.0117 94.7852 32.8008C94.3789 32.5898 94.0703 32.3223 93.8594 31.998C93.6523 31.6699 93.5488 31.334 93.5488 30.9902H95.1484C95.1562 31.2207 95.2148 31.4062 95.3242 31.5469C95.4375 31.6875 95.5801 31.7891 95.752 31.8516C95.9277 31.9141 96.1172 31.9453 96.3203 31.9453C96.5391 31.9453 96.7207 31.916 96.8652 31.8574C97.0098 31.7949 97.1191 31.7129 97.1934 31.6113C97.2715 31.5059 97.3105 31.3848 97.3105 31.248ZM102.965 33.1172C102.473 33.1172 102.031 33.0391 101.641 32.8828C101.25 32.7227 100.918 32.502 100.645 32.2207C100.375 31.9395 100.168 31.6133 100.023 31.2422C99.8789 30.8672 99.8066 30.4688 99.8066 30.0469V29.8125C99.8066 29.332 99.875 28.8926 100.012 28.4941C100.148 28.0957 100.344 27.75 100.598 27.457C100.855 27.1641 101.168 26.9395 101.535 26.7832C101.902 26.623 102.316 26.543 102.777 26.543C103.227 26.543 103.625 26.6172 103.973 26.7656C104.32 26.9141 104.611 27.125 104.846 27.3984C105.084 27.6719 105.264 28 105.385 28.3828C105.506 28.7617 105.566 29.1836 105.566 29.6484V30.3516H100.527V29.2266H103.908V29.0977C103.908 28.8633 103.865 28.6543 103.779 28.4707C103.697 28.2832 103.572 28.1348 103.404 28.0254C103.236 27.916 103.021 27.8613 102.76 27.8613C102.537 27.8613 102.346 27.9102 102.186 28.0078C102.025 28.1055 101.895 28.2422 101.793 28.418C101.695 28.5938 101.621 28.8008 101.57 29.0391C101.523 29.2734 101.5 29.5312 101.5 29.8125V30.0469C101.5 30.3008 101.535 30.5352 101.605 30.75C101.68 30.9648 101.783 31.1504 101.916 31.3066C102.053 31.4629 102.217 31.584 102.408 31.6699C102.604 31.7559 102.824 31.7988 103.07 31.7988C103.375 31.7988 103.658 31.7402 103.92 31.623C104.186 31.502 104.414 31.3203 104.605 31.0781L105.426 31.9688C105.293 32.1602 105.111 32.3438 104.881 32.5195C104.654 32.6953 104.381 32.8398 104.061 32.9531C103.74 33.0625 103.375 33.1172 102.965 33.1172ZM109.633 26.6602V27.8555H105.941V26.6602H109.633ZM106.855 25.0957H108.543V31.0898C108.543 31.2734 108.566 31.4141 108.613 31.5117C108.664 31.6094 108.738 31.6777 108.836 31.7168C108.934 31.752 109.057 31.7695 109.205 31.7695C109.311 31.7695 109.404 31.7656 109.486 31.7578C109.572 31.7461 109.645 31.7344 109.703 31.7227L109.709 32.9648C109.564 33.0117 109.408 33.0488 109.24 33.0762C109.072 33.1035 108.887 33.1172 108.684 33.1172C108.312 33.1172 107.988 33.0566 107.711 32.9355C107.438 32.8105 107.227 32.6113 107.078 32.3379C106.93 32.0645 106.855 31.7051 106.855 31.2598V25.0957ZM114.021 31.248C114.021 31.127 113.986 31.0176 113.916 30.9199C113.846 30.8223 113.715 30.7324 113.523 30.6504C113.336 30.5645 113.064 30.4863 112.709 30.416C112.389 30.3457 112.09 30.2578 111.812 30.1523C111.539 30.043 111.301 29.9121 111.098 29.7598C110.898 29.6074 110.742 29.4277 110.629 29.2207C110.516 29.0098 110.459 28.7695 110.459 28.5C110.459 28.2344 110.516 27.9844 110.629 27.75C110.746 27.5156 110.912 27.3086 111.127 27.1289C111.346 26.9453 111.611 26.8027 111.924 26.7012C112.24 26.5957 112.596 26.543 112.99 26.543C113.541 26.543 114.014 26.6309 114.408 26.8066C114.807 26.9824 115.111 27.2246 115.322 27.5332C115.537 27.8379 115.645 28.1855 115.645 28.5762H113.957C113.957 28.4121 113.922 28.2656 113.852 28.1367C113.785 28.0039 113.68 27.9004 113.535 27.8262C113.395 27.748 113.211 27.709 112.984 27.709C112.797 27.709 112.635 27.7422 112.498 27.8086C112.361 27.8711 112.256 27.957 112.182 28.0664C112.111 28.1719 112.076 28.2891 112.076 28.418C112.076 28.5156 112.096 28.6035 112.135 28.6816C112.178 28.7559 112.246 28.8242 112.34 28.8867C112.434 28.9492 112.555 29.0078 112.703 29.0625C112.855 29.1133 113.043 29.1602 113.266 29.2031C113.723 29.2969 114.131 29.4199 114.49 29.5723C114.85 29.7207 115.135 29.9238 115.346 30.1816C115.557 30.4355 115.662 30.7695 115.662 31.1836C115.662 31.4648 115.6 31.7227 115.475 31.957C115.35 32.1914 115.17 32.3965 114.936 32.5723C114.701 32.7441 114.42 32.8789 114.092 32.9766C113.768 33.0703 113.402 33.1172 112.996 33.1172C112.406 33.1172 111.906 33.0117 111.496 32.8008C111.09 32.5898 110.781 32.3223 110.57 31.998C110.363 31.6699 110.26 31.334 110.26 30.9902H111.859C111.867 31.2207 111.926 31.4062 112.035 31.5469C112.148 31.6875 112.291 31.7891 112.463 31.8516C112.639 31.9141 112.828 31.9453 113.031 31.9453C113.25 31.9453 113.432 31.916 113.576 31.8574C113.721 31.7949 113.83 31.7129 113.904 31.6113C113.982 31.5059 114.021 31.3848 114.021 31.248Z" fill="black"/>
<path d="M262.246 31.6289V33H257.951V31.6289H262.246ZM258.52 24.4688V33H256.762V24.4688H258.52ZM264.93 26.6602V33H263.236V26.6602H264.93ZM263.131 25.0078C263.131 24.7617 263.217 24.5586 263.389 24.3984C263.561 24.2383 263.791 24.1582 264.08 24.1582C264.365 24.1582 264.594 24.2383 264.766 24.3984C264.941 24.5586 265.029 24.7617 265.029 25.0078C265.029 25.2539 264.941 25.457 264.766 25.6172C264.594 25.7773 264.365 25.8574 264.08 25.8574C263.791 25.8574 263.561 25.7773 263.389 25.6172C263.217 25.457 263.131 25.2539 263.131 25.0078ZM269.746 31.5703V28.7461C269.746 28.543 269.713 28.3691 269.646 28.2246C269.58 28.0762 269.477 27.9609 269.336 27.8789C269.199 27.7969 269.021 27.7559 268.803 27.7559C268.615 27.7559 268.453 27.7891 268.316 27.8555C268.18 27.918 268.074 28.0098 268 28.1309C267.926 28.248 267.889 28.3867 267.889 28.5469H266.201C266.201 28.2773 266.264 28.0215 266.389 27.7793C266.514 27.5371 266.695 27.3242 266.934 27.1406C267.172 26.9531 267.455 26.8066 267.783 26.7012C268.115 26.5957 268.486 26.543 268.896 26.543C269.389 26.543 269.826 26.625 270.209 26.7891C270.592 26.9531 270.893 27.1992 271.111 27.5273C271.334 27.8555 271.445 28.2656 271.445 28.7578V31.4707C271.445 31.8184 271.467 32.1035 271.51 32.3262C271.553 32.5449 271.615 32.7363 271.697 32.9004V33H269.992C269.91 32.8281 269.848 32.6133 269.805 32.3555C269.766 32.0938 269.746 31.832 269.746 31.5703ZM269.969 29.1387L269.98 30.0938H269.037C268.814 30.0938 268.621 30.1191 268.457 30.1699C268.293 30.2207 268.158 30.293 268.053 30.3867C267.947 30.4766 267.869 30.582 267.818 30.7031C267.771 30.8242 267.748 30.957 267.748 31.1016C267.748 31.2461 267.781 31.377 267.848 31.4941C267.914 31.6074 268.01 31.6973 268.135 31.7637C268.26 31.8262 268.406 31.8574 268.574 31.8574C268.828 31.8574 269.049 31.8066 269.236 31.7051C269.424 31.6035 269.568 31.4785 269.67 31.3301C269.775 31.1816 269.83 31.041 269.834 30.9082L270.279 31.623C270.217 31.7832 270.131 31.9492 270.021 32.1211C269.916 32.293 269.781 32.4551 269.617 32.6074C269.453 32.7559 269.256 32.8789 269.025 32.9766C268.795 33.0703 268.521 33.1172 268.205 33.1172C267.803 33.1172 267.438 33.0371 267.109 32.877C266.785 32.7129 266.527 32.4883 266.336 32.2031C266.148 31.9141 266.055 31.5859 266.055 31.2188C266.055 30.8867 266.117 30.5918 266.242 30.334C266.367 30.0762 266.551 29.8594 266.793 29.6836C267.039 29.5039 267.346 29.3691 267.713 29.2793C268.08 29.1855 268.506 29.1387 268.99 29.1387H269.969ZM272.746 24H274.434V31.5469L274.264 33H272.746V24ZM278.447 29.7656V29.8887C278.447 30.3613 278.396 30.7949 278.295 31.1895C278.197 31.584 278.045 31.9258 277.838 32.2148C277.631 32.5 277.373 32.7227 277.064 32.8828C276.76 33.0391 276.4 33.1172 275.986 33.1172C275.6 33.1172 275.264 33.0391 274.979 32.8828C274.697 32.7266 274.461 32.5059 274.27 32.2207C274.078 31.9355 273.924 31.6016 273.807 31.2188C273.689 30.8359 273.602 30.418 273.543 29.9648V29.6953C273.602 29.2422 273.689 28.8242 273.807 28.4414C273.924 28.0586 274.078 27.7246 274.27 27.4395C274.461 27.1543 274.697 26.9336 274.979 26.7773C275.26 26.6211 275.592 26.543 275.975 26.543C276.393 26.543 276.756 26.623 277.064 26.7832C277.377 26.9395 277.635 27.1621 277.838 27.4512C278.045 27.7363 278.197 28.0762 278.295 28.4707C278.396 28.8613 278.447 29.293 278.447 29.7656ZM276.76 29.8887V29.7656C276.76 29.5078 276.74 29.2656 276.701 29.0391C276.666 28.8086 276.604 28.6074 276.514 28.4355C276.424 28.2598 276.301 28.1211 276.145 28.0195C275.992 27.918 275.795 27.8672 275.553 27.8672C275.322 27.8672 275.127 27.9062 274.967 27.9844C274.807 28.0625 274.674 28.1719 274.568 28.3125C274.467 28.4531 274.391 28.6211 274.34 28.8164C274.289 29.0078 274.258 29.2188 274.246 29.4492V30.2168C274.258 30.5254 274.309 30.7988 274.398 31.0371C274.492 31.2715 274.633 31.457 274.82 31.5938C275.012 31.7266 275.26 31.793 275.564 31.793C275.803 31.793 276 31.7461 276.156 31.6523C276.312 31.5586 276.434 31.4258 276.52 31.2539C276.609 31.082 276.672 30.8809 276.707 30.6504C276.742 30.416 276.76 30.1621 276.76 29.8887ZM281.277 26.6602V33H279.584V26.6602H281.277ZM279.479 25.0078C279.479 24.7617 279.564 24.5586 279.736 24.3984C279.908 24.2383 280.139 24.1582 280.428 24.1582C280.713 24.1582 280.941 24.2383 281.113 24.3984C281.289 24.5586 281.377 24.7617 281.377 25.0078C281.377 25.2539 281.289 25.457 281.113 25.6172C280.941 25.7773 280.713 25.8574 280.428 25.8574C280.139 25.8574 279.908 25.7773 279.736 25.6172C279.564 25.457 279.479 25.2539 279.479 25.0078ZM284.453 24V33H282.76V24H284.453ZM287.629 26.6602V33H285.936V26.6602H287.629ZM285.83 25.0078C285.83 24.7617 285.916 24.5586 286.088 24.3984C286.26 24.2383 286.49 24.1582 286.779 24.1582C287.064 24.1582 287.293 24.2383 287.465 24.3984C287.641 24.5586 287.729 24.7617 287.729 25.0078C287.729 25.2539 287.641 25.457 287.465 25.6172C287.293 25.7773 287.064 25.8574 286.779 25.8574C286.49 25.8574 286.26 25.7773 286.088 25.6172C285.916 25.457 285.83 25.2539 285.83 25.0078ZM292.129 26.6602V27.8555H288.438V26.6602H292.129ZM289.352 25.0957H291.039V31.0898C291.039 31.2734 291.062 31.4141 291.109 31.5117C291.16 31.6094 291.234 31.6777 291.332 31.7168C291.43 31.752 291.553 31.7695 291.701 31.7695C291.807 31.7695 291.9 31.7656 291.982 31.7578C292.068 31.7461 292.141 31.7344 292.199 31.7227L292.205 32.9648C292.061 33.0117 291.904 33.0488 291.736 33.0762C291.568 33.1035 291.383 33.1172 291.18 33.1172C290.809 33.1172 290.484 33.0566 290.207 32.9355C289.934 32.8105 289.723 32.6113 289.574 32.3379C289.426 32.0645 289.352 31.7051 289.352 31.2598V25.0957ZM294.871 26.6602V33H293.178V26.6602H294.871ZM293.072 25.0078C293.072 24.7617 293.158 24.5586 293.33 24.3984C293.502 24.2383 293.732 24.1582 294.021 24.1582C294.307 24.1582 294.535 24.2383 294.707 24.3984C294.883 24.5586 294.971 24.7617 294.971 25.0078C294.971 25.2539 294.883 25.457 294.707 25.6172C294.535 25.7773 294.307 25.8574 294.021 25.8574C293.732 25.8574 293.502 25.7773 293.33 25.6172C293.158 25.457 293.072 25.2539 293.072 25.0078ZM299.184 33.1172C298.691 33.1172 298.25 33.0391 297.859 32.8828C297.469 32.7227 297.137 32.502 296.863 32.2207C296.594 31.9395 296.387 31.6133 296.242 31.2422C296.098 30.8672 296.025 30.4688 296.025 30.0469V29.8125C296.025 29.332 296.094 28.8926 296.23 28.4941C296.367 28.0957 296.562 27.75 296.816 27.457C297.074 27.1641 297.387 26.9395 297.754 26.7832C298.121 26.623 298.535 26.543 298.996 26.543C299.445 26.543 299.844 26.6172 300.191 26.7656C300.539 26.9141 300.83 27.125 301.064 27.3984C301.303 27.6719 301.482 28 301.604 28.3828C301.725 28.7617 301.785 29.1836 301.785 29.6484V30.3516H296.746V29.2266H300.127V29.0977C300.127 28.8633 300.084 28.6543 299.998 28.4707C299.916 28.2832 299.791 28.1348 299.623 28.0254C299.455 27.916 299.24 27.8613 298.979 27.8613C298.756 27.8613 298.564 27.9102 298.404 28.0078C298.244 28.1055 298.113 28.2422 298.012 28.418C297.914 28.5938 297.84 28.8008 297.789 29.0391C297.742 29.2734 297.719 29.5312 297.719 29.8125V30.0469C297.719 30.3008 297.754 30.5352 297.824 30.75C297.898 30.9648 298.002 31.1504 298.135 31.3066C298.271 31.4629 298.436 31.584 298.627 31.6699C298.822 31.7559 299.043 31.7988 299.289 31.7988C299.594 31.7988 299.877 31.7402 300.139 31.623C300.404 31.502 300.633 31.3203 300.824 31.0781L301.645 31.9688C301.512 32.1602 301.33 32.3438 301.1 32.5195C300.873 32.6953 300.6 32.8398 300.279 32.9531C299.959 33.0625 299.594 33.1172 299.184 33.1172ZM306.174 31.248C306.174 31.127 306.139 31.0176 306.068 30.9199C305.998 30.8223 305.867 30.7324 305.676 30.6504C305.488 30.5645 305.217 30.4863 304.861 30.416C304.541 30.3457 304.242 30.2578 303.965 30.1523C303.691 30.043 303.453 29.9121 303.25 29.7598C303.051 29.6074 302.895 29.4277 302.781 29.2207C302.668 29.0098 302.611 28.7695 302.611 28.5C302.611 28.2344 302.668 27.9844 302.781 27.75C302.898 27.5156 303.064 27.3086 303.279 27.1289C303.498 26.9453 303.764 26.8027 304.076 26.7012C304.393 26.5957 304.748 26.543 305.143 26.543C305.693 26.543 306.166 26.6309 306.561 26.8066C306.959 26.9824 307.264 27.2246 307.475 27.5332C307.689 27.8379 307.797 28.1855 307.797 28.5762H306.109C306.109 28.4121 306.074 28.2656 306.004 28.1367C305.938 28.0039 305.832 27.9004 305.688 27.8262C305.547 27.748 305.363 27.709 305.137 27.709C304.949 27.709 304.787 27.7422 304.65 27.8086C304.514 27.8711 304.408 27.957 304.334 28.0664C304.264 28.1719 304.229 28.2891 304.229 28.418C304.229 28.5156 304.248 28.6035 304.287 28.6816C304.33 28.7559 304.398 28.8242 304.492 28.8867C304.586 28.9492 304.707 29.0078 304.855 29.0625C305.008 29.1133 305.195 29.1602 305.418 29.2031C305.875 29.2969 306.283 29.4199 306.643 29.5723C307.002 29.7207 307.287 29.9238 307.498 30.1816C307.709 30.4355 307.814 30.7695 307.814 31.1836C307.814 31.4648 307.752 31.7227 307.627 31.957C307.502 32.1914 307.322 32.3965 307.088 32.5723C306.854 32.7441 306.572 32.8789 306.244 32.9766C305.92 33.0703 305.555 33.1172 305.148 33.1172C304.559 33.1172 304.059 33.0117 303.648 32.8008C303.242 32.5898 302.934 32.3223 302.723 31.998C302.516 31.6699 302.412 31.334 302.412 30.9902H304.012C304.02 31.2207 304.078 31.4062 304.188 31.5469C304.301 31.6875 304.443 31.7891 304.615 31.8516C304.791 31.9141 304.98 31.9453 305.184 31.9453C305.402 31.9453 305.584 31.916 305.729 31.8574C305.873 31.7949 305.982 31.7129 306.057 31.6113C306.135 31.5059 306.174 31.3848 306.174 31.248Z" fill="black"/>
<path d="M207.299 66H205.518L205.529 65.0801H207.299C207.908 65.0801 208.416 64.9531 208.822 64.6992C209.229 64.4414 209.533 64.082 209.736 63.6211C209.943 63.1562 210.047 62.6133 210.047 61.9922V61.4707C210.047 60.9824 209.988 60.5488 209.871 60.1699C209.754 59.7871 209.582 59.4648 209.355 59.2031C209.129 58.9375 208.852 58.7363 208.523 58.5996C208.199 58.4629 207.826 58.3945 207.404 58.3945H205.482V57.4688H207.404C207.963 57.4688 208.473 57.5625 208.934 57.75C209.395 57.9336 209.791 58.2012 210.123 58.5527C210.459 58.9004 210.717 59.3223 210.896 59.8184C211.076 60.3105 211.166 60.8652 211.166 61.4824V61.9922C211.166 62.6094 211.076 63.166 210.896 63.6621C210.717 64.1543 210.457 64.5742 210.117 64.9219C209.781 65.2695 209.375 65.5371 208.898 65.7246C208.426 65.9082 207.893 66 207.299 66ZM206.121 57.4688V66H204.99V57.4688H206.121ZM215.332 66.1172C214.891 66.1172 214.49 66.043 214.131 65.8945C213.775 65.7422 213.469 65.5293 213.211 65.2559C212.957 64.9824 212.762 64.6582 212.625 64.2832C212.488 63.9082 212.42 63.498 212.42 63.0527V62.8066C212.42 62.291 212.496 61.832 212.648 61.4297C212.801 61.0234 213.008 60.6797 213.27 60.3984C213.531 60.1172 213.828 59.9043 214.16 59.7598C214.492 59.6152 214.836 59.543 215.191 59.543C215.645 59.543 216.035 59.6211 216.363 59.7773C216.695 59.9336 216.967 60.1523 217.178 60.4336C217.389 60.7109 217.545 61.0391 217.646 61.418C217.748 61.793 217.799 62.2031 217.799 62.6484V63.1348H213.064V62.25H216.715V62.168C216.699 61.8867 216.641 61.6133 216.539 61.3477C216.441 61.082 216.285 60.8633 216.07 60.6914C215.855 60.5195 215.562 60.4336 215.191 60.4336C214.945 60.4336 214.719 60.4863 214.512 60.5918C214.305 60.6934 214.127 60.8457 213.979 61.0488C213.83 61.252 213.715 61.5 213.633 61.793C213.551 62.0859 213.51 62.4238 213.51 62.8066V63.0527C213.51 63.3535 213.551 63.6367 213.633 63.9023C213.719 64.1641 213.842 64.3945 214.002 64.5938C214.166 64.793 214.363 64.9492 214.594 65.0625C214.828 65.1758 215.094 65.2324 215.391 65.2324C215.773 65.2324 216.098 65.1543 216.363 64.998C216.629 64.8418 216.861 64.6328 217.061 64.3711L217.717 64.8926C217.58 65.0996 217.406 65.2969 217.195 65.4844C216.984 65.6719 216.725 65.8242 216.416 65.9414C216.111 66.0586 215.75 66.1172 215.332 66.1172ZM220.143 60.9199V66H219.053V59.6602H220.084L220.143 60.9199ZM219.92 62.5898L219.416 62.5723C219.42 62.1387 219.477 61.7383 219.586 61.3711C219.695 61 219.857 60.6777 220.072 60.4043C220.287 60.1309 220.555 59.9199 220.875 59.7715C221.195 59.6191 221.566 59.543 221.988 59.543C222.285 59.543 222.559 59.5859 222.809 59.6719C223.059 59.7539 223.275 59.8848 223.459 60.0645C223.643 60.2441 223.785 60.4746 223.887 60.7559C223.988 61.0371 224.039 61.377 224.039 61.7754V66H222.955V61.8281C222.955 61.4961 222.898 61.2305 222.785 61.0312C222.676 60.832 222.52 60.6875 222.316 60.5977C222.113 60.5039 221.875 60.457 221.602 60.457C221.281 60.457 221.014 60.5137 220.799 60.627C220.584 60.7402 220.412 60.8965 220.283 61.0957C220.154 61.2949 220.061 61.5234 220.002 61.7812C219.947 62.0352 219.92 62.3047 219.92 62.5898ZM224.027 61.9922L223.301 62.2148C223.305 61.8672 223.361 61.5332 223.471 61.2129C223.584 60.8926 223.746 60.6074 223.957 60.3574C224.172 60.1074 224.436 59.9102 224.748 59.7656C225.061 59.6172 225.418 59.543 225.82 59.543C226.16 59.543 226.461 59.5879 226.723 59.6777C226.988 59.7676 227.211 59.9062 227.391 60.0938C227.574 60.2773 227.713 60.5137 227.807 60.8027C227.9 61.0918 227.947 61.4355 227.947 61.834V66H226.857V61.8223C226.857 61.4668 226.801 61.1914 226.688 60.9961C226.578 60.7969 226.422 60.6582 226.219 60.5801C226.02 60.498 225.781 60.457 225.504 60.457C225.266 60.457 225.055 60.498 224.871 60.5801C224.688 60.6621 224.533 60.7754 224.408 60.9199C224.283 61.0605 224.188 61.2227 224.121 61.4062C224.059 61.5898 224.027 61.7852 224.027 61.9922ZM233.326 64.916V61.6523C233.326 61.4023 233.275 61.1855 233.174 61.002C233.076 60.8145 232.928 60.6699 232.729 60.5684C232.529 60.4668 232.283 60.416 231.99 60.416C231.717 60.416 231.477 60.4629 231.27 60.5566C231.066 60.6504 230.906 60.7734 230.789 60.9258C230.676 61.0781 230.619 61.2422 230.619 61.418H229.535C229.535 61.1914 229.594 60.9668 229.711 60.7441C229.828 60.5215 229.996 60.3203 230.215 60.1406C230.438 59.957 230.703 59.8125 231.012 59.707C231.324 59.5977 231.672 59.543 232.055 59.543C232.516 59.543 232.922 59.6211 233.273 59.7773C233.629 59.9336 233.906 60.1699 234.105 60.4863C234.309 60.7988 234.41 61.1914 234.41 61.6641V64.6172C234.41 64.8281 234.428 65.0527 234.463 65.291C234.502 65.5293 234.559 65.7344 234.633 65.9062V66H233.502C233.447 65.875 233.404 65.709 233.373 65.502C233.342 65.291 233.326 65.0957 233.326 64.916ZM233.514 62.1562L233.525 62.918H232.43C232.121 62.918 231.846 62.9434 231.604 62.9941C231.361 63.041 231.158 63.1133 230.994 63.2109C230.83 63.3086 230.705 63.4316 230.619 63.5801C230.533 63.7246 230.49 63.8945 230.49 64.0898C230.49 64.2891 230.535 64.4707 230.625 64.6348C230.715 64.7988 230.85 64.9297 231.029 65.0273C231.213 65.1211 231.438 65.168 231.703 65.168C232.035 65.168 232.328 65.0977 232.582 64.957C232.836 64.8164 233.037 64.6445 233.186 64.4414C233.338 64.2383 233.42 64.041 233.432 63.8496L233.895 64.3711C233.867 64.5352 233.793 64.7168 233.672 64.916C233.551 65.1152 233.389 65.3066 233.186 65.4902C232.986 65.6699 232.748 65.8203 232.471 65.9414C232.197 66.0586 231.889 66.1172 231.545 66.1172C231.115 66.1172 230.738 66.0332 230.414 65.8652C230.094 65.6973 229.844 65.4727 229.664 65.1914C229.488 64.9062 229.4 64.5879 229.4 64.2363C229.4 63.8965 229.467 63.5977 229.6 63.3398C229.732 63.0781 229.924 62.8613 230.174 62.6895C230.424 62.5137 230.725 62.3809 231.076 62.291C231.428 62.2012 231.82 62.1562 232.254 62.1562H233.514ZM237.199 61.0137V66H236.115V59.6602H237.141L237.199 61.0137ZM236.941 62.5898L236.49 62.5723C236.494 62.1387 236.559 61.7383 236.684 61.3711C236.809 61 236.984 60.6777 237.211 60.4043C237.438 60.1309 237.707 59.9199 238.02 59.7715C238.336 59.6191 238.686 59.543 239.068 59.543C239.381 59.543 239.662 59.5859 239.912 59.6719C240.162 59.7539 240.375 59.8867 240.551 60.0703C240.73 60.2539 240.867 60.4922 240.961 60.7852C241.055 61.0742 241.102 61.4277 241.102 61.8457V66H240.012V61.834C240.012 61.502 239.963 61.2363 239.865 61.0371C239.768 60.834 239.625 60.6875 239.438 60.5977C239.25 60.5039 239.02 60.457 238.746 60.457C238.477 60.457 238.23 60.5137 238.008 60.627C237.789 60.7402 237.6 60.8965 237.439 61.0957C237.283 61.2949 237.16 61.5234 237.07 61.7812C236.984 62.0352 236.941 62.3047 236.941 62.5898ZM246.744 64.7695V57H247.834V66H246.838L246.744 64.7695ZM242.479 62.9004V62.7773C242.479 62.293 242.537 61.8535 242.654 61.459C242.775 61.0605 242.945 60.7188 243.164 60.4336C243.387 60.1484 243.65 59.9297 243.955 59.7773C244.264 59.6211 244.607 59.543 244.986 59.543C245.385 59.543 245.732 59.6133 246.029 59.7539C246.33 59.8906 246.584 60.0918 246.791 60.3574C247.002 60.6191 247.168 60.9355 247.289 61.3066C247.41 61.6777 247.494 62.0977 247.541 62.5664V63.1055C247.498 63.5703 247.414 63.9883 247.289 64.3594C247.168 64.7305 247.002 65.0469 246.791 65.3086C246.584 65.5703 246.33 65.7715 246.029 65.9121C245.729 66.0488 245.377 66.1172 244.975 66.1172C244.604 66.1172 244.264 66.0371 243.955 65.877C243.65 65.7168 243.387 65.4922 243.164 65.2031C242.945 64.9141 242.775 64.5742 242.654 64.1836C242.537 63.7891 242.479 63.3613 242.479 62.9004ZM243.568 62.7773V62.9004C243.568 63.2168 243.6 63.5137 243.662 63.791C243.729 64.0684 243.83 64.3125 243.967 64.5234C244.104 64.7344 244.277 64.9004 244.488 65.0215C244.699 65.1387 244.951 65.1973 245.244 65.1973C245.604 65.1973 245.898 65.1211 246.129 64.9688C246.363 64.8164 246.551 64.6152 246.691 64.3652C246.832 64.1152 246.941 63.8438 247.02 63.5508V62.1387C246.973 61.9238 246.904 61.7168 246.814 61.5176C246.729 61.3145 246.615 61.1348 246.475 60.9785C246.338 60.8184 246.168 60.6914 245.965 60.5977C245.766 60.5039 245.529 60.457 245.256 60.457C244.959 60.457 244.703 60.5195 244.488 60.6445C244.277 60.7656 244.104 60.9336 243.967 61.1484C243.83 61.3594 243.729 61.6055 243.662 61.8867C243.6 62.1641 243.568 62.4609 243.568 62.7773ZM254.971 66H253.189L253.201 65.0801H254.971C255.58 65.0801 256.088 64.9531 256.494 64.6992C256.9 64.4414 257.205 64.082 257.408 63.6211C257.615 63.1562 257.719 62.6133 257.719 61.9922V61.4707C257.719 60.9824 257.66 60.5488 257.543 60.1699C257.426 59.7871 257.254 59.4648 257.027 59.2031C256.801 58.9375 256.523 58.7363 256.195 58.5996C255.871 58.4629 255.498 58.3945 255.076 58.3945H253.154V57.4688H255.076C255.635 57.4688 256.145 57.5625 256.605 57.75C257.066 57.9336 257.463 58.2012 257.795 58.5527C258.131 58.9004 258.389 59.3223 258.568 59.8184C258.748 60.3105 258.838 60.8652 258.838 61.4824V61.9922C258.838 62.6094 258.748 63.166 258.568 63.6621C258.389 64.1543 258.129 64.5742 257.789 64.9219C257.453 65.2695 257.047 65.5371 256.57 65.7246C256.098 65.9082 255.564 66 254.971 66ZM253.793 57.4688V66H252.662V57.4688H253.793ZM263.004 66.1172C262.562 66.1172 262.162 66.043 261.803 65.8945C261.447 65.7422 261.141 65.5293 260.883 65.2559C260.629 64.9824 260.434 64.6582 260.297 64.2832C260.16 63.9082 260.092 63.498 260.092 63.0527V62.8066C260.092 62.291 260.168 61.832 260.32 61.4297C260.473 61.0234 260.68 60.6797 260.941 60.3984C261.203 60.1172 261.5 59.9043 261.832 59.7598C262.164 59.6152 262.508 59.543 262.863 59.543C263.316 59.543 263.707 59.6211 264.035 59.7773C264.367 59.9336 264.639 60.1523 264.85 60.4336C265.061 60.7109 265.217 61.0391 265.318 61.418C265.42 61.793 265.471 62.2031 265.471 62.6484V63.1348H260.736V62.25H264.387V62.168C264.371 61.8867 264.312 61.6133 264.211 61.3477C264.113 61.082 263.957 60.8633 263.742 60.6914C263.527 60.5195 263.234 60.4336 262.863 60.4336C262.617 60.4336 262.391 60.4863 262.184 60.5918C261.977 60.6934 261.799 60.8457 261.65 61.0488C261.502 61.252 261.387 61.5 261.305 61.793C261.223 62.0859 261.182 62.4238 261.182 62.8066V63.0527C261.182 63.3535 261.223 63.6367 261.305 63.9023C261.391 64.1641 261.514 64.3945 261.674 64.5938C261.838 64.793 262.035 64.9492 262.266 65.0625C262.5 65.1758 262.766 65.2324 263.062 65.2324C263.445 65.2324 263.77 65.1543 264.035 64.998C264.301 64.8418 264.533 64.6328 264.732 64.3711L265.389 64.8926C265.252 65.0996 265.078 65.2969 264.867 65.4844C264.656 65.6719 264.396 65.8242 264.088 65.9414C263.783 66.0586 263.422 66.1172 263.004 66.1172ZM267.82 60.8789V68.4375H266.73V59.6602H267.727L267.82 60.8789ZM272.092 62.7773V62.9004C272.092 63.3613 272.037 63.7891 271.928 64.1836C271.818 64.5742 271.658 64.9141 271.447 65.2031C271.24 65.4922 270.984 65.7168 270.68 65.877C270.375 66.0371 270.025 66.1172 269.631 66.1172C269.229 66.1172 268.873 66.0508 268.564 65.918C268.256 65.7852 267.994 65.5918 267.779 65.3379C267.564 65.084 267.393 64.7793 267.264 64.4238C267.139 64.0684 267.053 63.668 267.006 63.2227V62.5664C267.053 62.0977 267.141 61.6777 267.27 61.3066C267.398 60.9355 267.568 60.6191 267.779 60.3574C267.994 60.0918 268.254 59.8906 268.559 59.7539C268.863 59.6133 269.215 59.543 269.613 59.543C270.012 59.543 270.365 59.6211 270.674 59.7773C270.982 59.9297 271.242 60.1484 271.453 60.4336C271.664 60.7188 271.822 61.0605 271.928 61.459C272.037 61.8535 272.092 62.293 272.092 62.7773ZM271.002 62.9004V62.7773C271.002 62.4609 270.969 62.1641 270.902 61.8867C270.836 61.6055 270.732 61.3594 270.592 61.1484C270.455 60.9336 270.279 60.7656 270.064 60.6445C269.85 60.5195 269.594 60.457 269.297 60.457C269.023 60.457 268.785 60.5039 268.582 60.5977C268.383 60.6914 268.213 60.8184 268.072 60.9785C267.932 61.1348 267.816 61.3145 267.727 61.5176C267.641 61.7168 267.576 61.9238 267.533 62.1387V63.6562C267.611 63.9297 267.721 64.1875 267.861 64.4297C268.002 64.668 268.189 64.8613 268.424 65.0098C268.658 65.1543 268.953 65.2266 269.309 65.2266C269.602 65.2266 269.854 65.166 270.064 65.0449C270.279 64.9199 270.455 64.75 270.592 64.5352C270.732 64.3203 270.836 64.0742 270.902 63.7969C270.969 63.5156 271.002 63.2168 271.002 62.9004ZM273.188 62.9004V62.7656C273.188 62.3086 273.254 61.8848 273.387 61.4941C273.52 61.0996 273.711 60.7578 273.961 60.4688C274.211 60.1758 274.514 59.9492 274.869 59.7891C275.225 59.625 275.623 59.543 276.064 59.543C276.51 59.543 276.91 59.625 277.266 59.7891C277.625 59.9492 277.93 60.1758 278.18 60.4688C278.434 60.7578 278.627 61.0996 278.76 61.4941C278.893 61.8848 278.959 62.3086 278.959 62.7656V62.9004C278.959 63.3574 278.893 63.7812 278.76 64.1719C278.627 64.5625 278.434 64.9043 278.18 65.1973C277.93 65.4863 277.627 65.7129 277.271 65.877C276.92 66.0371 276.521 66.1172 276.076 66.1172C275.631 66.1172 275.23 66.0371 274.875 65.877C274.52 65.7129 274.215 65.4863 273.961 65.1973C273.711 64.9043 273.52 64.5625 273.387 64.1719C273.254 63.7812 273.188 63.3574 273.188 62.9004ZM274.271 62.7656V62.9004C274.271 63.2168 274.309 63.5156 274.383 63.7969C274.457 64.0742 274.568 64.3203 274.717 64.5352C274.869 64.75 275.059 64.9199 275.285 65.0449C275.512 65.166 275.775 65.2266 276.076 65.2266C276.373 65.2266 276.633 65.166 276.855 65.0449C277.082 64.9199 277.27 64.75 277.418 64.5352C277.566 64.3203 277.678 64.0742 277.752 63.7969C277.83 63.5156 277.869 63.2168 277.869 62.9004V62.7656C277.869 62.4531 277.83 62.1582 277.752 61.8809C277.678 61.5996 277.564 61.3516 277.412 61.1367C277.264 60.918 277.076 60.7461 276.85 60.6211C276.627 60.4961 276.365 60.4336 276.064 60.4336C275.768 60.4336 275.506 60.4961 275.279 60.6211C275.057 60.7461 274.869 60.918 274.717 61.1367C274.568 61.3516 274.457 61.5996 274.383 61.8809C274.309 62.1582 274.271 62.4531 274.271 62.7656ZM284.01 64.3184C284.01 64.1621 283.975 64.0176 283.904 63.8848C283.838 63.748 283.699 63.625 283.488 63.5156C283.281 63.4023 282.969 63.3047 282.551 63.2227C282.199 63.1484 281.881 63.0605 281.596 62.959C281.314 62.8574 281.074 62.7344 280.875 62.5898C280.68 62.4453 280.529 62.2754 280.424 62.0801C280.318 61.8848 280.266 61.6562 280.266 61.3945C280.266 61.1445 280.32 60.9082 280.43 60.6855C280.543 60.4629 280.701 60.2656 280.904 60.0938C281.111 59.9219 281.359 59.7871 281.648 59.6895C281.938 59.5918 282.26 59.543 282.615 59.543C283.123 59.543 283.557 59.6328 283.916 59.8125C284.275 59.9922 284.551 60.2324 284.742 60.5332C284.934 60.8301 285.029 61.1602 285.029 61.5234H283.945C283.945 61.3477 283.893 61.1777 283.787 61.0137C283.686 60.8457 283.535 60.707 283.336 60.5977C283.141 60.4883 282.9 60.4336 282.615 60.4336C282.314 60.4336 282.07 60.4805 281.883 60.5742C281.699 60.6641 281.564 60.7793 281.479 60.9199C281.396 61.0605 281.355 61.209 281.355 61.3652C281.355 61.4824 281.375 61.5879 281.414 61.6816C281.457 61.7715 281.531 61.8555 281.637 61.9336C281.742 62.0078 281.891 62.0781 282.082 62.1445C282.273 62.2109 282.518 62.2773 282.814 62.3438C283.334 62.4609 283.762 62.6016 284.098 62.7656C284.434 62.9297 284.684 63.1309 284.848 63.3691C285.012 63.6074 285.094 63.8965 285.094 64.2363C285.094 64.5137 285.035 64.7676 284.918 64.998C284.805 65.2285 284.639 65.4277 284.42 65.5957C284.205 65.7598 283.947 65.8887 283.646 65.9824C283.35 66.0723 283.016 66.1172 282.645 66.1172C282.086 66.1172 281.613 66.0176 281.227 65.8184C280.84 65.6191 280.547 65.3613 280.348 65.0449C280.148 64.7285 280.049 64.3945 280.049 64.043H281.139C281.154 64.3398 281.24 64.5762 281.396 64.752C281.553 64.9238 281.744 65.0469 281.971 65.1211C282.197 65.1914 282.422 65.2266 282.645 65.2266C282.941 65.2266 283.189 65.1875 283.389 65.1094C283.592 65.0312 283.746 64.9238 283.852 64.7871C283.957 64.6504 284.01 64.4941 284.01 64.3184ZM287.695 59.6602V66H286.605V59.6602H287.695ZM286.523 57.9785C286.523 57.8027 286.576 57.6543 286.682 57.5332C286.791 57.4121 286.951 57.3516 287.162 57.3516C287.369 57.3516 287.527 57.4121 287.637 57.5332C287.75 57.6543 287.807 57.8027 287.807 57.9785C287.807 58.1465 287.75 58.291 287.637 58.4121C287.527 58.5293 287.369 58.5879 287.162 58.5879C286.951 58.5879 286.791 58.5293 286.682 58.4121C286.576 58.291 286.523 58.1465 286.523 57.9785ZM292.09 59.6602V60.4922H288.662V59.6602H292.09ZM289.822 58.1191H290.906V64.4297C290.906 64.6445 290.939 64.8066 291.006 64.916C291.072 65.0254 291.158 65.0977 291.264 65.1328C291.369 65.168 291.482 65.1855 291.604 65.1855C291.693 65.1855 291.787 65.1777 291.885 65.1621C291.986 65.1426 292.062 65.127 292.113 65.1152L292.119 66C292.033 66.0273 291.92 66.0527 291.779 66.0762C291.643 66.1035 291.477 66.1172 291.281 66.1172C291.016 66.1172 290.771 66.0645 290.549 65.959C290.326 65.8535 290.148 65.6777 290.016 65.4316C289.887 65.1816 289.822 64.8457 289.822 64.4238V58.1191ZM297.053 64.3184C297.053 64.1621 297.018 64.0176 296.947 63.8848C296.881 63.748 296.742 63.625 296.531 63.5156C296.324 63.4023 296.012 63.3047 295.594 63.2227C295.242 63.1484 294.924 63.0605 294.639 62.959C294.357 62.8574 294.117 62.7344 293.918 62.5898C293.723 62.4453 293.572 62.2754 293.467 62.0801C293.361 61.8848 293.309 61.6562 293.309 61.3945C293.309 61.1445 293.363 60.9082 293.473 60.6855C293.586 60.4629 293.744 60.2656 293.947 60.0938C294.154 59.9219 294.402 59.7871 294.691 59.6895C294.98 59.5918 295.303 59.543 295.658 59.543C296.166 59.543 296.6 59.6328 296.959 59.8125C297.318 59.9922 297.594 60.2324 297.785 60.5332C297.977 60.8301 298.072 61.1602 298.072 61.5234H296.988C296.988 61.3477 296.936 61.1777 296.83 61.0137C296.729 60.8457 296.578 60.707 296.379 60.5977C296.184 60.4883 295.943 60.4336 295.658 60.4336C295.357 60.4336 295.113 60.4805 294.926 60.5742C294.742 60.6641 294.607 60.7793 294.521 60.9199C294.439 61.0605 294.398 61.209 294.398 61.3652C294.398 61.4824 294.418 61.5879 294.457 61.6816C294.5 61.7715 294.574 61.8555 294.68 61.9336C294.785 62.0078 294.934 62.0781 295.125 62.1445C295.316 62.2109 295.561 62.2773 295.857 62.3438C296.377 62.4609 296.805 62.6016 297.141 62.7656C297.477 62.9297 297.727 63.1309 297.891 63.3691C298.055 63.6074 298.137 63.8965 298.137 64.2363C298.137 64.5137 298.078 64.7676 297.961 64.998C297.848 65.2285 297.682 65.4277 297.463 65.5957C297.248 65.7598 296.99 65.8887 296.689 65.9824C296.393 66.0723 296.059 66.1172 295.688 66.1172C295.129 66.1172 294.656 66.0176 294.27 65.8184C293.883 65.6191 293.59 65.3613 293.391 65.0449C293.191 64.7285 293.092 64.3945 293.092 64.043H294.182C294.197 64.3398 294.283 64.5762 294.439 64.752C294.596 64.9238 294.787 65.0469 295.014 65.1211C295.24 65.1914 295.465 65.2266 295.688 65.2266C295.984 65.2266 296.232 65.1875 296.432 65.1094C296.635 65.0312 296.789 64.9238 296.895 64.7871C297 64.6504 297.053 64.4941 297.053 64.3184ZM317.566 56.0859V57.873H316.688V56.0859H317.566ZM317.461 65.6543V67.2188H316.588V65.6543H317.461ZM318.633 63.8027C318.633 63.5684 318.58 63.3574 318.475 63.1699C318.369 62.9824 318.195 62.8105 317.953 62.6543C317.711 62.498 317.387 62.3535 316.98 62.2207C316.488 62.0684 316.062 61.8828 315.703 61.6641C315.348 61.4453 315.072 61.1738 314.877 60.8496C314.686 60.5254 314.59 60.1328 314.59 59.6719C314.59 59.1914 314.693 58.7773 314.9 58.4297C315.107 58.082 315.4 57.8145 315.779 57.627C316.158 57.4395 316.604 57.3457 317.115 57.3457C317.514 57.3457 317.869 57.4062 318.182 57.5273C318.494 57.6445 318.758 57.8203 318.973 58.0547C319.191 58.2891 319.357 58.5762 319.471 58.916C319.588 59.2559 319.646 59.6484 319.646 60.0938H318.568C318.568 59.832 318.537 59.5918 318.475 59.373C318.412 59.1543 318.318 58.9648 318.193 58.8047C318.068 58.6406 317.916 58.5156 317.736 58.4297C317.557 58.3398 317.35 58.2949 317.115 58.2949C316.787 58.2949 316.516 58.3516 316.301 58.4648C316.09 58.5781 315.934 58.7383 315.832 58.9453C315.73 59.1484 315.68 59.3848 315.68 59.6543C315.68 59.9043 315.73 60.123 315.832 60.3105C315.934 60.498 316.105 60.668 316.348 60.8203C316.594 60.9688 316.932 61.1152 317.361 61.2598C317.865 61.4199 318.293 61.6094 318.645 61.8281C318.996 62.043 319.264 62.3086 319.447 62.625C319.631 62.9375 319.723 63.3262 319.723 63.791C319.723 64.2949 319.609 64.7207 319.383 65.0684C319.156 65.4121 318.838 65.6738 318.428 65.8535C318.018 66.0332 317.537 66.123 316.986 66.123C316.654 66.123 316.326 66.0781 316.002 65.9883C315.678 65.8984 315.385 65.752 315.123 65.5488C314.861 65.3418 314.652 65.0703 314.496 64.7344C314.34 64.3945 314.262 63.9785 314.262 63.4863H315.352C315.352 63.8184 315.398 64.0938 315.492 64.3125C315.59 64.5273 315.719 64.6992 315.879 64.8281C316.039 64.9531 316.215 65.043 316.406 65.0977C316.602 65.1484 316.795 65.1738 316.986 65.1738C317.338 65.1738 317.635 65.1191 317.877 65.0098C318.123 64.8965 318.311 64.7363 318.439 64.5293C318.568 64.3223 318.633 64.0801 318.633 63.8027ZM327.615 57.4219V66H326.531V58.7754L324.346 59.5723V58.5938L327.445 57.4219H327.615ZM336.393 65.1094V66H330.809V65.2207L333.604 62.1094C333.947 61.7266 334.213 61.4023 334.4 61.1367C334.592 60.8672 334.725 60.627 334.799 60.416C334.877 60.2012 334.916 59.9824 334.916 59.7598C334.916 59.4785 334.857 59.2246 334.74 58.998C334.627 58.7676 334.459 58.584 334.236 58.4473C334.014 58.3105 333.744 58.2422 333.428 58.2422C333.049 58.2422 332.732 58.3164 332.479 58.4648C332.229 58.6094 332.041 58.8125 331.916 59.0742C331.791 59.3359 331.729 59.6367 331.729 59.9766H330.645C330.645 59.4961 330.75 59.0566 330.961 58.6582C331.172 58.2598 331.484 57.9434 331.898 57.709C332.312 57.4707 332.822 57.3516 333.428 57.3516C333.967 57.3516 334.428 57.4473 334.811 57.6387C335.193 57.8262 335.486 58.0918 335.689 58.4355C335.896 58.7754 336 59.1738 336 59.6309C336 59.8809 335.957 60.1348 335.871 60.3926C335.789 60.6465 335.674 60.9004 335.525 61.1543C335.381 61.4082 335.211 61.6582 335.016 61.9043C334.824 62.1504 334.619 62.3926 334.4 62.6309L332.115 65.1094H336.393ZM342.908 61.0547V62.3555C342.908 63.0547 342.846 63.6445 342.721 64.125C342.596 64.6055 342.416 64.9922 342.182 65.2852C341.947 65.5781 341.664 65.791 341.332 65.9238C341.004 66.0527 340.633 66.1172 340.219 66.1172C339.891 66.1172 339.588 66.0762 339.311 65.9941C339.033 65.9121 338.783 65.7812 338.561 65.6016C338.342 65.418 338.154 65.1797 337.998 64.8867C337.842 64.5938 337.723 64.2383 337.641 63.8203C337.559 63.4023 337.518 62.9141 337.518 62.3555V61.0547C337.518 60.3555 337.58 59.7695 337.705 59.2969C337.834 58.8242 338.016 58.4453 338.25 58.1602C338.484 57.8711 338.766 57.6641 339.094 57.5391C339.426 57.4141 339.797 57.3516 340.207 57.3516C340.539 57.3516 340.844 57.3926 341.121 57.4746C341.402 57.5527 341.652 57.6797 341.871 57.8555C342.09 58.0273 342.275 58.2578 342.428 58.5469C342.584 58.832 342.703 59.1816 342.785 59.5957C342.867 60.0098 342.908 60.4961 342.908 61.0547ZM341.818 62.5312V60.873C341.818 60.4902 341.795 60.1543 341.748 59.8652C341.705 59.5723 341.641 59.3223 341.555 59.1152C341.469 58.9082 341.359 58.7402 341.227 58.6113C341.098 58.4824 340.947 58.3887 340.775 58.3301C340.607 58.2676 340.418 58.2363 340.207 58.2363C339.949 58.2363 339.721 58.2852 339.521 58.3828C339.322 58.4766 339.154 58.627 339.018 58.834C338.885 59.041 338.783 59.3125 338.713 59.6484C338.643 59.9844 338.607 60.3926 338.607 60.873V62.5312C338.607 62.9141 338.629 63.252 338.672 63.5449C338.719 63.8379 338.787 64.0918 338.877 64.3066C338.967 64.5176 339.076 64.6914 339.205 64.8281C339.334 64.9648 339.482 65.0664 339.65 65.1328C339.822 65.1953 340.012 65.2266 340.219 65.2266C340.484 65.2266 340.717 65.1758 340.916 65.0742C341.115 64.9727 341.281 64.8145 341.414 64.5996C341.551 64.3809 341.652 64.1016 341.719 63.7617C341.785 63.418 341.818 63.0078 341.818 62.5312ZM345.404 64.7109V65.584C345.404 65.9395 345.314 66.3145 345.135 66.709C344.955 67.1074 344.703 67.4395 344.379 67.7051L343.764 67.2773C343.889 67.1055 343.994 66.9297 344.08 66.75C344.166 66.5742 344.23 66.3906 344.273 66.1992C344.32 66.0117 344.344 65.8125 344.344 65.6016V64.7109H345.404ZM352.025 61.0547V62.3555C352.025 63.0547 351.963 63.6445 351.838 64.125C351.713 64.6055 351.533 64.9922 351.299 65.2852C351.064 65.5781 350.781 65.791 350.449 65.9238C350.121 66.0527 349.75 66.1172 349.336 66.1172C349.008 66.1172 348.705 66.0762 348.428 65.9941C348.15 65.9121 347.9 65.7812 347.678 65.6016C347.459 65.418 347.271 65.1797 347.115 64.8867C346.959 64.5938 346.84 64.2383 346.758 63.8203C346.676 63.4023 346.635 62.9141 346.635 62.3555V61.0547C346.635 60.3555 346.697 59.7695 346.822 59.2969C346.951 58.8242 347.133 58.4453 347.367 58.1602C347.602 57.8711 347.883 57.6641 348.211 57.5391C348.543 57.4141 348.914 57.3516 349.324 57.3516C349.656 57.3516 349.961 57.3926 350.238 57.4746C350.52 57.5527 350.77 57.6797 350.988 57.8555C351.207 58.0273 351.393 58.2578 351.545 58.5469C351.701 58.832 351.82 59.1816 351.902 59.5957C351.984 60.0098 352.025 60.4961 352.025 61.0547ZM350.936 62.5312V60.873C350.936 60.4902 350.912 60.1543 350.865 59.8652C350.822 59.5723 350.758 59.3223 350.672 59.1152C350.586 58.9082 350.477 58.7402 350.344 58.6113C350.215 58.4824 350.064 58.3887 349.893 58.3301C349.725 58.2676 349.535 58.2363 349.324 58.2363C349.066 58.2363 348.838 58.2852 348.639 58.3828C348.439 58.4766 348.271 58.627 348.135 58.834C348.002 59.041 347.9 59.3125 347.83 59.6484C347.76 59.9844 347.725 60.3926 347.725 60.873V62.5312C347.725 62.9141 347.746 63.252 347.789 63.5449C347.836 63.8379 347.904 64.0918 347.994 64.3066C348.084 64.5176 348.193 64.6914 348.322 64.8281C348.451 64.9648 348.6 65.0664 348.768 65.1328C348.939 65.1953 349.129 65.2266 349.336 65.2266C349.602 65.2266 349.834 65.1758 350.033 65.0742C350.232 64.9727 350.398 64.8145 350.531 64.5996C350.668 64.3809 350.77 64.1016 350.836 63.7617C350.902 63.418 350.936 63.0078 350.936 62.5312ZM358.775 61.0547V62.3555C358.775 63.0547 358.713 63.6445 358.588 64.125C358.463 64.6055 358.283 64.9922 358.049 65.2852C357.814 65.5781 357.531 65.791 357.199 65.9238C356.871 66.0527 356.5 66.1172 356.086 66.1172C355.758 66.1172 355.455 66.0762 355.178 65.9941C354.9 65.9121 354.65 65.7812 354.428 65.6016C354.209 65.418 354.021 65.1797 353.865 64.8867C353.709 64.5938 353.59 64.2383 353.508 63.8203C353.426 63.4023 353.385 62.9141 353.385 62.3555V61.0547C353.385 60.3555 353.447 59.7695 353.572 59.2969C353.701 58.8242 353.883 58.4453 354.117 58.1602C354.352 57.8711 354.633 57.6641 354.961 57.5391C355.293 57.4141 355.664 57.3516 356.074 57.3516C356.406 57.3516 356.711 57.3926 356.988 57.4746C357.27 57.5527 357.52 57.6797 357.738 57.8555C357.957 58.0273 358.143 58.2578 358.295 58.5469C358.451 58.832 358.57 59.1816 358.652 59.5957C358.734 60.0098 358.775 60.4961 358.775 61.0547ZM357.686 62.5312V60.873C357.686 60.4902 357.662 60.1543 357.615 59.8652C357.572 59.5723 357.508 59.3223 357.422 59.1152C357.336 58.9082 357.227 58.7402 357.094 58.6113C356.965 58.4824 356.814 58.3887 356.643 58.3301C356.475 58.2676 356.285 58.2363 356.074 58.2363C355.816 58.2363 355.588 58.2852 355.389 58.3828C355.189 58.4766 355.021 58.627 354.885 58.834C354.752 59.041 354.65 59.3125 354.58 59.6484C354.51 59.9844 354.475 60.3926 354.475 60.873V62.5312C354.475 62.9141 354.496 63.252 354.539 63.5449C354.586 63.8379 354.654 64.0918 354.744 64.3066C354.834 64.5176 354.943 64.6914 355.072 64.8281C355.201 64.9648 355.35 65.0664 355.518 65.1328C355.689 65.1953 355.879 65.2266 356.086 65.2266C356.352 65.2266 356.584 65.1758 356.783 65.0742C356.982 64.9727 357.148 64.8145 357.281 64.5996C357.418 64.3809 357.52 64.1016 357.586 63.7617C357.652 63.418 357.686 63.0078 357.686 62.5312ZM365.525 61.0547V62.3555C365.525 63.0547 365.463 63.6445 365.338 64.125C365.213 64.6055 365.033 64.9922 364.799 65.2852C364.564 65.5781 364.281 65.791 363.949 65.9238C363.621 66.0527 363.25 66.1172 362.836 66.1172C362.508 66.1172 362.205 66.0762 361.928 65.9941C361.65 65.9121 361.4 65.7812 361.178 65.6016C360.959 65.418 360.771 65.1797 360.615 64.8867C360.459 64.5938 360.34 64.2383 360.258 63.8203C360.176 63.4023 360.135 62.9141 360.135 62.3555V61.0547C360.135 60.3555 360.197 59.7695 360.322 59.2969C360.451 58.8242 360.633 58.4453 360.867 58.1602C361.102 57.8711 361.383 57.6641 361.711 57.5391C362.043 57.4141 362.414 57.3516 362.824 57.3516C363.156 57.3516 363.461 57.3926 363.738 57.4746C364.02 57.5527 364.27 57.6797 364.488 57.8555C364.707 58.0273 364.893 58.2578 365.045 58.5469C365.201 58.832 365.32 59.1816 365.402 59.5957C365.484 60.0098 365.525 60.4961 365.525 61.0547ZM364.436 62.5312V60.873C364.436 60.4902 364.412 60.1543 364.365 59.8652C364.322 59.5723 364.258 59.3223 364.172 59.1152C364.086 58.9082 363.977 58.7402 363.844 58.6113C363.715 58.4824 363.564 58.3887 363.393 58.3301C363.225 58.2676 363.035 58.2363 362.824 58.2363C362.566 58.2363 362.338 58.2852 362.139 58.3828C361.939 58.4766 361.771 58.627 361.635 58.834C361.502 59.041 361.4 59.3125 361.33 59.6484C361.26 59.9844 361.225 60.3926 361.225 60.873V62.5312C361.225 62.9141 361.246 63.252 361.289 63.5449C361.336 63.8379 361.404 64.0918 361.494 64.3066C361.584 64.5176 361.693 64.6914 361.822 64.8281C361.951 64.9648 362.1 65.0664 362.268 65.1328C362.439 65.1953 362.629 65.2266 362.836 65.2266C363.102 65.2266 363.334 65.1758 363.533 65.0742C363.732 64.9727 363.898 64.8145 364.031 64.5996C364.168 64.3809 364.27 64.1016 364.336 63.7617C364.402 63.418 364.436 63.0078 364.436 62.5312Z" fill="black"/>
<path d="M22.9902 57.4688H25.8145C26.4551 57.4688 26.9961 57.5664 27.4375 57.7617C27.8828 57.957 28.2207 58.2461 28.4512 58.6289C28.6855 59.0078 28.8027 59.4746 28.8027 60.0293C28.8027 60.4199 28.7227 60.7773 28.5625 61.1016C28.4062 61.4219 28.1797 61.6953 27.8828 61.9219C27.5898 62.1445 27.2383 62.3105 26.8281 62.4199L26.5117 62.543H23.8574L23.8457 61.623H25.8496C26.2559 61.623 26.5938 61.5527 26.8633 61.4121C27.1328 61.2676 27.3359 61.0742 27.4727 60.832C27.6094 60.5898 27.6777 60.3223 27.6777 60.0293C27.6777 59.7012 27.6133 59.4141 27.4844 59.168C27.3555 58.9219 27.1523 58.7324 26.875 58.5996C26.6016 58.4629 26.248 58.3945 25.8145 58.3945H24.1211V66H22.9902V57.4688ZM27.9766 66L25.9023 62.1328L27.0801 62.127L29.1836 65.9297V66H27.9766ZM32.8516 66.1172C32.4102 66.1172 32.0098 66.043 31.6504 65.8945C31.2949 65.7422 30.9883 65.5293 30.7305 65.2559C30.4766 64.9824 30.2812 64.6582 30.1445 64.2832C30.0078 63.9082 29.9395 63.498 29.9395 63.0527V62.8066C29.9395 62.291 30.0156 61.832 30.168 61.4297C30.3203 61.0234 30.5273 60.6797 30.7891 60.3984C31.0508 60.1172 31.3477 59.9043 31.6797 59.7598C32.0117 59.6152 32.3555 59.543 32.7109 59.543C33.1641 59.543 33.5547 59.6211 33.8828 59.7773C34.2148 59.9336 34.4863 60.1523 34.6973 60.4336C34.9082 60.7109 35.0645 61.0391 35.166 61.418C35.2676 61.793 35.3184 62.2031 35.3184 62.6484V63.1348H30.584V62.25H34.2344V62.168C34.2188 61.8867 34.1602 61.6133 34.0586 61.3477C33.9609 61.082 33.8047 60.8633 33.5898 60.6914C33.375 60.5195 33.082 60.4336 32.7109 60.4336C32.4648 60.4336 32.2383 60.4863 32.0312 60.5918C31.8242 60.6934 31.6465 60.8457 31.498 61.0488C31.3496 61.252 31.2344 61.5 31.1523 61.793C31.0703 62.0859 31.0293 62.4238 31.0293 62.8066V63.0527C31.0293 63.3535 31.0703 63.6367 31.1523 63.9023C31.2383 64.1641 31.3613 64.3945 31.5215 64.5938C31.6855 64.793 31.8828 64.9492 32.1133 65.0625C32.3477 65.1758 32.6133 65.2324 32.9102 65.2324C33.293 65.2324 33.6172 65.1543 33.8828 64.998C34.1484 64.8418 34.3809 64.6328 34.5801 64.3711L35.2363 64.8926C35.0996 65.0996 34.9258 65.2969 34.7148 65.4844C34.5039 65.6719 34.2441 65.8242 33.9355 65.9414C33.6309 66.0586 33.2695 66.1172 32.8516 66.1172ZM40.2754 64.3184C40.2754 64.1621 40.2402 64.0176 40.1699 63.8848C40.1035 63.748 39.9648 63.625 39.7539 63.5156C39.5469 63.4023 39.2344 63.3047 38.8164 63.2227C38.4648 63.1484 38.1465 63.0605 37.8613 62.959C37.5801 62.8574 37.3398 62.7344 37.1406 62.5898C36.9453 62.4453 36.7949 62.2754 36.6895 62.0801C36.584 61.8848 36.5312 61.6562 36.5312 61.3945C36.5312 61.1445 36.5859 60.9082 36.6953 60.6855C36.8086 60.4629 36.9668 60.2656 37.1699 60.0938C37.377 59.9219 37.625 59.7871 37.9141 59.6895C38.2031 59.5918 38.5254 59.543 38.8809 59.543C39.3887 59.543 39.8223 59.6328 40.1816 59.8125C40.541 59.9922 40.8164 60.2324 41.0078 60.5332C41.1992 60.8301 41.2949 61.1602 41.2949 61.5234H40.2109C40.2109 61.3477 40.1582 61.1777 40.0527 61.0137C39.9512 60.8457 39.8008 60.707 39.6016 60.5977C39.4062 60.4883 39.166 60.4336 38.8809 60.4336C38.5801 60.4336 38.3359 60.4805 38.1484 60.5742C37.9648 60.6641 37.8301 60.7793 37.7441 60.9199C37.6621 61.0605 37.6211 61.209 37.6211 61.3652C37.6211 61.4824 37.6406 61.5879 37.6797 61.6816C37.7227 61.7715 37.7969 61.8555 37.9023 61.9336C38.0078 62.0078 38.1562 62.0781 38.3477 62.1445C38.5391 62.2109 38.7832 62.2773 39.0801 62.3438C39.5996 62.4609 40.0273 62.6016 40.3633 62.7656C40.6992 62.9297 40.9492 63.1309 41.1133 63.3691C41.2773 63.6074 41.3594 63.8965 41.3594 64.2363C41.3594 64.5137 41.3008 64.7676 41.1836 64.998C41.0703 65.2285 40.9043 65.4277 40.6855 65.5957C40.4707 65.7598 40.2129 65.8887 39.9121 65.9824C39.6152 66.0723 39.2812 66.1172 38.9102 66.1172C38.3516 66.1172 37.8789 66.0176 37.4922 65.8184C37.1055 65.6191 36.8125 65.3613 36.6133 65.0449C36.4141 64.7285 36.3145 64.3945 36.3145 64.043H37.4043C37.4199 64.3398 37.5059 64.5762 37.6621 64.752C37.8184 64.9238 38.0098 65.0469 38.2363 65.1211C38.4629 65.1914 38.6875 65.2266 38.9102 65.2266C39.207 65.2266 39.4551 65.1875 39.6543 65.1094C39.8574 65.0312 40.0117 64.9238 40.1172 64.7871C40.2227 64.6504 40.2754 64.4941 40.2754 64.3184ZM45.4141 66.1172C44.9727 66.1172 44.5723 66.043 44.2129 65.8945C43.8574 65.7422 43.5508 65.5293 43.293 65.2559C43.0391 64.9824 42.8438 64.6582 42.707 64.2832C42.5703 63.9082 42.502 63.498 42.502 63.0527V62.8066C42.502 62.291 42.5781 61.832 42.7305 61.4297C42.8828 61.0234 43.0898 60.6797 43.3516 60.3984C43.6133 60.1172 43.9102 59.9043 44.2422 59.7598C44.5742 59.6152 44.918 59.543 45.2734 59.543C45.7266 59.543 46.1172 59.6211 46.4453 59.7773C46.7773 59.9336 47.0488 60.1523 47.2598 60.4336C47.4707 60.7109 47.627 61.0391 47.7285 61.418C47.8301 61.793 47.8809 62.2031 47.8809 62.6484V63.1348H43.1465V62.25H46.7969V62.168C46.7812 61.8867 46.7227 61.6133 46.6211 61.3477C46.5234 61.082 46.3672 60.8633 46.1523 60.6914C45.9375 60.5195 45.6445 60.4336 45.2734 60.4336C45.0273 60.4336 44.8008 60.4863 44.5938 60.5918C44.3867 60.6934 44.209 60.8457 44.0605 61.0488C43.9121 61.252 43.7969 61.5 43.7148 61.793C43.6328 62.0859 43.5918 62.4238 43.5918 62.8066V63.0527C43.5918 63.3535 43.6328 63.6367 43.7148 63.9023C43.8008 64.1641 43.9238 64.3945 44.084 64.5938C44.248 64.793 44.4453 64.9492 44.6758 65.0625C44.9102 65.1758 45.1758 65.2324 45.4727 65.2324C45.8555 65.2324 46.1797 65.1543 46.4453 64.998C46.7109 64.8418 46.9434 64.6328 47.1426 64.3711L47.7988 64.8926C47.6621 65.0996 47.4883 65.2969 47.2773 65.4844C47.0664 65.6719 46.8066 65.8242 46.498 65.9414C46.1934 66.0586 45.832 66.1172 45.4141 66.1172ZM50.2305 60.6562V66H49.1465V59.6602H50.2012L50.2305 60.6562ZM52.2109 59.625L52.2051 60.6328C52.1152 60.6133 52.0293 60.6016 51.9473 60.5977C51.8691 60.5898 51.7793 60.5859 51.6777 60.5859C51.4277 60.5859 51.207 60.625 51.0156 60.7031C50.8242 60.7812 50.6621 60.8906 50.5293 61.0312C50.3965 61.1719 50.291 61.3398 50.2129 61.5352C50.1387 61.7266 50.0898 61.9375 50.0664 62.168L49.7617 62.3438C49.7617 61.9609 49.7988 61.6016 49.873 61.2656C49.9512 60.9297 50.0703 60.6328 50.2305 60.375C50.3906 60.1133 50.5938 59.9102 50.8398 59.7656C51.0898 59.6172 51.3867 59.543 51.7305 59.543C51.8086 59.543 51.8984 59.5527 52 59.5723C52.1016 59.5879 52.1719 59.6055 52.2109 59.625ZM55.2461 65.0215L56.9805 59.6602H58.0879L55.8086 66H55.082L55.2461 65.0215ZM53.7988 59.6602L55.5859 65.0508L55.709 66H54.9824L52.6855 59.6602H53.7988ZM61.6797 66.1172C61.2383 66.1172 60.8379 66.043 60.4785 65.8945C60.123 65.7422 59.8164 65.5293 59.5586 65.2559C59.3047 64.9824 59.1094 64.6582 58.9727 64.2832C58.8359 63.9082 58.7676 63.498 58.7676 63.0527V62.8066C58.7676 62.291 58.8438 61.832 58.9961 61.4297C59.1484 61.0234 59.3555 60.6797 59.6172 60.3984C59.8789 60.1172 60.1758 59.9043 60.5078 59.7598C60.8398 59.6152 61.1836 59.543 61.5391 59.543C61.9922 59.543 62.3828 59.6211 62.7109 59.7773C63.043 59.9336 63.3145 60.1523 63.5254 60.4336C63.7363 60.7109 63.8926 61.0391 63.9941 61.418C64.0957 61.793 64.1465 62.2031 64.1465 62.6484V63.1348H59.4121V62.25H63.0625V62.168C63.0469 61.8867 62.9883 61.6133 62.8867 61.3477C62.7891 61.082 62.6328 60.8633 62.418 60.6914C62.2031 60.5195 61.9102 60.4336 61.5391 60.4336C61.293 60.4336 61.0664 60.4863 60.8594 60.5918C60.6523 60.6934 60.4746 60.8457 60.3262 61.0488C60.1777 61.252 60.0625 61.5 59.9805 61.793C59.8984 62.0859 59.8574 62.4238 59.8574 62.8066V63.0527C59.8574 63.3535 59.8984 63.6367 59.9805 63.9023C60.0664 64.1641 60.1895 64.3945 60.3496 64.5938C60.5137 64.793 60.7109 64.9492 60.9414 65.0625C61.1758 65.1758 61.4414 65.2324 61.7383 65.2324C62.1211 65.2324 62.4453 65.1543 62.7109 64.998C62.9766 64.8418 63.209 64.6328 63.4082 64.3711L64.0645 64.8926C63.9277 65.0996 63.7539 65.2969 63.543 65.4844C63.332 65.6719 63.0723 65.8242 62.7637 65.9414C62.459 66.0586 62.0977 66.1172 61.6797 66.1172ZM69.1035 64.3184C69.1035 64.1621 69.0684 64.0176 68.998 63.8848C68.9316 63.748 68.793 63.625 68.582 63.5156C68.375 63.4023 68.0625 63.3047 67.6445 63.2227C67.293 63.1484 66.9746 63.0605 66.6895 62.959C66.4082 62.8574 66.168 62.7344 65.9688 62.5898C65.7734 62.4453 65.623 62.2754 65.5176 62.0801C65.4121 61.8848 65.3594 61.6562 65.3594 61.3945C65.3594 61.1445 65.4141 60.9082 65.5234 60.6855C65.6367 60.4629 65.7949 60.2656 65.998 60.0938C66.2051 59.9219 66.4531 59.7871 66.7422 59.6895C67.0312 59.5918 67.3535 59.543 67.709 59.543C68.2168 59.543 68.6504 59.6328 69.0098 59.8125C69.3691 59.9922 69.6445 60.2324 69.8359 60.5332C70.0273 60.8301 70.123 61.1602 70.123 61.5234H69.0391C69.0391 61.3477 68.9863 61.1777 68.8809 61.0137C68.7793 60.8457 68.6289 60.707 68.4297 60.5977C68.2344 60.4883 67.9941 60.4336 67.709 60.4336C67.4082 60.4336 67.1641 60.4805 66.9766 60.5742C66.793 60.6641 66.6582 60.7793 66.5723 60.9199C66.4902 61.0605 66.4492 61.209 66.4492 61.3652C66.4492 61.4824 66.4688 61.5879 66.5078 61.6816C66.5508 61.7715 66.625 61.8555 66.7305 61.9336C66.8359 62.0078 66.9844 62.0781 67.1758 62.1445C67.3672 62.2109 67.6113 62.2773 67.9082 62.3438C68.4277 62.4609 68.8555 62.6016 69.1914 62.7656C69.5273 62.9297 69.7773 63.1309 69.9414 63.3691C70.1055 63.6074 70.1875 63.8965 70.1875 64.2363C70.1875 64.5137 70.1289 64.7676 70.0117 64.998C69.8984 65.2285 69.7324 65.4277 69.5137 65.5957C69.2988 65.7598 69.041 65.8887 68.7402 65.9824C68.4434 66.0723 68.1094 66.1172 67.7383 66.1172C67.1797 66.1172 66.707 66.0176 66.3203 65.8184C65.9336 65.6191 65.6406 65.3613 65.4414 65.0449C65.2422 64.7285 65.1426 64.3945 65.1426 64.043H66.2324C66.248 64.3398 66.334 64.5762 66.4902 64.752C66.6465 64.9238 66.8379 65.0469 67.0645 65.1211C67.291 65.1914 67.5156 65.2266 67.7383 65.2266C68.0352 65.2266 68.2832 65.1875 68.4824 65.1094C68.6855 65.0312 68.8398 64.9238 68.9453 64.7871C69.0508 64.6504 69.1035 64.4941 69.1035 64.3184ZM140.219 56.0859V57.873H139.34V56.0859H140.219ZM140.113 65.6543V67.2188H139.24V65.6543H140.113ZM141.285 63.8027C141.285 63.5684 141.232 63.3574 141.127 63.1699C141.021 62.9824 140.848 62.8105 140.605 62.6543C140.363 62.498 140.039 62.3535 139.633 62.2207C139.141 62.0684 138.715 61.8828 138.355 61.6641C138 61.4453 137.725 61.1738 137.529 60.8496C137.338 60.5254 137.242 60.1328 137.242 59.6719C137.242 59.1914 137.346 58.7773 137.553 58.4297C137.76 58.082 138.053 57.8145 138.432 57.627C138.811 57.4395 139.256 57.3457 139.768 57.3457C140.166 57.3457 140.521 57.4062 140.834 57.5273C141.146 57.6445 141.41 57.8203 141.625 58.0547C141.844 58.2891 142.01 58.5762 142.123 58.916C142.24 59.2559 142.299 59.6484 142.299 60.0938H141.221C141.221 59.832 141.189 59.5918 141.127 59.373C141.064 59.1543 140.971 58.9648 140.846 58.8047C140.721 58.6406 140.568 58.5156 140.389 58.4297C140.209 58.3398 140.002 58.2949 139.768 58.2949C139.439 58.2949 139.168 58.3516 138.953 58.4648C138.742 58.5781 138.586 58.7383 138.484 58.9453C138.383 59.1484 138.332 59.3848 138.332 59.6543C138.332 59.9043 138.383 60.123 138.484 60.3105C138.586 60.498 138.758 60.668 139 60.8203C139.246 60.9688 139.584 61.1152 140.014 61.2598C140.518 61.4199 140.945 61.6094 141.297 61.8281C141.648 62.043 141.916 62.3086 142.1 62.625C142.283 62.9375 142.375 63.3262 142.375 63.791C142.375 64.2949 142.262 64.7207 142.035 65.0684C141.809 65.4121 141.49 65.6738 141.08 65.8535C140.67 66.0332 140.189 66.123 139.639 66.123C139.307 66.123 138.979 66.0781 138.654 65.9883C138.33 65.8984 138.037 65.752 137.775 65.5488C137.514 65.3418 137.305 65.0703 137.148 64.7344C136.992 64.3945 136.914 63.9785 136.914 63.4863H138.004C138.004 63.8184 138.051 64.0938 138.145 64.3125C138.242 64.5273 138.371 64.6992 138.531 64.8281C138.691 64.9531 138.867 65.043 139.059 65.0977C139.254 65.1484 139.447 65.1738 139.639 65.1738C139.99 65.1738 140.287 65.1191 140.529 65.0098C140.775 64.8965 140.963 64.7363 141.092 64.5293C141.221 64.3223 141.285 64.0801 141.285 63.8027ZM148.287 61.2012H149.061C149.439 61.2012 149.752 61.1387 149.998 61.0137C150.248 60.8848 150.434 60.7109 150.555 60.4922C150.68 60.2695 150.742 60.0195 150.742 59.7422C150.742 59.4141 150.688 59.1387 150.578 58.916C150.469 58.6934 150.305 58.5254 150.086 58.4121C149.867 58.2988 149.59 58.2422 149.254 58.2422C148.949 58.2422 148.68 58.3027 148.445 58.4238C148.215 58.541 148.033 58.709 147.9 58.9277C147.771 59.1465 147.707 59.4043 147.707 59.7012H146.623C146.623 59.2676 146.732 58.873 146.951 58.5176C147.17 58.1621 147.477 57.8789 147.871 57.668C148.27 57.457 148.73 57.3516 149.254 57.3516C149.77 57.3516 150.221 57.4434 150.607 57.627C150.994 57.8066 151.295 58.0762 151.51 58.4355C151.725 58.791 151.832 59.2344 151.832 59.7656C151.832 59.9805 151.781 60.2109 151.68 60.457C151.582 60.6992 151.428 60.9258 151.217 61.1367C151.01 61.3477 150.74 61.5215 150.408 61.6582C150.076 61.791 149.678 61.8574 149.213 61.8574H148.287V61.2012ZM148.287 62.0918V61.4414H149.213C149.756 61.4414 150.205 61.5059 150.561 61.6348C150.916 61.7637 151.195 61.9355 151.398 62.1504C151.605 62.3652 151.75 62.6016 151.832 62.8594C151.918 63.1133 151.961 63.3672 151.961 63.6211C151.961 64.0195 151.893 64.373 151.756 64.6816C151.623 64.9902 151.434 65.252 151.188 65.4668C150.945 65.6816 150.66 65.8438 150.332 65.9531C150.004 66.0625 149.646 66.1172 149.26 66.1172C148.889 66.1172 148.539 66.0645 148.211 65.959C147.887 65.8535 147.6 65.7012 147.35 65.502C147.1 65.2988 146.904 65.0508 146.764 64.7578C146.623 64.4609 146.553 64.123 146.553 63.7441H147.637C147.637 64.041 147.701 64.3008 147.83 64.5234C147.963 64.7461 148.15 64.9199 148.393 65.0449C148.639 65.166 148.928 65.2266 149.26 65.2266C149.592 65.2266 149.877 65.1699 150.115 65.0566C150.357 64.9395 150.543 64.7637 150.672 64.5293C150.805 64.2949 150.871 64 150.871 63.6445C150.871 63.2891 150.797 62.998 150.648 62.7715C150.5 62.541 150.289 62.3711 150.016 62.2617C149.746 62.1484 149.428 62.0918 149.061 62.0918H148.287ZM158.811 61.0547V62.3555C158.811 63.0547 158.748 63.6445 158.623 64.125C158.498 64.6055 158.318 64.9922 158.084 65.2852C157.85 65.5781 157.566 65.791 157.234 65.9238C156.906 66.0527 156.535 66.1172 156.121 66.1172C155.793 66.1172 155.49 66.0762 155.213 65.9941C154.936 65.9121 154.686 65.7812 154.463 65.6016C154.244 65.418 154.057 65.1797 153.9 64.8867C153.744 64.5938 153.625 64.2383 153.543 63.8203C153.461 63.4023 153.42 62.9141 153.42 62.3555V61.0547C153.42 60.3555 153.482 59.7695 153.607 59.2969C153.736 58.8242 153.918 58.4453 154.152 58.1602C154.387 57.8711 154.668 57.6641 154.996 57.5391C155.328 57.4141 155.699 57.3516 156.109 57.3516C156.441 57.3516 156.746 57.3926 157.023 57.4746C157.305 57.5527 157.555 57.6797 157.773 57.8555C157.992 58.0273 158.178 58.2578 158.33 58.5469C158.486 58.832 158.605 59.1816 158.688 59.5957C158.77 60.0098 158.811 60.4961 158.811 61.0547ZM157.721 62.5312V60.873C157.721 60.4902 157.697 60.1543 157.65 59.8652C157.607 59.5723 157.543 59.3223 157.457 59.1152C157.371 58.9082 157.262 58.7402 157.129 58.6113C157 58.4824 156.85 58.3887 156.678 58.3301C156.51 58.2676 156.32 58.2363 156.109 58.2363C155.852 58.2363 155.623 58.2852 155.424 58.3828C155.225 58.4766 155.057 58.627 154.92 58.834C154.787 59.041 154.686 59.3125 154.615 59.6484C154.545 59.9844 154.51 60.3926 154.51 60.873V62.5312C154.51 62.9141 154.531 63.252 154.574 63.5449C154.621 63.8379 154.689 64.0918 154.779 64.3066C154.869 64.5176 154.979 64.6914 155.107 64.8281C155.236 64.9648 155.385 65.0664 155.553 65.1328C155.725 65.1953 155.914 65.2266 156.121 65.2266C156.387 65.2266 156.619 65.1758 156.818 65.0742C157.018 64.9727 157.184 64.8145 157.316 64.5996C157.453 64.3809 157.555 64.1016 157.621 63.7617C157.688 63.418 157.721 63.0078 157.721 62.5312ZM161.307 64.7109V65.584C161.307 65.9395 161.217 66.3145 161.037 66.709C160.857 67.1074 160.605 67.4395 160.281 67.7051L159.666 67.2773C159.791 67.1055 159.896 66.9297 159.982 66.75C160.068 66.5742 160.133 66.3906 160.176 66.1992C160.223 66.0117 160.246 65.8125 160.246 65.6016V64.7109H161.307ZM167.928 61.0547V62.3555C167.928 63.0547 167.865 63.6445 167.74 64.125C167.615 64.6055 167.436 64.9922 167.201 65.2852C166.967 65.5781 166.684 65.791 166.352 65.9238C166.023 66.0527 165.652 66.1172 165.238 66.1172C164.91 66.1172 164.607 66.0762 164.33 65.9941C164.053 65.9121 163.803 65.7812 163.58 65.6016C163.361 65.418 163.174 65.1797 163.018 64.8867C162.861 64.5938 162.742 64.2383 162.66 63.8203C162.578 63.4023 162.537 62.9141 162.537 62.3555V61.0547C162.537 60.3555 162.6 59.7695 162.725 59.2969C162.854 58.8242 163.035 58.4453 163.27 58.1602C163.504 57.8711 163.785 57.6641 164.113 57.5391C164.445 57.4141 164.816 57.3516 165.227 57.3516C165.559 57.3516 165.863 57.3926 166.141 57.4746C166.422 57.5527 166.672 57.6797 166.891 57.8555C167.109 58.0273 167.295 58.2578 167.447 58.5469C167.604 58.832 167.723 59.1816 167.805 59.5957C167.887 60.0098 167.928 60.4961 167.928 61.0547ZM166.838 62.5312V60.873C166.838 60.4902 166.814 60.1543 166.768 59.8652C166.725 59.5723 166.66 59.3223 166.574 59.1152C166.488 58.9082 166.379 58.7402 166.246 58.6113C166.117 58.4824 165.967 58.3887 165.795 58.3301C165.627 58.2676 165.438 58.2363 165.227 58.2363C164.969 58.2363 164.74 58.2852 164.541 58.3828C164.342 58.4766 164.174 58.627 164.037 58.834C163.904 59.041 163.803 59.3125 163.732 59.6484C163.662 59.9844 163.627 60.3926 163.627 60.873V62.5312C163.627 62.9141 163.648 63.252 163.691 63.5449C163.738 63.8379 163.807 64.0918 163.896 64.3066C163.986 64.5176 164.096 64.6914 164.225 64.8281C164.354 64.9648 164.502 65.0664 164.67 65.1328C164.842 65.1953 165.031 65.2266 165.238 65.2266C165.504 65.2266 165.736 65.1758 165.936 65.0742C166.135 64.9727 166.301 64.8145 166.434 64.5996C166.57 64.3809 166.672 64.1016 166.738 63.7617C166.805 63.418 166.838 63.0078 166.838 62.5312ZM174.678 61.0547V62.3555C174.678 63.0547 174.615 63.6445 174.49 64.125C174.365 64.6055 174.186 64.9922 173.951 65.2852C173.717 65.5781 173.434 65.791 173.102 65.9238C172.773 66.0527 172.402 66.1172 171.988 66.1172C171.66 66.1172 171.357 66.0762 171.08 65.9941C170.803 65.9121 170.553 65.7812 170.33 65.6016C170.111 65.418 169.924 65.1797 169.768 64.8867C169.611 64.5938 169.492 64.2383 169.41 63.8203C169.328 63.4023 169.287 62.9141 169.287 62.3555V61.0547C169.287 60.3555 169.35 59.7695 169.475 59.2969C169.604 58.8242 169.785 58.4453 170.02 58.1602C170.254 57.8711 170.535 57.6641 170.863 57.5391C171.195 57.4141 171.566 57.3516 171.977 57.3516C172.309 57.3516 172.613 57.3926 172.891 57.4746C173.172 57.5527 173.422 57.6797 173.641 57.8555C173.859 58.0273 174.045 58.2578 174.197 58.5469C174.354 58.832 174.473 59.1816 174.555 59.5957C174.637 60.0098 174.678 60.4961 174.678 61.0547ZM173.588 62.5312V60.873C173.588 60.4902 173.564 60.1543 173.518 59.8652C173.475 59.5723 173.41 59.3223 173.324 59.1152C173.238 58.9082 173.129 58.7402 172.996 58.6113C172.867 58.4824 172.717 58.3887 172.545 58.3301C172.377 58.2676 172.188 58.2363 171.977 58.2363C171.719 58.2363 171.49 58.2852 171.291 58.3828C171.092 58.4766 170.924 58.627 170.787 58.834C170.654 59.041 170.553 59.3125 170.482 59.6484C170.412 59.9844 170.377 60.3926 170.377 60.873V62.5312C170.377 62.9141 170.398 63.252 170.441 63.5449C170.488 63.8379 170.557 64.0918 170.646 64.3066C170.736 64.5176 170.846 64.6914 170.975 64.8281C171.104 64.9648 171.252 65.0664 171.42 65.1328C171.592 65.1953 171.781 65.2266 171.988 65.2266C172.254 65.2266 172.486 65.1758 172.686 65.0742C172.885 64.9727 173.051 64.8145 173.184 64.5996C173.32 64.3809 173.422 64.1016 173.488 63.7617C173.555 63.418 173.588 63.0078 173.588 62.5312ZM181.428 61.0547V62.3555C181.428 63.0547 181.365 63.6445 181.24 64.125C181.115 64.6055 180.936 64.9922 180.701 65.2852C180.467 65.5781 180.184 65.791 179.852 65.9238C179.523 66.0527 179.152 66.1172 178.738 66.1172C178.41 66.1172 178.107 66.0762 177.83 65.9941C177.553 65.9121 177.303 65.7812 177.08 65.6016C176.861 65.418 176.674 65.1797 176.518 64.8867C176.361 64.5938 176.242 64.2383 176.16 63.8203C176.078 63.4023 176.037 62.9141 176.037 62.3555V61.0547C176.037 60.3555 176.1 59.7695 176.225 59.2969C176.354 58.8242 176.535 58.4453 176.77 58.1602C177.004 57.8711 177.285 57.6641 177.613 57.5391C177.945 57.4141 178.316 57.3516 178.727 57.3516C179.059 57.3516 179.363 57.3926 179.641 57.4746C179.922 57.5527 180.172 57.6797 180.391 57.8555C180.609 58.0273 180.795 58.2578 180.947 58.5469C181.104 58.832 181.223 59.1816 181.305 59.5957C181.387 60.0098 181.428 60.4961 181.428 61.0547ZM180.338 62.5312V60.873C180.338 60.4902 180.314 60.1543 180.268 59.8652C180.225 59.5723 180.16 59.3223 180.074 59.1152C179.988 58.9082 179.879 58.7402 179.746 58.6113C179.617 58.4824 179.467 58.3887 179.295 58.3301C179.127 58.2676 178.938 58.2363 178.727 58.2363C178.469 58.2363 178.24 58.2852 178.041 58.3828C177.842 58.4766 177.674 58.627 177.537 58.834C177.404 59.041 177.303 59.3125 177.232 59.6484C177.162 59.9844 177.127 60.3926 177.127 60.873V62.5312C177.127 62.9141 177.148 63.252 177.191 63.5449C177.238 63.8379 177.307 64.0918 177.396 64.3066C177.486 64.5176 177.596 64.6914 177.725 64.8281C177.854 64.9648 178.002 65.0664 178.17 65.1328C178.342 65.1953 178.531 65.2266 178.738 65.2266C179.004 65.2266 179.236 65.1758 179.436 65.0742C179.635 64.9727 179.801 64.8145 179.934 64.5996C180.07 64.3809 180.172 64.1016 180.238 63.7617C180.305 63.418 180.338 63.0078 180.338 62.5312Z" fill="black"/>
<path d="M28.1641 97.0801V98H23.8984V97.0801H28.1641ZM24.1211 89.4688V98H22.9902V89.4688H24.1211ZM29.0078 94.9004V94.7656C29.0078 94.3086 29.0742 93.8848 29.207 93.4941C29.3398 93.0996 29.5312 92.7578 29.7812 92.4688C30.0312 92.1758 30.334 91.9492 30.6895 91.7891C31.0449 91.625 31.4434 91.543 31.8848 91.543C32.3301 91.543 32.7305 91.625 33.0859 91.7891C33.4453 91.9492 33.75 92.1758 34 92.4688C34.2539 92.7578 34.4473 93.0996 34.5801 93.4941C34.7129 93.8848 34.7793 94.3086 34.7793 94.7656V94.9004C34.7793 95.3574 34.7129 95.7812 34.5801 96.1719C34.4473 96.5625 34.2539 96.9043 34 97.1973C33.75 97.4863 33.4473 97.7129 33.0918 97.877C32.7402 98.0371 32.3418 98.1172 31.8965 98.1172C31.4512 98.1172 31.0508 98.0371 30.6953 97.877C30.3398 97.7129 30.0352 97.4863 29.7812 97.1973C29.5312 96.9043 29.3398 96.5625 29.207 96.1719C29.0742 95.7812 29.0078 95.3574 29.0078 94.9004ZM30.0918 94.7656V94.9004C30.0918 95.2168 30.1289 95.5156 30.2031 95.7969C30.2773 96.0742 30.3887 96.3203 30.5371 96.5352C30.6895 96.75 30.8789 96.9199 31.1055 97.0449C31.332 97.166 31.5957 97.2266 31.8965 97.2266C32.1934 97.2266 32.4531 97.166 32.6758 97.0449C32.9023 96.9199 33.0898 96.75 33.2383 96.5352C33.3867 96.3203 33.498 96.0742 33.5723 95.7969C33.6504 95.5156 33.6895 95.2168 33.6895 94.9004V94.7656C33.6895 94.4531 33.6504 94.1582 33.5723 93.8809C33.498 93.5996 33.3848 93.3516 33.2324 93.1367C33.084 92.918 32.8965 92.7461 32.6699 92.6211C32.4473 92.4961 32.1855 92.4336 31.8848 92.4336C31.5879 92.4336 31.3262 92.4961 31.0996 92.6211C30.877 92.7461 30.6895 92.918 30.5371 93.1367C30.3887 93.3516 30.2773 93.5996 30.2031 93.8809C30.1289 94.1582 30.0918 94.4531 30.0918 94.7656ZM39.877 96.916V93.6523C39.877 93.4023 39.8262 93.1855 39.7246 93.002C39.627 92.8145 39.4785 92.6699 39.2793 92.5684C39.0801 92.4668 38.834 92.416 38.541 92.416C38.2676 92.416 38.0273 92.4629 37.8203 92.5566C37.6172 92.6504 37.457 92.7734 37.3398 92.9258C37.2266 93.0781 37.1699 93.2422 37.1699 93.418H36.0859C36.0859 93.1914 36.1445 92.9668 36.2617 92.7441C36.3789 92.5215 36.5469 92.3203 36.7656 92.1406C36.9883 91.957 37.2539 91.8125 37.5625 91.707C37.875 91.5977 38.2227 91.543 38.6055 91.543C39.0664 91.543 39.4727 91.6211 39.8242 91.7773C40.1797 91.9336 40.457 92.1699 40.6562 92.4863C40.8594 92.7988 40.9609 93.1914 40.9609 93.6641V96.6172C40.9609 96.8281 40.9785 97.0527 41.0137 97.291C41.0527 97.5293 41.1094 97.7344 41.1836 97.9062V98H40.0527C39.998 97.875 39.9551 97.709 39.9238 97.502C39.8926 97.291 39.877 97.0957 39.877 96.916ZM40.0645 94.1562L40.0762 94.918H38.9805C38.6719 94.918 38.3965 94.9434 38.1543 94.9941C37.9121 95.041 37.709 95.1133 37.5449 95.2109C37.3809 95.3086 37.2559 95.4316 37.1699 95.5801C37.084 95.7246 37.041 95.8945 37.041 96.0898C37.041 96.2891 37.0859 96.4707 37.1758 96.6348C37.2656 96.7988 37.4004 96.9297 37.5801 97.0273C37.7637 97.1211 37.9883 97.168 38.2539 97.168C38.5859 97.168 38.8789 97.0977 39.1328 96.957C39.3867 96.8164 39.5879 96.6445 39.7363 96.4414C39.8887 96.2383 39.9707 96.041 39.9824 95.8496L40.4453 96.3711C40.418 96.5352 40.3438 96.7168 40.2227 96.916C40.1016 97.1152 39.9395 97.3066 39.7363 97.4902C39.5371 97.6699 39.2988 97.8203 39.0215 97.9414C38.748 98.0586 38.4395 98.1172 38.0957 98.1172C37.666 98.1172 37.2891 98.0332 36.9648 97.8652C36.6445 97.6973 36.3945 97.4727 36.2148 97.1914C36.0391 96.9062 35.9512 96.5879 35.9512 96.2363C35.9512 95.8965 36.0176 95.5977 36.1504 95.3398C36.2832 95.0781 36.4746 94.8613 36.7246 94.6895C36.9746 94.5137 37.2754 94.3809 37.627 94.291C37.9785 94.2012 38.3711 94.1562 38.8047 94.1562H40.0645ZM43.75 93.0137V98H42.666V91.6602H43.6914L43.75 93.0137ZM43.4922 94.5898L43.041 94.5723C43.0449 94.1387 43.1094 93.7383 43.2344 93.3711C43.3594 93 43.5352 92.6777 43.7617 92.4043C43.9883 92.1309 44.2578 91.9199 44.5703 91.7715C44.8867 91.6191 45.2363 91.543 45.6191 91.543C45.9316 91.543 46.2129 91.5859 46.4629 91.6719C46.7129 91.7539 46.9258 91.8867 47.1016 92.0703C47.2812 92.2539 47.418 92.4922 47.5117 92.7852C47.6055 93.0742 47.6523 93.4277 47.6523 93.8457V98H46.5625V93.834C46.5625 93.502 46.5137 93.2363 46.416 93.0371C46.3184 92.834 46.1758 92.6875 45.9883 92.5977C45.8008 92.5039 45.5703 92.457 45.2969 92.457C45.0273 92.457 44.7812 92.5137 44.5586 92.627C44.3398 92.7402 44.1504 92.8965 43.9902 93.0957C43.834 93.2949 43.7109 93.5234 43.6211 93.7812C43.5352 94.0352 43.4922 94.3047 43.4922 94.5898ZM52.9902 96.3184C52.9902 96.1621 52.9551 96.0176 52.8848 95.8848C52.8184 95.748 52.6797 95.625 52.4688 95.5156C52.2617 95.4023 51.9492 95.3047 51.5312 95.2227C51.1797 95.1484 50.8613 95.0605 50.5762 94.959C50.2949 94.8574 50.0547 94.7344 49.8555 94.5898C49.6602 94.4453 49.5098 94.2754 49.4043 94.0801C49.2988 93.8848 49.2461 93.6562 49.2461 93.3945C49.2461 93.1445 49.3008 92.9082 49.4102 92.6855C49.5234 92.4629 49.6816 92.2656 49.8848 92.0938C50.0918 91.9219 50.3398 91.7871 50.6289 91.6895C50.918 91.5918 51.2402 91.543 51.5957 91.543C52.1035 91.543 52.5371 91.6328 52.8965 91.8125C53.2559 91.9922 53.5312 92.2324 53.7227 92.5332C53.9141 92.8301 54.0098 93.1602 54.0098 93.5234H52.9258C52.9258 93.3477 52.873 93.1777 52.7676 93.0137C52.666 92.8457 52.5156 92.707 52.3164 92.5977C52.1211 92.4883 51.8809 92.4336 51.5957 92.4336C51.2949 92.4336 51.0508 92.4805 50.8633 92.5742C50.6797 92.6641 50.5449 92.7793 50.459 92.9199C50.377 93.0605 50.3359 93.209 50.3359 93.3652C50.3359 93.4824 50.3555 93.5879 50.3945 93.6816C50.4375 93.7715 50.5117 93.8555 50.6172 93.9336C50.7227 94.0078 50.8711 94.0781 51.0625 94.1445C51.2539 94.2109 51.498 94.2773 51.7949 94.3438C52.3145 94.4609 52.7422 94.6016 53.0781 94.7656C53.4141 94.9297 53.6641 95.1309 53.8281 95.3691C53.9922 95.6074 54.0742 95.8965 54.0742 96.2363C54.0742 96.5137 54.0156 96.7676 53.8984 96.998C53.7852 97.2285 53.6191 97.4277 53.4004 97.5957C53.1855 97.7598 52.9277 97.8887 52.627 97.9824C52.3301 98.0723 51.9961 98.1172 51.625 98.1172C51.0664 98.1172 50.5938 98.0176 50.207 97.8184C49.8203 97.6191 49.5273 97.3613 49.3281 97.0449C49.1289 96.7285 49.0293 96.3945 49.0293 96.043H50.1191C50.1348 96.3398 50.2207 96.5762 50.377 96.752C50.5332 96.9238 50.7246 97.0469 50.9512 97.1211C51.1777 97.1914 51.4023 97.2266 51.625 97.2266C51.9219 97.2266 52.1699 97.1875 52.3691 97.1094C52.5723 97.0312 52.7266 96.9238 52.832 96.7871C52.9375 96.6504 52.9902 96.4941 52.9902 96.3184ZM138.988 88.0859V89.873H138.109V88.0859H138.988ZM138.883 97.6543V99.2188H138.01V97.6543H138.883ZM140.055 95.8027C140.055 95.5684 140.002 95.3574 139.896 95.1699C139.791 94.9824 139.617 94.8105 139.375 94.6543C139.133 94.498 138.809 94.3535 138.402 94.2207C137.91 94.0684 137.484 93.8828 137.125 93.6641C136.77 93.4453 136.494 93.1738 136.299 92.8496C136.107 92.5254 136.012 92.1328 136.012 91.6719C136.012 91.1914 136.115 90.7773 136.322 90.4297C136.529 90.082 136.822 89.8145 137.201 89.627C137.58 89.4395 138.025 89.3457 138.537 89.3457C138.936 89.3457 139.291 89.4062 139.604 89.5273C139.916 89.6445 140.18 89.8203 140.395 90.0547C140.613 90.2891 140.779 90.5762 140.893 90.916C141.01 91.2559 141.068 91.6484 141.068 92.0938H139.99C139.99 91.832 139.959 91.5918 139.896 91.373C139.834 91.1543 139.74 90.9648 139.615 90.8047C139.49 90.6406 139.338 90.5156 139.158 90.4297C138.979 90.3398 138.771 90.2949 138.537 90.2949C138.209 90.2949 137.938 90.3516 137.723 90.4648C137.512 90.5781 137.355 90.7383 137.254 90.9453C137.152 91.1484 137.102 91.3848 137.102 91.6543C137.102 91.9043 137.152 92.123 137.254 92.3105C137.355 92.498 137.527 92.668 137.77 92.8203C138.016 92.9688 138.354 93.1152 138.783 93.2598C139.287 93.4199 139.715 93.6094 140.066 93.8281C140.418 94.043 140.686 94.3086 140.869 94.625C141.053 94.9375 141.145 95.3262 141.145 95.791C141.145 96.2949 141.031 96.7207 140.805 97.0684C140.578 97.4121 140.26 97.6738 139.85 97.8535C139.439 98.0332 138.959 98.123 138.408 98.123C138.076 98.123 137.748 98.0781 137.424 97.9883C137.1 97.8984 136.807 97.752 136.545 97.5488C136.283 97.3418 136.074 97.0703 135.918 96.7344C135.762 96.3945 135.684 95.9785 135.684 95.4863H136.773C136.773 95.8184 136.82 96.0938 136.914 96.3125C137.012 96.5273 137.141 96.6992 137.301 96.8281C137.461 96.9531 137.637 97.043 137.828 97.0977C138.023 97.1484 138.217 97.1738 138.408 97.1738C138.76 97.1738 139.057 97.1191 139.299 97.0098C139.545 96.8965 139.732 96.7363 139.861 96.5293C139.99 96.3223 140.055 96.0801 140.055 95.8027ZM150.988 89.4688V90.0781L147.455 98H146.312L149.84 90.3594H145.223V89.4688H150.988ZM157.58 93.0547V94.3555C157.58 95.0547 157.518 95.6445 157.393 96.125C157.268 96.6055 157.088 96.9922 156.854 97.2852C156.619 97.5781 156.336 97.791 156.004 97.9238C155.676 98.0527 155.305 98.1172 154.891 98.1172C154.562 98.1172 154.26 98.0762 153.982 97.9941C153.705 97.9121 153.455 97.7812 153.232 97.6016C153.014 97.418 152.826 97.1797 152.67 96.8867C152.514 96.5938 152.395 96.2383 152.312 95.8203C152.23 95.4023 152.189 94.9141 152.189 94.3555V93.0547C152.189 92.3555 152.252 91.7695 152.377 91.2969C152.506 90.8242 152.688 90.4453 152.922 90.1602C153.156 89.8711 153.438 89.6641 153.766 89.5391C154.098 89.4141 154.469 89.3516 154.879 89.3516C155.211 89.3516 155.516 89.3926 155.793 89.4746C156.074 89.5527 156.324 89.6797 156.543 89.8555C156.762 90.0273 156.947 90.2578 157.1 90.5469C157.256 90.832 157.375 91.1816 157.457 91.5957C157.539 92.0098 157.58 92.4961 157.58 93.0547ZM156.49 94.5312V92.873C156.49 92.4902 156.467 92.1543 156.42 91.8652C156.377 91.5723 156.312 91.3223 156.227 91.1152C156.141 90.9082 156.031 90.7402 155.898 90.6113C155.77 90.4824 155.619 90.3887 155.447 90.3301C155.279 90.2676 155.09 90.2363 154.879 90.2363C154.621 90.2363 154.393 90.2852 154.193 90.3828C153.994 90.4766 153.826 90.627 153.689 90.834C153.557 91.041 153.455 91.3125 153.385 91.6484C153.314 91.9844 153.279 92.3926 153.279 92.873V94.5312C153.279 94.9141 153.301 95.252 153.344 95.5449C153.391 95.8379 153.459 96.0918 153.549 96.3066C153.639 96.5176 153.748 96.6914 153.877 96.8281C154.006 96.9648 154.154 97.0664 154.322 97.1328C154.494 97.1953 154.684 97.2266 154.891 97.2266C155.156 97.2266 155.389 97.1758 155.588 97.0742C155.787 96.9727 155.953 96.8145 156.086 96.5996C156.223 96.3809 156.324 96.1016 156.391 95.7617C156.457 95.418 156.49 95.0078 156.49 94.5312ZM160.076 96.7109V97.584C160.076 97.9395 159.986 98.3145 159.807 98.709C159.627 99.1074 159.375 99.4395 159.051 99.7051L158.436 99.2773C158.561 99.1055 158.666 98.9297 158.752 98.75C158.838 98.5742 158.902 98.3906 158.945 98.1992C158.992 98.0117 159.016 97.8125 159.016 97.6016V96.7109H160.076ZM166.697 93.0547V94.3555C166.697 95.0547 166.635 95.6445 166.51 96.125C166.385 96.6055 166.205 96.9922 165.971 97.2852C165.736 97.5781 165.453 97.791 165.121 97.9238C164.793 98.0527 164.422 98.1172 164.008 98.1172C163.68 98.1172 163.377 98.0762 163.1 97.9941C162.822 97.9121 162.572 97.7812 162.35 97.6016C162.131 97.418 161.943 97.1797 161.787 96.8867C161.631 96.5938 161.512 96.2383 161.43 95.8203C161.348 95.4023 161.307 94.9141 161.307 94.3555V93.0547C161.307 92.3555 161.369 91.7695 161.494 91.2969C161.623 90.8242 161.805 90.4453 162.039 90.1602C162.273 89.8711 162.555 89.6641 162.883 89.5391C163.215 89.4141 163.586 89.3516 163.996 89.3516C164.328 89.3516 164.633 89.3926 164.91 89.4746C165.191 89.5527 165.441 89.6797 165.66 89.8555C165.879 90.0273 166.064 90.2578 166.217 90.5469C166.373 90.832 166.492 91.1816 166.574 91.5957C166.656 92.0098 166.697 92.4961 166.697 93.0547ZM165.607 94.5312V92.873C165.607 92.4902 165.584 92.1543 165.537 91.8652C165.494 91.5723 165.43 91.3223 165.344 91.1152C165.258 90.9082 165.148 90.7402 165.016 90.6113C164.887 90.4824 164.736 90.3887 164.564 90.3301C164.396 90.2676 164.207 90.2363 163.996 90.2363C163.738 90.2363 163.51 90.2852 163.311 90.3828C163.111 90.4766 162.943 90.627 162.807 90.834C162.674 91.041 162.572 91.3125 162.502 91.6484C162.432 91.9844 162.396 92.3926 162.396 92.873V94.5312C162.396 94.9141 162.418 95.252 162.461 95.5449C162.508 95.8379 162.576 96.0918 162.666 96.3066C162.756 96.5176 162.865 96.6914 162.994 96.8281C163.123 96.9648 163.271 97.0664 163.439 97.1328C163.611 97.1953 163.801 97.2266 164.008 97.2266C164.273 97.2266 164.506 97.1758 164.705 97.0742C164.904 96.9727 165.07 96.8145 165.203 96.5996C165.34 96.3809 165.441 96.1016 165.508 95.7617C165.574 95.418 165.607 95.0078 165.607 94.5312ZM173.447 93.0547V94.3555C173.447 95.0547 173.385 95.6445 173.26 96.125C173.135 96.6055 172.955 96.9922 172.721 97.2852C172.486 97.5781 172.203 97.791 171.871 97.9238C171.543 98.0527 171.172 98.1172 170.758 98.1172C170.43 98.1172 170.127 98.0762 169.85 97.9941C169.572 97.9121 169.322 97.7812 169.1 97.6016C168.881 97.418 168.693 97.1797 168.537 96.8867C168.381 96.5938 168.262 96.2383 168.18 95.8203C168.098 95.4023 168.057 94.9141 168.057 94.3555V93.0547C168.057 92.3555 168.119 91.7695 168.244 91.2969C168.373 90.8242 168.555 90.4453 168.789 90.1602C169.023 89.8711 169.305 89.6641 169.633 89.5391C169.965 89.4141 170.336 89.3516 170.746 89.3516C171.078 89.3516 171.383 89.3926 171.66 89.4746C171.941 89.5527 172.191 89.6797 172.41 89.8555C172.629 90.0273 172.814 90.2578 172.967 90.5469C173.123 90.832 173.242 91.1816 173.324 91.5957C173.406 92.0098 173.447 92.4961 173.447 93.0547ZM172.357 94.5312V92.873C172.357 92.4902 172.334 92.1543 172.287 91.8652C172.244 91.5723 172.18 91.3223 172.094 91.1152C172.008 90.9082 171.898 90.7402 171.766 90.6113C171.637 90.4824 171.486 90.3887 171.314 90.3301C171.146 90.2676 170.957 90.2363 170.746 90.2363C170.488 90.2363 170.26 90.2852 170.061 90.3828C169.861 90.4766 169.693 90.627 169.557 90.834C169.424 91.041 169.322 91.3125 169.252 91.6484C169.182 91.9844 169.146 92.3926 169.146 92.873V94.5312C169.146 94.9141 169.168 95.252 169.211 95.5449C169.258 95.8379 169.326 96.0918 169.416 96.3066C169.506 96.5176 169.615 96.6914 169.744 96.8281C169.873 96.9648 170.021 97.0664 170.189 97.1328C170.361 97.1953 170.551 97.2266 170.758 97.2266C171.023 97.2266 171.256 97.1758 171.455 97.0742C171.654 96.9727 171.82 96.8145 171.953 96.5996C172.09 96.3809 172.191 96.1016 172.258 95.7617C172.324 95.418 172.357 95.0078 172.357 94.5312ZM180.197 93.0547V94.3555C180.197 95.0547 180.135 95.6445 180.01 96.125C179.885 96.6055 179.705 96.9922 179.471 97.2852C179.236 97.5781 178.953 97.791 178.621 97.9238C178.293 98.0527 177.922 98.1172 177.508 98.1172C177.18 98.1172 176.877 98.0762 176.6 97.9941C176.322 97.9121 176.072 97.7812 175.85 97.6016C175.631 97.418 175.443 97.1797 175.287 96.8867C175.131 96.5938 175.012 96.2383 174.93 95.8203C174.848 95.4023 174.807 94.9141 174.807 94.3555V93.0547C174.807 92.3555 174.869 91.7695 174.994 91.2969C175.123 90.8242 175.305 90.4453 175.539 90.1602C175.773 89.8711 176.055 89.6641 176.383 89.5391C176.715 89.4141 177.086 89.3516 177.496 89.3516C177.828 89.3516 178.133 89.3926 178.41 89.4746C178.691 89.5527 178.941 89.6797 179.16 89.8555C179.379 90.0273 179.564 90.2578 179.717 90.5469C179.873 90.832 179.992 91.1816 180.074 91.5957C180.156 92.0098 180.197 92.4961 180.197 93.0547ZM179.107 94.5312V92.873C179.107 92.4902 179.084 92.1543 179.037 91.8652C178.994 91.5723 178.93 91.3223 178.844 91.1152C178.758 90.9082 178.648 90.7402 178.516 90.6113C178.387 90.4824 178.236 90.3887 178.064 90.3301C177.896 90.2676 177.707 90.2363 177.496 90.2363C177.238 90.2363 177.01 90.2852 176.811 90.3828C176.611 90.4766 176.443 90.627 176.307 90.834C176.174 91.041 176.072 91.3125 176.002 91.6484C175.932 91.9844 175.896 92.3926 175.896 92.873V94.5312C175.896 94.9141 175.918 95.252 175.961 95.5449C176.008 95.8379 176.076 96.0918 176.166 96.3066C176.256 96.5176 176.365 96.6914 176.494 96.8281C176.623 96.9648 176.771 97.0664 176.939 97.1328C177.111 97.1953 177.301 97.2266 177.508 97.2266C177.773 97.2266 178.006 97.1758 178.205 97.0742C178.404 96.9727 178.57 96.8145 178.703 96.5996C178.84 96.3809 178.941 96.1016 179.008 95.7617C179.074 95.418 179.107 95.0078 179.107 94.5312Z" fill="black"/>
<path d="M29.4102 130.08V131H24.8926V130.08H29.4102ZM25.1211 122.469V131H23.9902V122.469H25.1211ZM28.8125 126.137V127.057H24.8926V126.137H28.8125ZM29.3516 122.469V123.395H24.8926V122.469H29.3516ZM34.5195 133.438V125.879L34.6133 124.66H35.6094V133.438H34.5195ZM30.2598 127.9V127.777C30.2598 127.293 30.3164 126.854 30.4297 126.459C30.543 126.061 30.709 125.719 30.9277 125.434C31.1465 125.148 31.4102 124.93 31.7188 124.777C32.0312 124.621 32.3867 124.543 32.7852 124.543C33.1836 124.543 33.5332 124.613 33.834 124.754C34.1387 124.891 34.3965 125.092 34.6074 125.357C34.8223 125.619 34.9922 125.936 35.1172 126.307C35.2422 126.678 35.3281 127.098 35.375 127.566V128.105C35.332 128.57 35.248 128.988 35.123 129.359C34.998 129.73 34.8281 130.047 34.6133 130.309C34.4023 130.57 34.1426 130.771 33.834 130.912C33.5293 131.049 33.1758 131.117 32.7734 131.117C32.3828 131.117 32.0312 131.037 31.7188 130.877C31.4102 130.717 31.1465 130.492 30.9277 130.203C30.7129 129.914 30.5469 129.574 30.4297 129.184C30.3164 128.789 30.2598 128.361 30.2598 127.9ZM31.3496 127.777V127.9C31.3496 128.217 31.3828 128.516 31.4492 128.797C31.5156 129.074 31.6172 129.32 31.7539 129.535C31.8945 129.75 32.0703 129.92 32.2812 130.045C32.4961 130.166 32.75 130.227 33.043 130.227C33.4023 130.227 33.7012 130.148 33.9395 129.992C34.1816 129.836 34.375 129.631 34.5195 129.377C34.6641 129.119 34.7754 128.844 34.8535 128.551V127.139C34.8105 126.924 34.7422 126.715 34.6484 126.512C34.5586 126.309 34.4414 126.127 34.2969 125.967C34.1523 125.803 33.9766 125.674 33.7695 125.58C33.5664 125.482 33.3281 125.434 33.0547 125.434C32.7578 125.434 32.502 125.496 32.2871 125.621C32.0723 125.746 31.8945 125.918 31.7539 126.137C31.6172 126.352 31.5156 126.6 31.4492 126.881C31.3828 127.162 31.3496 127.461 31.3496 127.777ZM41.2285 129.535V124.66H42.3184V131H41.2812L41.2285 129.535ZM41.4336 128.199L41.8848 128.188C41.8848 128.609 41.8398 129 41.75 129.359C41.6641 129.715 41.5234 130.023 41.3281 130.285C41.1328 130.547 40.877 130.752 40.5605 130.9C40.2441 131.045 39.8594 131.117 39.4062 131.117C39.0977 131.117 38.8145 131.072 38.5566 130.982C38.3027 130.893 38.084 130.754 37.9004 130.566C37.7168 130.379 37.5742 130.135 37.4727 129.834C37.375 129.533 37.3262 129.172 37.3262 128.75V124.66H38.4102V128.762C38.4102 129.047 38.4414 129.283 38.5039 129.471C38.5703 129.654 38.6582 129.801 38.7676 129.91C38.8809 130.016 39.0059 130.09 39.1426 130.133C39.2832 130.176 39.4277 130.197 39.5762 130.197C40.0371 130.197 40.4023 130.109 40.6719 129.934C40.9414 129.754 41.1348 129.514 41.252 129.213C41.373 128.908 41.4336 128.57 41.4336 128.199ZM45.1484 124.66V131H44.0586V124.66H45.1484ZM43.9766 122.979C43.9766 122.803 44.0293 122.654 44.1348 122.533C44.2441 122.412 44.4043 122.352 44.6152 122.352C44.8223 122.352 44.9805 122.412 45.0898 122.533C45.2031 122.654 45.2598 122.803 45.2598 122.979C45.2598 123.146 45.2031 123.291 45.0898 123.412C44.9805 123.529 44.8223 123.588 44.6152 123.588C44.4043 123.588 44.2441 123.529 44.1348 123.412C44.0293 123.291 43.9766 123.146 43.9766 122.979ZM49.543 124.66V125.492H46.1152V124.66H49.543ZM47.2754 123.119H48.3594V129.43C48.3594 129.645 48.3926 129.807 48.459 129.916C48.5254 130.025 48.6113 130.098 48.7168 130.133C48.8223 130.168 48.9355 130.186 49.0566 130.186C49.1465 130.186 49.2402 130.178 49.3379 130.162C49.4395 130.143 49.5156 130.127 49.5664 130.115L49.5723 131C49.4863 131.027 49.373 131.053 49.2324 131.076C49.0957 131.104 48.9297 131.117 48.7344 131.117C48.4688 131.117 48.2246 131.064 48.002 130.959C47.7793 130.854 47.6016 130.678 47.4688 130.432C47.3398 130.182 47.2754 129.846 47.2754 129.424V123.119ZM52.5957 130.344L54.3594 124.66H55.5195L52.9766 131.979C52.918 132.135 52.8398 132.303 52.7422 132.482C52.6484 132.666 52.5273 132.84 52.3789 133.004C52.2305 133.168 52.0508 133.301 51.8398 133.402C51.6328 133.508 51.3848 133.561 51.0957 133.561C51.0098 133.561 50.9004 133.549 50.7676 133.525C50.6348 133.502 50.541 133.482 50.4863 133.467L50.4805 132.588C50.5117 132.592 50.5605 132.596 50.627 132.6C50.6973 132.607 50.7461 132.611 50.7734 132.611C51.0195 132.611 51.2285 132.578 51.4004 132.512C51.5723 132.449 51.7168 132.342 51.834 132.189C51.9551 132.041 52.0586 131.836 52.1445 131.574L52.5957 130.344ZM51.3008 124.66L52.9473 129.582L53.2285 130.725L52.4492 131.123L50.1172 124.66H51.3008ZM139.988 121.086V122.873H139.109V121.086H139.988ZM139.883 130.654V132.219H139.01V130.654H139.883ZM141.055 128.803C141.055 128.568 141.002 128.357 140.896 128.17C140.791 127.982 140.617 127.811 140.375 127.654C140.133 127.498 139.809 127.354 139.402 127.221C138.91 127.068 138.484 126.883 138.125 126.664C137.77 126.445 137.494 126.174 137.299 125.85C137.107 125.525 137.012 125.133 137.012 124.672C137.012 124.191 137.115 123.777 137.322 123.43C137.529 123.082 137.822 122.814 138.201 122.627C138.58 122.439 139.025 122.346 139.537 122.346C139.936 122.346 140.291 122.406 140.604 122.527C140.916 122.645 141.18 122.82 141.395 123.055C141.613 123.289 141.779 123.576 141.893 123.916C142.01 124.256 142.068 124.648 142.068 125.094H140.99C140.99 124.832 140.959 124.592 140.896 124.373C140.834 124.154 140.74 123.965 140.615 123.805C140.49 123.641 140.338 123.516 140.158 123.43C139.979 123.34 139.771 123.295 139.537 123.295C139.209 123.295 138.938 123.352 138.723 123.465C138.512 123.578 138.355 123.738 138.254 123.945C138.152 124.148 138.102 124.385 138.102 124.654C138.102 124.904 138.152 125.123 138.254 125.311C138.355 125.498 138.527 125.668 138.77 125.82C139.016 125.969 139.354 126.115 139.783 126.26C140.287 126.42 140.715 126.609 141.066 126.828C141.418 127.043 141.686 127.309 141.869 127.625C142.053 127.938 142.145 128.326 142.145 128.791C142.145 129.295 142.031 129.721 141.805 130.068C141.578 130.412 141.26 130.674 140.85 130.854C140.439 131.033 139.959 131.123 139.408 131.123C139.076 131.123 138.748 131.078 138.424 130.988C138.1 130.898 137.807 130.752 137.545 130.549C137.283 130.342 137.074 130.07 136.918 129.734C136.762 129.395 136.684 128.979 136.684 128.486H137.773C137.773 128.818 137.82 129.094 137.914 129.312C138.012 129.527 138.141 129.699 138.301 129.828C138.461 129.953 138.637 130.043 138.828 130.098C139.023 130.148 139.217 130.174 139.408 130.174C139.76 130.174 140.057 130.119 140.299 130.01C140.545 129.896 140.732 129.736 140.861 129.529C140.99 129.322 141.055 129.08 141.055 128.803ZM152.064 130.109V131H146.48V130.221L149.275 127.109C149.619 126.727 149.885 126.402 150.072 126.137C150.264 125.867 150.396 125.627 150.471 125.416C150.549 125.201 150.588 124.982 150.588 124.76C150.588 124.479 150.529 124.225 150.412 123.998C150.299 123.768 150.131 123.584 149.908 123.447C149.686 123.311 149.416 123.242 149.1 123.242C148.721 123.242 148.404 123.316 148.15 123.465C147.9 123.609 147.713 123.812 147.588 124.074C147.463 124.336 147.4 124.637 147.4 124.977H146.316C146.316 124.496 146.422 124.057 146.633 123.658C146.844 123.26 147.156 122.943 147.57 122.709C147.984 122.471 148.494 122.352 149.1 122.352C149.639 122.352 150.1 122.447 150.482 122.639C150.865 122.826 151.158 123.092 151.361 123.436C151.568 123.775 151.672 124.174 151.672 124.631C151.672 124.881 151.629 125.135 151.543 125.393C151.461 125.646 151.346 125.9 151.197 126.154C151.053 126.408 150.883 126.658 150.688 126.904C150.496 127.15 150.291 127.393 150.072 127.631L147.787 130.109H152.064ZM158.58 126.055V127.355C158.58 128.055 158.518 128.645 158.393 129.125C158.268 129.605 158.088 129.992 157.854 130.285C157.619 130.578 157.336 130.791 157.004 130.924C156.676 131.053 156.305 131.117 155.891 131.117C155.562 131.117 155.26 131.076 154.982 130.994C154.705 130.912 154.455 130.781 154.232 130.602C154.014 130.418 153.826 130.18 153.67 129.887C153.514 129.594 153.395 129.238 153.312 128.82C153.23 128.402 153.189 127.914 153.189 127.355V126.055C153.189 125.355 153.252 124.77 153.377 124.297C153.506 123.824 153.688 123.445 153.922 123.16C154.156 122.871 154.438 122.664 154.766 122.539C155.098 122.414 155.469 122.352 155.879 122.352C156.211 122.352 156.516 122.393 156.793 122.475C157.074 122.553 157.324 122.68 157.543 122.855C157.762 123.027 157.947 123.258 158.1 123.547C158.256 123.832 158.375 124.182 158.457 124.596C158.539 125.01 158.58 125.496 158.58 126.055ZM157.49 127.531V125.873C157.49 125.49 157.467 125.154 157.42 124.865C157.377 124.572 157.312 124.322 157.227 124.115C157.141 123.908 157.031 123.74 156.898 123.611C156.77 123.482 156.619 123.389 156.447 123.33C156.279 123.268 156.09 123.236 155.879 123.236C155.621 123.236 155.393 123.285 155.193 123.383C154.994 123.477 154.826 123.627 154.689 123.834C154.557 124.041 154.455 124.312 154.385 124.648C154.314 124.984 154.279 125.393 154.279 125.873V127.531C154.279 127.914 154.301 128.252 154.344 128.545C154.391 128.838 154.459 129.092 154.549 129.307C154.639 129.518 154.748 129.691 154.877 129.828C155.006 129.965 155.154 130.066 155.322 130.133C155.494 130.195 155.684 130.227 155.891 130.227C156.156 130.227 156.389 130.176 156.588 130.074C156.787 129.973 156.953 129.814 157.086 129.6C157.223 129.381 157.324 129.102 157.391 128.762C157.457 128.418 157.49 128.008 157.49 127.531ZM161.076 129.711V130.584C161.076 130.939 160.986 131.314 160.807 131.709C160.627 132.107 160.375 132.439 160.051 132.705L159.436 132.277C159.561 132.105 159.666 131.93 159.752 131.75C159.838 131.574 159.902 131.391 159.945 131.199C159.992 131.012 160.016 130.812 160.016 130.602V129.711H161.076ZM167.697 126.055V127.355C167.697 128.055 167.635 128.645 167.51 129.125C167.385 129.605 167.205 129.992 166.971 130.285C166.736 130.578 166.453 130.791 166.121 130.924C165.793 131.053 165.422 131.117 165.008 131.117C164.68 131.117 164.377 131.076 164.1 130.994C163.822 130.912 163.572 130.781 163.35 130.602C163.131 130.418 162.943 130.18 162.787 129.887C162.631 129.594 162.512 129.238 162.43 128.82C162.348 128.402 162.307 127.914 162.307 127.355V126.055C162.307 125.355 162.369 124.77 162.494 124.297C162.623 123.824 162.805 123.445 163.039 123.16C163.273 122.871 163.555 122.664 163.883 122.539C164.215 122.414 164.586 122.352 164.996 122.352C165.328 122.352 165.633 122.393 165.91 122.475C166.191 122.553 166.441 122.68 166.66 122.855C166.879 123.027 167.064 123.258 167.217 123.547C167.373 123.832 167.492 124.182 167.574 124.596C167.656 125.01 167.697 125.496 167.697 126.055ZM166.607 127.531V125.873C166.607 125.49 166.584 125.154 166.537 124.865C166.494 124.572 166.43 124.322 166.344 124.115C166.258 123.908 166.148 123.74 166.016 123.611C165.887 123.482 165.736 123.389 165.564 123.33C165.396 123.268 165.207 123.236 164.996 123.236C164.738 123.236 164.51 123.285 164.311 123.383C164.111 123.477 163.943 123.627 163.807 123.834C163.674 124.041 163.572 124.312 163.502 124.648C163.432 124.984 163.396 125.393 163.396 125.873V127.531C163.396 127.914 163.418 128.252 163.461 128.545C163.508 128.838 163.576 129.092 163.666 129.307C163.756 129.518 163.865 129.691 163.994 129.828C164.123 129.965 164.271 130.066 164.439 130.133C164.611 130.195 164.801 130.227 165.008 130.227C165.273 130.227 165.506 130.176 165.705 130.074C165.904 129.973 166.07 129.814 166.203 129.6C166.34 129.381 166.441 129.102 166.508 128.762C166.574 128.418 166.607 128.008 166.607 127.531ZM174.447 126.055V127.355C174.447 128.055 174.385 128.645 174.26 129.125C174.135 129.605 173.955 129.992 173.721 130.285C173.486 130.578 173.203 130.791 172.871 130.924C172.543 131.053 172.172 131.117 171.758 131.117C171.43 131.117 171.127 131.076 170.85 130.994C170.572 130.912 170.322 130.781 170.1 130.602C169.881 130.418 169.693 130.18 169.537 129.887C169.381 129.594 169.262 129.238 169.18 128.82C169.098 128.402 169.057 127.914 169.057 127.355V126.055C169.057 125.355 169.119 124.77 169.244 124.297C169.373 123.824 169.555 123.445 169.789 123.16C170.023 122.871 170.305 122.664 170.633 122.539C170.965 122.414 171.336 122.352 171.746 122.352C172.078 122.352 172.383 122.393 172.66 122.475C172.941 122.553 173.191 122.68 173.41 122.855C173.629 123.027 173.814 123.258 173.967 123.547C174.123 123.832 174.242 124.182 174.324 124.596C174.406 125.01 174.447 125.496 174.447 126.055ZM173.357 127.531V125.873C173.357 125.49 173.334 125.154 173.287 124.865C173.244 124.572 173.18 124.322 173.094 124.115C173.008 123.908 172.898 123.74 172.766 123.611C172.637 123.482 172.486 123.389 172.314 123.33C172.146 123.268 171.957 123.236 171.746 123.236C171.488 123.236 171.26 123.285 171.061 123.383C170.861 123.477 170.693 123.627 170.557 123.834C170.424 124.041 170.322 124.312 170.252 124.648C170.182 124.984 170.146 125.393 170.146 125.873V127.531C170.146 127.914 170.168 128.252 170.211 128.545C170.258 128.838 170.326 129.092 170.416 129.307C170.506 129.518 170.615 129.691 170.744 129.828C170.873 129.965 171.021 130.066 171.189 130.133C171.361 130.195 171.551 130.227 171.758 130.227C172.023 130.227 172.256 130.176 172.455 130.074C172.654 129.973 172.82 129.814 172.953 129.6C173.09 129.381 173.191 129.102 173.258 128.762C173.324 128.418 173.357 128.008 173.357 127.531ZM181.197 126.055V127.355C181.197 128.055 181.135 128.645 181.01 129.125C180.885 129.605 180.705 129.992 180.471 130.285C180.236 130.578 179.953 130.791 179.621 130.924C179.293 131.053 178.922 131.117 178.508 131.117C178.18 131.117 177.877 131.076 177.6 130.994C177.322 130.912 177.072 130.781 176.85 130.602C176.631 130.418 176.443 130.18 176.287 129.887C176.131 129.594 176.012 129.238 175.93 128.82C175.848 128.402 175.807 127.914 175.807 127.355V126.055C175.807 125.355 175.869 124.77 175.994 124.297C176.123 123.824 176.305 123.445 176.539 123.16C176.773 122.871 177.055 122.664 177.383 122.539C177.715 122.414 178.086 122.352 178.496 122.352C178.828 122.352 179.133 122.393 179.41 122.475C179.691 122.553 179.941 122.68 180.16 122.855C180.379 123.027 180.564 123.258 180.717 123.547C180.873 123.832 180.992 124.182 181.074 124.596C181.156 125.01 181.197 125.496 181.197 126.055ZM180.107 127.531V125.873C180.107 125.49 180.084 125.154 180.037 124.865C179.994 124.572 179.93 124.322 179.844 124.115C179.758 123.908 179.648 123.74 179.516 123.611C179.387 123.482 179.236 123.389 179.064 123.33C178.896 123.268 178.707 123.236 178.496 123.236C178.238 123.236 178.01 123.285 177.811 123.383C177.611 123.477 177.443 123.627 177.307 123.834C177.174 124.041 177.072 124.312 177.002 124.648C176.932 124.984 176.896 125.393 176.896 125.873V127.531C176.896 127.914 176.918 128.252 176.961 128.545C177.008 128.838 177.076 129.092 177.166 129.307C177.256 129.518 177.365 129.691 177.494 129.828C177.623 129.965 177.771 130.066 177.939 130.133C178.111 130.195 178.301 130.227 178.508 130.227C178.773 130.227 179.006 130.176 179.205 130.074C179.404 129.973 179.57 129.814 179.703 129.6C179.84 129.381 179.941 129.102 180.008 128.762C180.074 128.418 180.107 128.008 180.107 127.531Z" fill="black"/>
</svg>
