<svg width="325" height="271" viewBox="0 0 325 271" fill="none" xmlns="http://www.w3.org/2000/svg">
<rect width="283" height="257" fill="white"/>
<path d="M43.1367 184.654H40.8574V183.734H43.1367C43.5781 183.734 43.9355 183.664 44.209 183.523C44.4824 183.383 44.6816 183.188 44.8066 182.938C44.9355 182.688 45 182.402 45 182.082C45 181.789 44.9355 181.514 44.8066 181.256C44.6816 180.998 44.4824 180.791 44.209 180.635C43.9355 180.475 43.5781 180.395 43.1367 180.395H41.1211V188H39.9902V179.469H43.1367C43.7812 179.469 44.3262 179.58 44.7715 179.803C45.2168 180.025 45.5547 180.334 45.7852 180.729C46.0156 181.119 46.1309 181.566 46.1309 182.07C46.1309 182.617 46.0156 183.084 45.7852 183.471C45.5547 183.857 45.2168 184.152 44.7715 184.355C44.3262 184.555 43.7812 184.654 43.1367 184.654ZM50.8418 179.422V188H49.7578V180.775L47.5723 181.572V180.594L50.6719 179.422H50.8418Z" fill="black"/>
<line x1="62.3242" y1="26" x2="62.3242" y2="216" stroke="black"/>
<line y1="-0.5" x2="192.567" y2="-0.5" transform="matrix(0.999984 0.0055743 -0.00572597 0.999984 61.8242 216)" stroke="black"/>
<path d="M22.3799 33.6543H20.1006V32.7344H22.3799C22.8213 32.7344 23.1787 32.6641 23.4521 32.5234C23.7256 32.3828 23.9248 32.1875 24.0498 31.9375C24.1787 31.6875 24.2432 31.4023 24.2432 31.082C24.2432 30.7891 24.1787 30.5137 24.0498 30.2559C23.9248 29.998 23.7256 29.791 23.4521 29.6348C23.1787 29.4746 22.8213 29.3945 22.3799 29.3945H20.3643V37H19.2334V28.4688H22.3799C23.0244 28.4688 23.5693 28.5801 24.0146 28.8027C24.46 29.0254 24.7979 29.334 25.0283 29.7285C25.2588 30.1191 25.374 30.5664 25.374 31.0703C25.374 31.6172 25.2588 32.084 25.0283 32.4707C24.7979 32.8574 24.46 33.1523 24.0146 33.3555C23.5693 33.5547 23.0244 33.6543 22.3799 33.6543ZM27.7236 31.6562V37H26.6396V30.6602H27.6943L27.7236 31.6562ZM29.7041 30.625L29.6982 31.6328C29.6084 31.6133 29.5225 31.6016 29.4404 31.5977C29.3623 31.5898 29.2725 31.5859 29.1709 31.5859C28.9209 31.5859 28.7002 31.625 28.5088 31.7031C28.3174 31.7812 28.1553 31.8906 28.0225 32.0312C27.8896 32.1719 27.7842 32.3398 27.7061 32.5352C27.6318 32.7266 27.583 32.9375 27.5596 33.168L27.2549 33.3438C27.2549 32.9609 27.292 32.6016 27.3662 32.2656C27.4443 31.9297 27.5635 31.6328 27.7236 31.375C27.8838 31.1133 28.0869 30.9102 28.333 30.7656C28.583 30.6172 28.8799 30.543 29.2236 30.543C29.3018 30.543 29.3916 30.5527 29.4932 30.5723C29.5947 30.5879 29.665 30.6055 29.7041 30.625ZM31.8838 30.6602V37H30.7939V30.6602H31.8838ZM30.7119 28.9785C30.7119 28.8027 30.7646 28.6543 30.8701 28.5332C30.9795 28.4121 31.1396 28.3516 31.3506 28.3516C31.5576 28.3516 31.7158 28.4121 31.8252 28.5332C31.9385 28.6543 31.9951 28.8027 31.9951 28.9785C31.9951 29.1465 31.9385 29.291 31.8252 29.4121C31.7158 29.5293 31.5576 29.5879 31.3506 29.5879C31.1396 29.5879 30.9795 29.5293 30.8701 29.4121C30.7646 29.291 30.7119 29.1465 30.7119 28.9785ZM36.1611 36.2266C36.4189 36.2266 36.6572 36.1738 36.876 36.0684C37.0947 35.9629 37.2744 35.8184 37.415 35.6348C37.5557 35.4473 37.6357 35.2344 37.6553 34.9961H38.6865C38.667 35.3711 38.54 35.7207 38.3057 36.0449C38.0752 36.3652 37.7725 36.625 37.3975 36.8242C37.0225 37.0195 36.6104 37.1172 36.1611 37.1172C35.6846 37.1172 35.2686 37.0332 34.9131 36.8652C34.5615 36.6973 34.2686 36.4668 34.0342 36.1738C33.8037 35.8809 33.6299 35.5449 33.5127 35.166C33.3994 34.7832 33.3428 34.3789 33.3428 33.9531V33.707C33.3428 33.2812 33.3994 32.8789 33.5127 32.5C33.6299 32.1172 33.8037 31.7793 34.0342 31.4863C34.2686 31.1934 34.5615 30.9629 34.9131 30.7949C35.2686 30.627 35.6846 30.543 36.1611 30.543C36.6572 30.543 37.0908 30.6445 37.4619 30.8477C37.833 31.0469 38.124 31.3203 38.335 31.668C38.5498 32.0117 38.667 32.4023 38.6865 32.8398H37.6553C37.6357 32.5781 37.5615 32.3418 37.4326 32.1309C37.3076 31.9199 37.1357 31.752 36.917 31.627C36.7021 31.498 36.4502 31.4336 36.1611 31.4336C35.8291 31.4336 35.5498 31.5 35.3232 31.6328C35.1006 31.7617 34.9229 31.9375 34.79 32.1602C34.6611 32.3789 34.5674 32.623 34.5088 32.8926C34.4541 33.1582 34.4268 33.4297 34.4268 33.707V33.9531C34.4268 34.2305 34.4541 34.5039 34.5088 34.7734C34.5635 35.043 34.6553 35.2871 34.7842 35.5059C34.917 35.7246 35.0947 35.9004 35.3174 36.0332C35.5439 36.1621 35.8252 36.2266 36.1611 36.2266ZM42.5361 37.1172C42.0947 37.1172 41.6943 37.043 41.335 36.8945C40.9795 36.7422 40.6729 36.5293 40.415 36.2559C40.1611 35.9824 39.9658 35.6582 39.8291 35.2832C39.6924 34.9082 39.624 34.498 39.624 34.0527V33.8066C39.624 33.291 39.7002 32.832 39.8525 32.4297C40.0049 32.0234 40.2119 31.6797 40.4736 31.3984C40.7354 31.1172 41.0322 30.9043 41.3643 30.7598C41.6963 30.6152 42.04 30.543 42.3955 30.543C42.8486 30.543 43.2393 30.6211 43.5674 30.7773C43.8994 30.9336 44.1709 31.1523 44.3818 31.4336C44.5928 31.7109 44.749 32.0391 44.8506 32.418C44.9521 32.793 45.0029 33.2031 45.0029 33.6484V34.1348H40.2686V33.25H43.9189V33.168C43.9033 32.8867 43.8447 32.6133 43.7432 32.3477C43.6455 32.082 43.4893 31.8633 43.2744 31.6914C43.0596 31.5195 42.7666 31.4336 42.3955 31.4336C42.1494 31.4336 41.9229 31.4863 41.7158 31.5918C41.5088 31.6934 41.3311 31.8457 41.1826 32.0488C41.0342 32.252 40.9189 32.5 40.8369 32.793C40.7549 33.0859 40.7139 33.4238 40.7139 33.8066V34.0527C40.7139 34.3535 40.7549 34.6367 40.8369 34.9023C40.9229 35.1641 41.0459 35.3945 41.2061 35.5938C41.3701 35.793 41.5674 35.9492 41.7979 36.0625C42.0322 36.1758 42.2979 36.2324 42.5947 36.2324C42.9775 36.2324 43.3018 36.1543 43.5674 35.998C43.833 35.8418 44.0654 35.6328 44.2646 35.3711L44.9209 35.8926C44.7842 36.0996 44.6104 36.2969 44.3994 36.4844C44.1885 36.6719 43.9287 36.8242 43.6201 36.9414C43.3154 37.0586 42.9541 37.1172 42.5361 37.1172Z" fill="black"/>
<path d="M214.151 240.021L216.319 241.738L215.557 242.441L213.424 240.748L214.151 240.021ZM216.29 236.465V237.004C216.29 237.645 216.209 238.219 216.049 238.727C215.889 239.234 215.659 239.666 215.358 240.021C215.057 240.377 214.696 240.648 214.274 240.836C213.856 241.023 213.387 241.117 212.868 241.117C212.364 241.117 211.901 241.023 211.479 240.836C211.061 240.648 210.698 240.377 210.389 240.021C210.084 239.666 209.848 239.234 209.68 238.727C209.512 238.219 209.428 237.645 209.428 237.004V236.465C209.428 235.824 209.51 235.252 209.674 234.748C209.842 234.24 210.079 233.809 210.383 233.453C210.688 233.094 211.049 232.82 211.467 232.633C211.889 232.445 212.352 232.352 212.856 232.352C213.375 232.352 213.846 232.445 214.268 232.633C214.69 232.82 215.051 233.094 215.352 233.453C215.653 233.809 215.883 234.24 216.043 234.748C216.208 235.252 216.29 235.824 216.29 236.465ZM215.17 237.004V236.453C215.17 235.945 215.118 235.496 215.012 235.105C214.911 234.715 214.76 234.387 214.561 234.121C214.362 233.855 214.12 233.654 213.834 233.518C213.549 233.381 213.223 233.312 212.856 233.312C212.508 233.312 212.192 233.381 211.907 233.518C211.625 233.654 211.383 233.855 211.18 234.121C210.977 234.387 210.821 234.715 210.711 235.105C210.602 235.496 210.547 235.945 210.547 236.453V237.004C210.547 237.516 210.602 237.969 210.711 238.363C210.821 238.754 210.977 239.084 211.18 239.354C211.387 239.619 211.633 239.82 211.918 239.957C212.204 240.094 212.52 240.162 212.868 240.162C213.235 240.162 213.561 240.094 213.846 239.957C214.131 239.82 214.372 239.619 214.567 239.354C214.766 239.084 214.917 238.754 215.018 238.363C215.12 237.969 215.17 237.516 215.17 237.004ZM221.75 239.535V234.66H222.84V241H221.803L221.75 239.535ZM221.956 238.199L222.407 238.188C222.407 238.609 222.362 239 222.272 239.359C222.186 239.715 222.045 240.023 221.85 240.285C221.655 240.547 221.399 240.752 221.083 240.9C220.766 241.045 220.381 241.117 219.928 241.117C219.62 241.117 219.336 241.072 219.079 240.982C218.825 240.893 218.606 240.754 218.422 240.566C218.239 240.379 218.096 240.135 217.995 239.834C217.897 239.533 217.848 239.172 217.848 238.75V234.66H218.932V238.762C218.932 239.047 218.963 239.283 219.026 239.471C219.092 239.654 219.18 239.801 219.29 239.91C219.403 240.016 219.528 240.09 219.665 240.133C219.805 240.176 219.95 240.197 220.098 240.197C220.559 240.197 220.924 240.109 221.194 239.934C221.463 239.754 221.657 239.514 221.774 239.213C221.895 238.908 221.956 238.57 221.956 238.199ZM228.231 239.916V236.652C228.231 236.402 228.18 236.186 228.079 236.002C227.981 235.814 227.833 235.67 227.633 235.568C227.434 235.467 227.188 235.416 226.895 235.416C226.622 235.416 226.381 235.463 226.174 235.557C225.971 235.65 225.811 235.773 225.694 235.926C225.581 236.078 225.524 236.242 225.524 236.418H224.44C224.44 236.191 224.499 235.967 224.616 235.744C224.733 235.521 224.901 235.32 225.12 235.141C225.342 234.957 225.608 234.812 225.917 234.707C226.229 234.598 226.577 234.543 226.959 234.543C227.42 234.543 227.827 234.621 228.178 234.777C228.534 234.934 228.811 235.17 229.01 235.486C229.213 235.799 229.315 236.191 229.315 236.664V239.617C229.315 239.828 229.333 240.053 229.368 240.291C229.407 240.529 229.463 240.734 229.538 240.906V241H228.407C228.352 240.875 228.309 240.709 228.278 240.502C228.247 240.291 228.231 240.096 228.231 239.916ZM228.418 237.156L228.43 237.918H227.334C227.026 237.918 226.75 237.943 226.508 237.994C226.266 238.041 226.063 238.113 225.899 238.211C225.735 238.309 225.61 238.432 225.524 238.58C225.438 238.725 225.395 238.895 225.395 239.09C225.395 239.289 225.44 239.471 225.53 239.635C225.62 239.799 225.754 239.93 225.934 240.027C226.118 240.121 226.342 240.168 226.608 240.168C226.94 240.168 227.233 240.098 227.487 239.957C227.741 239.816 227.942 239.645 228.09 239.441C228.243 239.238 228.325 239.041 228.336 238.85L228.799 239.371C228.772 239.535 228.698 239.717 228.577 239.916C228.456 240.115 228.293 240.307 228.09 240.49C227.891 240.67 227.653 240.82 227.375 240.941C227.102 241.059 226.793 241.117 226.45 241.117C226.02 241.117 225.643 241.033 225.319 240.865C224.999 240.697 224.749 240.473 224.569 240.191C224.393 239.906 224.305 239.588 224.305 239.236C224.305 238.896 224.372 238.598 224.504 238.34C224.637 238.078 224.829 237.861 225.079 237.689C225.329 237.514 225.629 237.381 225.981 237.291C226.333 237.201 226.725 237.156 227.159 237.156H228.418ZM232.104 236.014V241H231.02V234.66H232.045L232.104 236.014ZM231.846 237.59L231.395 237.572C231.399 237.139 231.463 236.738 231.588 236.371C231.713 236 231.889 235.678 232.116 235.404C232.342 235.131 232.612 234.92 232.924 234.771C233.241 234.619 233.59 234.543 233.973 234.543C234.286 234.543 234.567 234.586 234.817 234.672C235.067 234.754 235.28 234.887 235.456 235.07C235.635 235.254 235.772 235.492 235.866 235.785C235.959 236.074 236.006 236.428 236.006 236.846V241H234.917V236.834C234.917 236.502 234.868 236.236 234.77 236.037C234.672 235.834 234.53 235.688 234.342 235.598C234.155 235.504 233.924 235.457 233.651 235.457C233.381 235.457 233.135 235.514 232.913 235.627C232.694 235.74 232.504 235.896 232.344 236.096C232.188 236.295 232.065 236.523 231.975 236.781C231.889 237.035 231.846 237.305 231.846 237.59ZM240.307 234.66V235.492H236.879V234.66H240.307ZM238.04 233.119H239.124V239.43C239.124 239.645 239.157 239.807 239.223 239.916C239.29 240.025 239.375 240.098 239.481 240.133C239.586 240.168 239.7 240.186 239.821 240.186C239.911 240.186 240.004 240.178 240.102 240.162C240.204 240.143 240.28 240.127 240.331 240.115L240.336 241C240.25 241.027 240.137 241.053 239.997 241.076C239.86 241.104 239.694 241.117 239.499 241.117C239.233 241.117 238.989 241.064 238.766 240.959C238.543 240.854 238.366 240.678 238.233 240.432C238.104 240.182 238.04 239.846 238.04 239.424V233.119ZM242.756 234.66V241H241.667V234.66H242.756ZM241.584 232.979C241.584 232.803 241.637 232.654 241.743 232.533C241.852 232.412 242.012 232.352 242.223 232.352C242.43 232.352 242.588 232.412 242.698 232.533C242.811 232.654 242.868 232.803 242.868 232.979C242.868 233.146 242.811 233.291 242.698 233.412C242.588 233.529 242.43 233.588 242.223 233.588C242.012 233.588 241.852 233.529 241.743 233.412C241.637 233.291 241.584 233.146 241.584 232.979ZM247.151 234.66V235.492H243.723V234.66H247.151ZM244.883 233.119H245.967V239.43C245.967 239.645 246 239.807 246.067 239.916C246.133 240.025 246.219 240.098 246.325 240.133C246.43 240.168 246.543 240.186 246.665 240.186C246.754 240.186 246.848 240.178 246.946 240.162C247.047 240.143 247.124 240.127 247.174 240.115L247.18 241C247.094 241.027 246.981 241.053 246.84 241.076C246.704 241.104 246.538 241.117 246.342 241.117C246.077 241.117 245.833 241.064 245.61 240.959C245.387 240.854 245.209 240.678 245.077 240.432C244.948 240.182 244.883 239.846 244.883 239.424V233.119ZM250.204 240.344L251.967 234.66H253.127L250.584 241.979C250.526 242.135 250.448 242.303 250.35 242.482C250.256 242.666 250.135 242.84 249.987 243.004C249.838 243.168 249.659 243.301 249.448 243.402C249.241 243.508 248.993 243.561 248.704 243.561C248.618 243.561 248.508 243.549 248.375 243.525C248.243 243.502 248.149 243.482 248.094 243.467L248.088 242.588C248.12 242.592 248.168 242.596 248.235 242.6C248.305 242.607 248.354 242.611 248.381 242.611C248.627 242.611 248.836 242.578 249.008 242.512C249.18 242.449 249.325 242.342 249.442 242.189C249.563 242.041 249.667 241.836 249.752 241.574L250.204 240.344ZM248.909 234.66L250.555 239.582L250.836 240.725L250.057 241.123L247.725 234.66H248.909Z" fill="black"/>
<rect width="325" height="271" fill="white"/>
<line x1="62.3242" y1="26" x2="62.3242" y2="216" stroke="black"/>
<line y1="-0.5" x2="192.567" y2="-0.5" transform="matrix(0.999984 0.0055743 -0.00572597 0.999984 61.8242 216)" stroke="black"/>
<path d="M22.3799 33.6543H20.1006V32.7344H22.3799C22.8213 32.7344 23.1787 32.6641 23.4521 32.5234C23.7256 32.3828 23.9248 32.1875 24.0498 31.9375C24.1787 31.6875 24.2432 31.4023 24.2432 31.082C24.2432 30.7891 24.1787 30.5137 24.0498 30.2559C23.9248 29.998 23.7256 29.791 23.4521 29.6348C23.1787 29.4746 22.8213 29.3945 22.3799 29.3945H20.3643V37H19.2334V28.4688H22.3799C23.0244 28.4688 23.5693 28.5801 24.0146 28.8027C24.46 29.0254 24.7979 29.334 25.0283 29.7285C25.2588 30.1191 25.374 30.5664 25.374 31.0703C25.374 31.6172 25.2588 32.084 25.0283 32.4707C24.7979 32.8574 24.46 33.1523 24.0146 33.3555C23.5693 33.5547 23.0244 33.6543 22.3799 33.6543ZM27.7236 31.6562V37H26.6396V30.6602H27.6943L27.7236 31.6562ZM29.7041 30.625L29.6982 31.6328C29.6084 31.6133 29.5225 31.6016 29.4404 31.5977C29.3623 31.5898 29.2725 31.5859 29.1709 31.5859C28.9209 31.5859 28.7002 31.625 28.5088 31.7031C28.3174 31.7812 28.1553 31.8906 28.0225 32.0312C27.8896 32.1719 27.7842 32.3398 27.7061 32.5352C27.6318 32.7266 27.583 32.9375 27.5596 33.168L27.2549 33.3438C27.2549 32.9609 27.292 32.6016 27.3662 32.2656C27.4443 31.9297 27.5635 31.6328 27.7236 31.375C27.8838 31.1133 28.0869 30.9102 28.333 30.7656C28.583 30.6172 28.8799 30.543 29.2236 30.543C29.3018 30.543 29.3916 30.5527 29.4932 30.5723C29.5947 30.5879 29.665 30.6055 29.7041 30.625ZM31.8838 30.6602V37H30.7939V30.6602H31.8838ZM30.7119 28.9785C30.7119 28.8027 30.7646 28.6543 30.8701 28.5332C30.9795 28.4121 31.1396 28.3516 31.3506 28.3516C31.5576 28.3516 31.7158 28.4121 31.8252 28.5332C31.9385 28.6543 31.9951 28.8027 31.9951 28.9785C31.9951 29.1465 31.9385 29.291 31.8252 29.4121C31.7158 29.5293 31.5576 29.5879 31.3506 29.5879C31.1396 29.5879 30.9795 29.5293 30.8701 29.4121C30.7646 29.291 30.7119 29.1465 30.7119 28.9785ZM36.1611 36.2266C36.4189 36.2266 36.6572 36.1738 36.876 36.0684C37.0947 35.9629 37.2744 35.8184 37.415 35.6348C37.5557 35.4473 37.6357 35.2344 37.6553 34.9961H38.6865C38.667 35.3711 38.54 35.7207 38.3057 36.0449C38.0752 36.3652 37.7725 36.625 37.3975 36.8242C37.0225 37.0195 36.6104 37.1172 36.1611 37.1172C35.6846 37.1172 35.2686 37.0332 34.9131 36.8652C34.5615 36.6973 34.2686 36.4668 34.0342 36.1738C33.8037 35.8809 33.6299 35.5449 33.5127 35.166C33.3994 34.7832 33.3428 34.3789 33.3428 33.9531V33.707C33.3428 33.2812 33.3994 32.8789 33.5127 32.5C33.6299 32.1172 33.8037 31.7793 34.0342 31.4863C34.2686 31.1934 34.5615 30.9629 34.9131 30.7949C35.2686 30.627 35.6846 30.543 36.1611 30.543C36.6572 30.543 37.0908 30.6445 37.4619 30.8477C37.833 31.0469 38.124 31.3203 38.335 31.668C38.5498 32.0117 38.667 32.4023 38.6865 32.8398H37.6553C37.6357 32.5781 37.5615 32.3418 37.4326 32.1309C37.3076 31.9199 37.1357 31.752 36.917 31.627C36.7021 31.498 36.4502 31.4336 36.1611 31.4336C35.8291 31.4336 35.5498 31.5 35.3232 31.6328C35.1006 31.7617 34.9229 31.9375 34.79 32.1602C34.6611 32.3789 34.5674 32.623 34.5088 32.8926C34.4541 33.1582 34.4268 33.4297 34.4268 33.707V33.9531C34.4268 34.2305 34.4541 34.5039 34.5088 34.7734C34.5635 35.043 34.6553 35.2871 34.7842 35.5059C34.917 35.7246 35.0947 35.9004 35.3174 36.0332C35.5439 36.1621 35.8252 36.2266 36.1611 36.2266ZM42.5361 37.1172C42.0947 37.1172 41.6943 37.043 41.335 36.8945C40.9795 36.7422 40.6729 36.5293 40.415 36.2559C40.1611 35.9824 39.9658 35.6582 39.8291 35.2832C39.6924 34.9082 39.624 34.498 39.624 34.0527V33.8066C39.624 33.291 39.7002 32.832 39.8525 32.4297C40.0049 32.0234 40.2119 31.6797 40.4736 31.3984C40.7354 31.1172 41.0322 30.9043 41.3643 30.7598C41.6963 30.6152 42.04 30.543 42.3955 30.543C42.8486 30.543 43.2393 30.6211 43.5674 30.7773C43.8994 30.9336 44.1709 31.1523 44.3818 31.4336C44.5928 31.7109 44.749 32.0391 44.8506 32.418C44.9521 32.793 45.0029 33.2031 45.0029 33.6484V34.1348H40.2686V33.25H43.9189V33.168C43.9033 32.8867 43.8447 32.6133 43.7432 32.3477C43.6455 32.082 43.4893 31.8633 43.2744 31.6914C43.0596 31.5195 42.7666 31.4336 42.3955 31.4336C42.1494 31.4336 41.9229 31.4863 41.7158 31.5918C41.5088 31.6934 41.3311 31.8457 41.1826 32.0488C41.0342 32.252 40.9189 32.5 40.8369 32.793C40.7549 33.0859 40.7139 33.4238 40.7139 33.8066V34.0527C40.7139 34.3535 40.7549 34.6367 40.8369 34.9023C40.9229 35.1641 41.0459 35.3945 41.2061 35.5938C41.3701 35.793 41.5674 35.9492 41.7979 36.0625C42.0322 36.1758 42.2979 36.2324 42.5947 36.2324C42.9775 36.2324 43.3018 36.1543 43.5674 35.998C43.833 35.8418 44.0654 35.6328 44.2646 35.3711L44.9209 35.8926C44.7842 36.0996 44.6104 36.2969 44.3994 36.4844C44.1885 36.6719 43.9287 36.8242 43.6201 36.9414C43.3154 37.0586 42.9541 37.1172 42.5361 37.1172Z" fill="black"/>
<path d="M214.367 237.021L216.535 238.738L215.773 239.441L213.641 237.748L214.367 237.021ZM216.506 233.465V234.004C216.506 234.645 216.426 235.219 216.266 235.727C216.105 236.234 215.875 236.666 215.574 237.021C215.273 237.377 214.912 237.648 214.49 237.836C214.072 238.023 213.604 238.117 213.084 238.117C212.58 238.117 212.117 238.023 211.695 237.836C211.277 237.648 210.914 237.377 210.605 237.021C210.301 236.666 210.064 236.234 209.896 235.727C209.729 235.219 209.645 234.645 209.645 234.004V233.465C209.645 232.824 209.727 232.252 209.891 231.748C210.059 231.24 210.295 230.809 210.6 230.453C210.904 230.094 211.266 229.82 211.684 229.633C212.105 229.445 212.568 229.352 213.072 229.352C213.592 229.352 214.062 229.445 214.484 229.633C214.906 229.82 215.268 230.094 215.568 230.453C215.869 230.809 216.1 231.24 216.26 231.748C216.424 232.252 216.506 232.824 216.506 233.465ZM215.387 234.004V233.453C215.387 232.945 215.334 232.496 215.229 232.105C215.127 231.715 214.977 231.387 214.777 231.121C214.578 230.855 214.336 230.654 214.051 230.518C213.766 230.381 213.439 230.312 213.072 230.312C212.725 230.312 212.408 230.381 212.123 230.518C211.842 230.654 211.6 230.855 211.396 231.121C211.193 231.387 211.037 231.715 210.928 232.105C210.818 232.496 210.764 232.945 210.764 233.453V234.004C210.764 234.516 210.818 234.969 210.928 235.363C211.037 235.754 211.193 236.084 211.396 236.354C211.604 236.619 211.85 236.82 212.135 236.957C212.42 237.094 212.736 237.162 213.084 237.162C213.451 237.162 213.777 237.094 214.062 236.957C214.348 236.82 214.588 236.619 214.783 236.354C214.982 236.084 215.133 235.754 215.234 235.363C215.336 234.969 215.387 234.516 215.387 234.004ZM221.967 236.535V231.66H223.057V238H222.02L221.967 236.535ZM222.172 235.199L222.623 235.188C222.623 235.609 222.578 236 222.488 236.359C222.402 236.715 222.262 237.023 222.066 237.285C221.871 237.547 221.615 237.752 221.299 237.9C220.982 238.045 220.598 238.117 220.145 238.117C219.836 238.117 219.553 238.072 219.295 237.982C219.041 237.893 218.822 237.754 218.639 237.566C218.455 237.379 218.312 237.135 218.211 236.834C218.113 236.533 218.064 236.172 218.064 235.75V231.66H219.148V235.762C219.148 236.047 219.18 236.283 219.242 236.471C219.309 236.654 219.396 236.801 219.506 236.91C219.619 237.016 219.744 237.09 219.881 237.133C220.021 237.176 220.166 237.197 220.314 237.197C220.775 237.197 221.141 237.109 221.41 236.934C221.68 236.754 221.873 236.514 221.99 236.213C222.111 235.908 222.172 235.57 222.172 235.199ZM228.447 236.916V233.652C228.447 233.402 228.396 233.186 228.295 233.002C228.197 232.814 228.049 232.67 227.85 232.568C227.65 232.467 227.404 232.416 227.111 232.416C226.838 232.416 226.598 232.463 226.391 232.557C226.188 232.65 226.027 232.773 225.91 232.926C225.797 233.078 225.74 233.242 225.74 233.418H224.656C224.656 233.191 224.715 232.967 224.832 232.744C224.949 232.521 225.117 232.32 225.336 232.141C225.559 231.957 225.824 231.812 226.133 231.707C226.445 231.598 226.793 231.543 227.176 231.543C227.637 231.543 228.043 231.621 228.395 231.777C228.75 231.934 229.027 232.17 229.227 232.486C229.43 232.799 229.531 233.191 229.531 233.664V236.617C229.531 236.828 229.549 237.053 229.584 237.291C229.623 237.529 229.68 237.734 229.754 237.906V238H228.623C228.568 237.875 228.525 237.709 228.494 237.502C228.463 237.291 228.447 237.096 228.447 236.916ZM228.635 234.156L228.646 234.918H227.551C227.242 234.918 226.967 234.943 226.725 234.994C226.482 235.041 226.279 235.113 226.115 235.211C225.951 235.309 225.826 235.432 225.74 235.58C225.654 235.725 225.611 235.895 225.611 236.09C225.611 236.289 225.656 236.471 225.746 236.635C225.836 236.799 225.971 236.93 226.15 237.027C226.334 237.121 226.559 237.168 226.824 237.168C227.156 237.168 227.449 237.098 227.703 236.957C227.957 236.816 228.158 236.645 228.307 236.441C228.459 236.238 228.541 236.041 228.553 235.85L229.016 236.371C228.988 236.535 228.914 236.717 228.793 236.916C228.672 237.115 228.51 237.307 228.307 237.49C228.107 237.67 227.869 237.82 227.592 237.941C227.318 238.059 227.01 238.117 226.666 238.117C226.236 238.117 225.859 238.033 225.535 237.865C225.215 237.697 224.965 237.473 224.785 237.191C224.609 236.906 224.521 236.588 224.521 236.236C224.521 235.896 224.588 235.598 224.721 235.34C224.854 235.078 225.045 234.861 225.295 234.689C225.545 234.514 225.846 234.381 226.197 234.291C226.549 234.201 226.941 234.156 227.375 234.156H228.635ZM232.32 233.014V238H231.236V231.66H232.262L232.32 233.014ZM232.062 234.59L231.611 234.572C231.615 234.139 231.68 233.738 231.805 233.371C231.93 233 232.105 232.678 232.332 232.404C232.559 232.131 232.828 231.92 233.141 231.771C233.457 231.619 233.807 231.543 234.189 231.543C234.502 231.543 234.783 231.586 235.033 231.672C235.283 231.754 235.496 231.887 235.672 232.07C235.852 232.254 235.988 232.492 236.082 232.785C236.176 233.074 236.223 233.428 236.223 233.846V238H235.133V233.834C235.133 233.502 235.084 233.236 234.986 233.037C234.889 232.834 234.746 232.688 234.559 232.598C234.371 232.504 234.141 232.457 233.867 232.457C233.598 232.457 233.352 232.514 233.129 232.627C232.91 232.74 232.721 232.896 232.561 233.096C232.404 233.295 232.281 233.523 232.191 233.781C232.105 234.035 232.062 234.305 232.062 234.59ZM240.523 231.66V232.492H237.096V231.66H240.523ZM238.256 230.119H239.34V236.43C239.34 236.645 239.373 236.807 239.439 236.916C239.506 237.025 239.592 237.098 239.697 237.133C239.803 237.168 239.916 237.186 240.037 237.186C240.127 237.186 240.221 237.178 240.318 237.162C240.42 237.143 240.496 237.127 240.547 237.115L240.553 238C240.467 238.027 240.354 238.053 240.213 238.076C240.076 238.104 239.91 238.117 239.715 238.117C239.449 238.117 239.205 238.064 238.982 237.959C238.76 237.854 238.582 237.678 238.449 237.432C238.32 237.182 238.256 236.846 238.256 236.424V230.119ZM242.973 231.66V238H241.883V231.66H242.973ZM241.801 229.979C241.801 229.803 241.854 229.654 241.959 229.533C242.068 229.412 242.229 229.352 242.439 229.352C242.646 229.352 242.805 229.412 242.914 229.533C243.027 229.654 243.084 229.803 243.084 229.979C243.084 230.146 243.027 230.291 242.914 230.412C242.805 230.529 242.646 230.588 242.439 230.588C242.229 230.588 242.068 230.529 241.959 230.412C241.854 230.291 241.801 230.146 241.801 229.979ZM247.367 231.66V232.492H243.939V231.66H247.367ZM245.1 230.119H246.184V236.43C246.184 236.645 246.217 236.807 246.283 236.916C246.35 237.025 246.436 237.098 246.541 237.133C246.646 237.168 246.76 237.186 246.881 237.186C246.971 237.186 247.064 237.178 247.162 237.162C247.264 237.143 247.34 237.127 247.391 237.115L247.396 238C247.311 238.027 247.197 238.053 247.057 238.076C246.92 238.104 246.754 238.117 246.559 238.117C246.293 238.117 246.049 238.064 245.826 237.959C245.604 237.854 245.426 237.678 245.293 237.432C245.164 237.182 245.1 236.846 245.1 236.424V230.119ZM250.42 237.344L252.184 231.66H253.344L250.801 238.979C250.742 239.135 250.664 239.303 250.566 239.482C250.473 239.666 250.352 239.84 250.203 240.004C250.055 240.168 249.875 240.301 249.664 240.402C249.457 240.508 249.209 240.561 248.92 240.561C248.834 240.561 248.725 240.549 248.592 240.525C248.459 240.502 248.365 240.482 248.311 240.467L248.305 239.588C248.336 239.592 248.385 239.596 248.451 239.6C248.521 239.607 248.57 239.611 248.598 239.611C248.844 239.611 249.053 239.578 249.225 239.512C249.396 239.449 249.541 239.342 249.658 239.189C249.779 239.041 249.883 238.836 249.969 238.574L250.42 237.344ZM249.125 231.66L250.771 236.582L251.053 237.725L250.273 238.123L247.941 231.66H249.125Z" fill="black"/>
<path d="M79.239 167C79.239 167 94.529 197.907 124.029 176.907C153.529 155.907 207.5 55.4998 207.5 55.4998" stroke="black" stroke-width="2"/>
<path d="M210.348 40.4688H211.443L214.238 47.4238L217.027 40.4688H218.129L214.66 49H213.805L210.348 40.4688ZM209.99 40.4688H210.957L211.115 45.6719V49H209.99V40.4688ZM217.514 40.4688H218.48V49H217.355V45.6719L217.514 40.4688ZM225.617 46.2871H226.742C226.684 46.8262 226.529 47.3086 226.279 47.7344C226.029 48.1602 225.676 48.498 225.219 48.748C224.762 48.9941 224.191 49.1172 223.508 49.1172C223.008 49.1172 222.553 49.0234 222.143 48.8359C221.736 48.6484 221.387 48.3828 221.094 48.0391C220.801 47.6914 220.574 47.2754 220.414 46.791C220.258 46.3027 220.18 45.7598 220.18 45.1621V44.3125C220.18 43.7148 220.258 43.1738 220.414 42.6895C220.574 42.2012 220.803 41.7832 221.1 41.4355C221.4 41.0879 221.762 40.8203 222.184 40.6328C222.605 40.4453 223.08 40.3516 223.607 40.3516C224.252 40.3516 224.797 40.4727 225.242 40.7148C225.688 40.957 226.033 41.293 226.279 41.7227C226.529 42.1484 226.684 42.6426 226.742 43.2051H225.617C225.562 42.8066 225.461 42.4648 225.312 42.1797C225.164 41.8906 224.953 41.668 224.68 41.5117C224.406 41.3555 224.049 41.2773 223.607 41.2773C223.229 41.2773 222.895 41.3496 222.605 41.4941C222.32 41.6387 222.08 41.8438 221.885 42.1094C221.693 42.375 221.549 42.6934 221.451 43.0645C221.354 43.4355 221.305 43.8477 221.305 44.3008V45.1621C221.305 45.5801 221.348 45.9727 221.434 46.3398C221.523 46.707 221.658 47.0293 221.838 47.3066C222.018 47.584 222.246 47.8027 222.523 47.9629C222.801 48.1191 223.129 48.1973 223.508 48.1973C223.988 48.1973 224.371 48.1211 224.656 47.9688C224.941 47.8164 225.156 47.5977 225.301 47.3125C225.449 47.0273 225.555 46.6855 225.617 46.2871Z" fill="black"/>
<path d="M261.348 106.469H262.443L265.238 113.424L268.027 106.469H269.129L265.66 115H264.805L261.348 106.469ZM260.99 106.469H261.957L262.115 111.672V115H260.99V106.469ZM268.514 106.469H269.48V115H268.355V111.672L268.514 106.469ZM271.467 106.469H274.291C274.932 106.469 275.473 106.566 275.914 106.762C276.359 106.957 276.697 107.246 276.928 107.629C277.162 108.008 277.279 108.475 277.279 109.029C277.279 109.42 277.199 109.777 277.039 110.102C276.883 110.422 276.656 110.695 276.359 110.922C276.066 111.145 275.715 111.311 275.305 111.42L274.988 111.543H272.334L272.322 110.623H274.326C274.732 110.623 275.07 110.553 275.34 110.412C275.609 110.268 275.812 110.074 275.949 109.832C276.086 109.59 276.154 109.322 276.154 109.029C276.154 108.701 276.09 108.414 275.961 108.168C275.832 107.922 275.629 107.732 275.352 107.6C275.078 107.463 274.725 107.395 274.291 107.395H272.598V115H271.467V106.469ZM276.453 115L274.379 111.133L275.557 111.127L277.66 114.93V115H276.453ZM286.625 109.287V110.23H281.738V109.287H286.625ZM286.625 111.719V112.662H281.738V111.719H286.625ZM293.709 115H291.928L291.939 114.08H293.709C294.318 114.08 294.826 113.953 295.232 113.699C295.639 113.441 295.943 113.082 296.146 112.621C296.354 112.156 296.457 111.613 296.457 110.992V110.471C296.457 109.982 296.398 109.549 296.281 109.17C296.164 108.787 295.992 108.465 295.766 108.203C295.539 107.938 295.262 107.736 294.934 107.6C294.609 107.463 294.236 107.395 293.814 107.395H291.893V106.469H293.814C294.373 106.469 294.883 106.562 295.344 106.75C295.805 106.934 296.201 107.201 296.533 107.553C296.869 107.9 297.127 108.322 297.307 108.818C297.486 109.311 297.576 109.865 297.576 110.482V110.992C297.576 111.609 297.486 112.166 297.307 112.662C297.127 113.154 296.867 113.574 296.527 113.922C296.191 114.27 295.785 114.537 295.309 114.725C294.836 114.908 294.303 115 293.709 115ZM292.531 106.469V115H291.4V106.469H292.531Z" fill="black"/>
<path d="M261.348 130.469H262.443L265.238 137.424L268.027 130.469H269.129L265.66 139H264.805L261.348 130.469ZM260.99 130.469H261.957L262.115 135.672V139H260.99V130.469ZM268.514 130.469H269.48V139H268.355V135.672L268.514 130.469ZM271.467 130.469H274.291C274.932 130.469 275.473 130.566 275.914 130.762C276.359 130.957 276.697 131.246 276.928 131.629C277.162 132.008 277.279 132.475 277.279 133.029C277.279 133.42 277.199 133.777 277.039 134.102C276.883 134.422 276.656 134.695 276.359 134.922C276.066 135.145 275.715 135.311 275.305 135.42L274.988 135.543H272.334L272.322 134.623H274.326C274.732 134.623 275.07 134.553 275.34 134.412C275.609 134.268 275.812 134.074 275.949 133.832C276.086 133.59 276.154 133.322 276.154 133.029C276.154 132.701 276.09 132.414 275.961 132.168C275.832 131.922 275.629 131.732 275.352 131.6C275.078 131.463 274.725 131.395 274.291 131.395H272.598V139H271.467V130.469ZM276.453 139L274.379 135.133L275.557 135.127L277.66 138.93V139H276.453ZM286.625 133.287V134.23H281.738V133.287H286.625ZM286.625 135.719V136.662H281.738V135.719H286.625ZM293.709 139H291.928L291.939 138.08H293.709C294.318 138.08 294.826 137.953 295.232 137.699C295.639 137.441 295.943 137.082 296.146 136.621C296.354 136.156 296.457 135.613 296.457 134.992V134.471C296.457 133.982 296.398 133.549 296.281 133.17C296.164 132.787 295.992 132.465 295.766 132.203C295.539 131.938 295.262 131.736 294.934 131.6C294.609 131.463 294.236 131.395 293.814 131.395H291.893V130.469H293.814C294.373 130.469 294.883 130.562 295.344 130.75C295.805 130.934 296.201 131.201 296.533 131.553C296.869 131.9 297.127 132.322 297.307 132.818C297.486 133.311 297.576 133.865 297.576 134.482V134.992C297.576 135.609 297.486 136.166 297.307 136.662C297.127 137.154 296.867 137.574 296.527 137.922C296.191 138.27 295.785 138.537 295.309 138.725C294.836 138.908 294.303 139 293.709 139ZM292.531 130.469V139H291.4V130.469H292.531Z" fill="black"/>
<path d="M257.148 45.2246L254.324 53H253.17L256.422 44.4688H257.166L257.148 45.2246ZM259.516 53L256.686 45.2246L256.668 44.4688H257.412L260.676 53H259.516ZM259.369 49.8418V50.7676H254.576V49.8418H259.369ZM264.209 44.4688V53H263.096V44.4688H264.209ZM266.951 44.4688V45.3945H260.359V44.4688H266.951ZM273.203 50.2871H274.328C274.27 50.8262 274.115 51.3086 273.865 51.7344C273.615 52.1602 273.262 52.498 272.805 52.748C272.348 52.9941 271.777 53.1172 271.094 53.1172C270.594 53.1172 270.139 53.0234 269.729 52.8359C269.322 52.6484 268.973 52.3828 268.68 52.0391C268.387 51.6914 268.16 51.2754 268 50.791C267.844 50.3027 267.766 49.7598 267.766 49.1621V48.3125C267.766 47.7148 267.844 47.1738 268 46.6895C268.16 46.2012 268.389 45.7832 268.686 45.4355C268.986 45.0879 269.348 44.8203 269.77 44.6328C270.191 44.4453 270.666 44.3516 271.193 44.3516C271.838 44.3516 272.383 44.4727 272.828 44.7148C273.273 44.957 273.619 45.293 273.865 45.7227C274.115 46.1484 274.27 46.6426 274.328 47.2051H273.203C273.148 46.8066 273.047 46.4648 272.898 46.1797C272.75 45.8906 272.539 45.668 272.266 45.5117C271.992 45.3555 271.635 45.2773 271.193 45.2773C270.814 45.2773 270.48 45.3496 270.191 45.4941C269.906 45.6387 269.666 45.8438 269.471 46.1094C269.279 46.375 269.135 46.6934 269.037 47.0645C268.939 47.4355 268.891 47.8477 268.891 48.3008V49.1621C268.891 49.5801 268.934 49.9727 269.02 50.3398C269.109 50.707 269.244 51.0293 269.424 51.3066C269.604 51.584 269.832 51.8027 270.109 51.9629C270.387 52.1191 270.715 52.1973 271.094 52.1973C271.574 52.1973 271.957 52.1211 272.242 51.9688C272.527 51.8164 272.742 51.5977 272.887 51.3125C273.035 51.0273 273.141 50.6855 273.203 50.2871Z" fill="black"/>
<path d="M90 61C90 61 112 120 151 133C190 146 236.927 87.4759 249.5 76" stroke="black" stroke-width="2"/>
<line x1="62" y1="135" x2="253" y2="135" stroke="black" stroke-width="2"/>
<line x1="62" y1="112" x2="253" y2="112" stroke="black" stroke-width="2"/>
<path d="M98 118L95.1132 123L100.887 123L98 118ZM98 128L98.5 128L98.5 122.5L98 122.5L97.5 122.5L97.5 128L98 128Z" fill="black"/>
<path d="M228 118L225.113 123L230.887 123L228 118ZM228 128L228.5 128L228.5 122.5L228 122.5L227.5 122.5L227.5 128L228 128Z" fill="black"/>
</svg>
