<svg width="305" height="257" viewBox="0 0 305 257" fill="none" xmlns="http://www.w3.org/2000/svg">
<rect width="305" height="257" fill="white"/>
<path d="M39.5381 184.654H37.2588V183.734H39.5381C39.9795 183.734 40.3369 183.664 40.6104 183.523C40.8838 183.383 41.083 183.188 41.208 182.938C41.3369 182.688 41.4014 182.402 41.4014 182.082C41.4014 181.789 41.3369 181.514 41.208 181.256C41.083 180.998 40.8838 180.791 40.6104 180.635C40.3369 180.475 39.9795 180.395 39.5381 180.395H37.5225V188H36.3916V179.469H39.5381C40.1826 179.469 40.7275 179.58 41.1729 179.803C41.6182 180.025 41.9561 180.334 42.1865 180.729C42.417 181.119 42.5322 181.566 42.5322 182.07C42.5322 182.617 42.417 183.084 42.1865 183.471C41.9561 183.857 41.6182 184.152 41.1729 184.355C40.7275 184.555 40.1826 184.654 39.5381 184.654ZM39.6729 193.422V202H38.5889V194.775L36.4033 195.572V194.594L39.5029 193.422H39.6729Z" fill="black"/>
<line x1="62.3242" y1="26" x2="62.3242" y2="216" stroke="black"/>
<line y1="-0.5" x2="192.567" y2="-0.5" transform="matrix(0.999984 0.0055743 -0.00572597 0.999984 61.8242 216)" stroke="black"/>
<path d="M22.3799 33.6543H20.1006V32.7344H22.3799C22.8213 32.7344 23.1787 32.6641 23.4521 32.5234C23.7256 32.3828 23.9248 32.1875 24.0498 31.9375C24.1787 31.6875 24.2432 31.4023 24.2432 31.082C24.2432 30.7891 24.1787 30.5137 24.0498 30.2559C23.9248 29.998 23.7256 29.791 23.4521 29.6348C23.1787 29.4746 22.8213 29.3945 22.3799 29.3945H20.3643V37H19.2334V28.4688H22.3799C23.0244 28.4688 23.5693 28.5801 24.0146 28.8027C24.46 29.0254 24.7979 29.334 25.0283 29.7285C25.2588 30.1191 25.374 30.5664 25.374 31.0703C25.374 31.6172 25.2588 32.084 25.0283 32.4707C24.7979 32.8574 24.46 33.1523 24.0146 33.3555C23.5693 33.5547 23.0244 33.6543 22.3799 33.6543ZM27.7236 31.6562V37H26.6396V30.6602H27.6943L27.7236 31.6562ZM29.7041 30.625L29.6982 31.6328C29.6084 31.6133 29.5225 31.6016 29.4404 31.5977C29.3623 31.5898 29.2725 31.5859 29.1709 31.5859C28.9209 31.5859 28.7002 31.625 28.5088 31.7031C28.3174 31.7812 28.1553 31.8906 28.0225 32.0312C27.8896 32.1719 27.7842 32.3398 27.7061 32.5352C27.6318 32.7266 27.583 32.9375 27.5596 33.168L27.2549 33.3438C27.2549 32.9609 27.292 32.6016 27.3662 32.2656C27.4443 31.9297 27.5635 31.6328 27.7236 31.375C27.8838 31.1133 28.0869 30.9102 28.333 30.7656C28.583 30.6172 28.8799 30.543 29.2236 30.543C29.3018 30.543 29.3916 30.5527 29.4932 30.5723C29.5947 30.5879 29.665 30.6055 29.7041 30.625ZM31.8838 30.6602V37H30.7939V30.6602H31.8838ZM30.7119 28.9785C30.7119 28.8027 30.7646 28.6543 30.8701 28.5332C30.9795 28.4121 31.1396 28.3516 31.3506 28.3516C31.5576 28.3516 31.7158 28.4121 31.8252 28.5332C31.9385 28.6543 31.9951 28.8027 31.9951 28.9785C31.9951 29.1465 31.9385 29.291 31.8252 29.4121C31.7158 29.5293 31.5576 29.5879 31.3506 29.5879C31.1396 29.5879 30.9795 29.5293 30.8701 29.4121C30.7646 29.291 30.7119 29.1465 30.7119 28.9785ZM36.1611 36.2266C36.4189 36.2266 36.6572 36.1738 36.876 36.0684C37.0947 35.9629 37.2744 35.8184 37.415 35.6348C37.5557 35.4473 37.6357 35.2344 37.6553 34.9961H38.6865C38.667 35.3711 38.54 35.7207 38.3057 36.0449C38.0752 36.3652 37.7725 36.625 37.3975 36.8242C37.0225 37.0195 36.6104 37.1172 36.1611 37.1172C35.6846 37.1172 35.2686 37.0332 34.9131 36.8652C34.5615 36.6973 34.2686 36.4668 34.0342 36.1738C33.8037 35.8809 33.6299 35.5449 33.5127 35.166C33.3994 34.7832 33.3428 34.3789 33.3428 33.9531V33.707C33.3428 33.2812 33.3994 32.8789 33.5127 32.5C33.6299 32.1172 33.8037 31.7793 34.0342 31.4863C34.2686 31.1934 34.5615 30.9629 34.9131 30.7949C35.2686 30.627 35.6846 30.543 36.1611 30.543C36.6572 30.543 37.0908 30.6445 37.4619 30.8477C37.833 31.0469 38.124 31.3203 38.335 31.668C38.5498 32.0117 38.667 32.4023 38.6865 32.8398H37.6553C37.6357 32.5781 37.5615 32.3418 37.4326 32.1309C37.3076 31.9199 37.1357 31.752 36.917 31.627C36.7021 31.498 36.4502 31.4336 36.1611 31.4336C35.8291 31.4336 35.5498 31.5 35.3232 31.6328C35.1006 31.7617 34.9229 31.9375 34.79 32.1602C34.6611 32.3789 34.5674 32.623 34.5088 32.8926C34.4541 33.1582 34.4268 33.4297 34.4268 33.707V33.9531C34.4268 34.2305 34.4541 34.5039 34.5088 34.7734C34.5635 35.043 34.6553 35.2871 34.7842 35.5059C34.917 35.7246 35.0947 35.9004 35.3174 36.0332C35.5439 36.1621 35.8252 36.2266 36.1611 36.2266ZM42.5361 37.1172C42.0947 37.1172 41.6943 37.043 41.335 36.8945C40.9795 36.7422 40.6729 36.5293 40.415 36.2559C40.1611 35.9824 39.9658 35.6582 39.8291 35.2832C39.6924 34.9082 39.624 34.498 39.624 34.0527V33.8066C39.624 33.291 39.7002 32.832 39.8525 32.4297C40.0049 32.0234 40.2119 31.6797 40.4736 31.3984C40.7354 31.1172 41.0322 30.9043 41.3643 30.7598C41.6963 30.6152 42.04 30.543 42.3955 30.543C42.8486 30.543 43.2393 30.6211 43.5674 30.7773C43.8994 30.9336 44.1709 31.1523 44.3818 31.4336C44.5928 31.7109 44.749 32.0391 44.8506 32.418C44.9521 32.793 45.0029 33.2031 45.0029 33.6484V34.1348H40.2686V33.25H43.9189V33.168C43.9033 32.8867 43.8447 32.6133 43.7432 32.3477C43.6455 32.082 43.4893 31.8633 43.2744 31.6914C43.0596 31.5195 42.7666 31.4336 42.3955 31.4336C42.1494 31.4336 41.9229 31.4863 41.7158 31.5918C41.5088 31.6934 41.3311 31.8457 41.1826 32.0488C41.0342 32.252 40.9189 32.5 40.8369 32.793C40.7549 33.0859 40.7139 33.4238 40.7139 33.8066V34.0527C40.7139 34.3535 40.7549 34.6367 40.8369 34.9023C40.9229 35.1641 41.0459 35.3945 41.2061 35.5938C41.3701 35.793 41.5674 35.9492 41.7979 36.0625C42.0322 36.1758 42.2979 36.2324 42.5947 36.2324C42.9775 36.2324 43.3018 36.1543 43.5674 35.998C43.833 35.8418 44.0654 35.6328 44.2646 35.3711L44.9209 35.8926C44.7842 36.0996 44.6104 36.2969 44.3994 36.4844C44.1885 36.6719 43.9287 36.8242 43.6201 36.9414C43.3154 37.0586 42.9541 37.1172 42.5361 37.1172Z" fill="black"/>
<path d="M214.151 240.021L216.319 241.738L215.558 242.441L213.425 240.748L214.151 240.021ZM216.29 236.465V237.004C216.29 237.645 216.21 238.219 216.05 238.727C215.89 239.234 215.659 239.666 215.358 240.021C215.058 240.377 214.696 240.648 214.274 240.836C213.856 241.023 213.388 241.117 212.868 241.117C212.364 241.117 211.901 241.023 211.479 240.836C211.062 240.648 210.698 240.377 210.39 240.021C210.085 239.666 209.849 239.234 209.681 238.727C209.513 238.219 209.429 237.645 209.429 237.004V236.465C209.429 235.824 209.511 235.252 209.675 234.748C209.843 234.24 210.079 233.809 210.384 233.453C210.688 233.094 211.05 232.82 211.468 232.633C211.89 232.445 212.353 232.352 212.856 232.352C213.376 232.352 213.847 232.445 214.269 232.633C214.69 232.82 215.052 233.094 215.353 233.453C215.653 233.809 215.884 234.24 216.044 234.748C216.208 235.252 216.29 235.824 216.29 236.465ZM215.171 237.004V236.453C215.171 235.945 215.118 235.496 215.013 235.105C214.911 234.715 214.761 234.387 214.562 234.121C214.362 233.855 214.12 233.654 213.835 233.518C213.55 233.381 213.224 233.312 212.856 233.312C212.509 233.312 212.192 233.381 211.907 233.518C211.626 233.654 211.384 233.855 211.181 234.121C210.978 234.387 210.821 234.715 210.712 235.105C210.603 235.496 210.548 235.945 210.548 236.453V237.004C210.548 237.516 210.603 237.969 210.712 238.363C210.821 238.754 210.978 239.084 211.181 239.354C211.388 239.619 211.634 239.82 211.919 239.957C212.204 240.094 212.521 240.162 212.868 240.162C213.235 240.162 213.562 240.094 213.847 239.957C214.132 239.82 214.372 239.619 214.567 239.354C214.767 239.084 214.917 238.754 215.019 238.363C215.12 237.969 215.171 237.516 215.171 237.004ZM221.751 239.535V234.66H222.841V241H221.804L221.751 239.535ZM221.956 238.199L222.407 238.188C222.407 238.609 222.362 239 222.272 239.359C222.187 239.715 222.046 240.023 221.851 240.285C221.655 240.547 221.399 240.752 221.083 240.9C220.767 241.045 220.382 241.117 219.929 241.117C219.62 241.117 219.337 241.072 219.079 240.982C218.825 240.893 218.606 240.754 218.423 240.566C218.239 240.379 218.097 240.135 217.995 239.834C217.897 239.533 217.849 239.172 217.849 238.75V234.66H218.933V238.762C218.933 239.047 218.964 239.283 219.026 239.471C219.093 239.654 219.181 239.801 219.29 239.91C219.403 240.016 219.528 240.09 219.665 240.133C219.806 240.176 219.95 240.197 220.099 240.197C220.56 240.197 220.925 240.109 221.194 239.934C221.464 239.754 221.657 239.514 221.774 239.213C221.896 238.908 221.956 238.57 221.956 238.199ZM228.231 239.916V236.652C228.231 236.402 228.181 236.186 228.079 236.002C227.981 235.814 227.833 235.67 227.634 235.568C227.435 235.467 227.188 235.416 226.896 235.416C226.622 235.416 226.382 235.463 226.175 235.557C225.972 235.65 225.812 235.773 225.694 235.926C225.581 236.078 225.524 236.242 225.524 236.418H224.44C224.44 236.191 224.499 235.967 224.616 235.744C224.733 235.521 224.901 235.32 225.12 235.141C225.343 234.957 225.608 234.812 225.917 234.707C226.229 234.598 226.577 234.543 226.96 234.543C227.421 234.543 227.827 234.621 228.179 234.777C228.534 234.934 228.812 235.17 229.011 235.486C229.214 235.799 229.315 236.191 229.315 236.664V239.617C229.315 239.828 229.333 240.053 229.368 240.291C229.407 240.529 229.464 240.734 229.538 240.906V241H228.407C228.353 240.875 228.31 240.709 228.278 240.502C228.247 240.291 228.231 240.096 228.231 239.916ZM228.419 237.156L228.431 237.918H227.335C227.026 237.918 226.751 237.943 226.509 237.994C226.267 238.041 226.063 238.113 225.899 238.211C225.735 238.309 225.61 238.432 225.524 238.58C225.438 238.725 225.396 238.895 225.396 239.09C225.396 239.289 225.44 239.471 225.53 239.635C225.62 239.799 225.755 239.93 225.935 240.027C226.118 240.121 226.343 240.168 226.608 240.168C226.94 240.168 227.233 240.098 227.487 239.957C227.741 239.816 227.942 239.645 228.091 239.441C228.243 239.238 228.325 239.041 228.337 238.85L228.8 239.371C228.772 239.535 228.698 239.717 228.577 239.916C228.456 240.115 228.294 240.307 228.091 240.49C227.892 240.67 227.653 240.82 227.376 240.941C227.103 241.059 226.794 241.117 226.45 241.117C226.021 241.117 225.644 241.033 225.319 240.865C224.999 240.697 224.749 240.473 224.569 240.191C224.394 239.906 224.306 239.588 224.306 239.236C224.306 238.896 224.372 238.598 224.505 238.34C224.638 238.078 224.829 237.861 225.079 237.689C225.329 237.514 225.63 237.381 225.981 237.291C226.333 237.201 226.726 237.156 227.159 237.156H228.419ZM232.104 236.014V241H231.021V234.66H232.046L232.104 236.014ZM231.847 237.59L231.396 237.572C231.399 237.139 231.464 236.738 231.589 236.371C231.714 236 231.89 235.678 232.116 235.404C232.343 235.131 232.612 234.92 232.925 234.771C233.241 234.619 233.591 234.543 233.974 234.543C234.286 234.543 234.567 234.586 234.817 234.672C235.067 234.754 235.28 234.887 235.456 235.07C235.636 235.254 235.772 235.492 235.866 235.785C235.96 236.074 236.007 236.428 236.007 236.846V241H234.917V236.834C234.917 236.502 234.868 236.236 234.771 236.037C234.673 235.834 234.53 235.688 234.343 235.598C234.155 235.504 233.925 235.457 233.651 235.457C233.382 235.457 233.136 235.514 232.913 235.627C232.694 235.74 232.505 235.896 232.345 236.096C232.188 236.295 232.065 236.523 231.976 236.781C231.89 237.035 231.847 237.305 231.847 237.59ZM240.308 234.66V235.492H236.88V234.66H240.308ZM238.04 233.119H239.124V239.43C239.124 239.645 239.157 239.807 239.224 239.916C239.29 240.025 239.376 240.098 239.481 240.133C239.587 240.168 239.7 240.186 239.821 240.186C239.911 240.186 240.005 240.178 240.103 240.162C240.204 240.143 240.28 240.127 240.331 240.115L240.337 241C240.251 241.027 240.138 241.053 239.997 241.076C239.86 241.104 239.694 241.117 239.499 241.117C239.233 241.117 238.989 241.064 238.767 240.959C238.544 240.854 238.366 240.678 238.233 240.432C238.104 240.182 238.04 239.846 238.04 239.424V233.119ZM242.757 234.66V241H241.667V234.66H242.757ZM241.585 232.979C241.585 232.803 241.638 232.654 241.743 232.533C241.853 232.412 242.013 232.352 242.224 232.352C242.431 232.352 242.589 232.412 242.698 232.533C242.812 232.654 242.868 232.803 242.868 232.979C242.868 233.146 242.812 233.291 242.698 233.412C242.589 233.529 242.431 233.588 242.224 233.588C242.013 233.588 241.853 233.529 241.743 233.412C241.638 233.291 241.585 233.146 241.585 232.979ZM247.151 234.66V235.492H243.724V234.66H247.151ZM244.884 233.119H245.968V239.43C245.968 239.645 246.001 239.807 246.067 239.916C246.134 240.025 246.22 240.098 246.325 240.133C246.431 240.168 246.544 240.186 246.665 240.186C246.755 240.186 246.849 240.178 246.946 240.162C247.048 240.143 247.124 240.127 247.175 240.115L247.181 241C247.095 241.027 246.981 241.053 246.841 241.076C246.704 241.104 246.538 241.117 246.343 241.117C246.077 241.117 245.833 241.064 245.61 240.959C245.388 240.854 245.21 240.678 245.077 240.432C244.948 240.182 244.884 239.846 244.884 239.424V233.119ZM250.204 240.344L251.968 234.66H253.128L250.585 241.979C250.526 242.135 250.448 242.303 250.351 242.482C250.257 242.666 250.136 242.84 249.987 243.004C249.839 243.168 249.659 243.301 249.448 243.402C249.241 243.508 248.993 243.561 248.704 243.561C248.618 243.561 248.509 243.549 248.376 243.525C248.243 243.502 248.149 243.482 248.095 243.467L248.089 242.588C248.12 242.592 248.169 242.596 248.235 242.6C248.306 242.607 248.354 242.611 248.382 242.611C248.628 242.611 248.837 242.578 249.009 242.512C249.181 242.449 249.325 242.342 249.442 242.189C249.563 242.041 249.667 241.836 249.753 241.574L250.204 240.344ZM248.909 234.66L250.556 239.582L250.837 240.725L250.058 241.123L247.726 234.66H248.909Z" fill="black"/>
<rect width="299" height="257" fill="white"/>
<line x1="55.5166" y1="26" x2="55.5166" y2="216" stroke="black"/>
<line x1="55" y1="215.5" x2="256" y2="215.5" stroke="black"/>
<path d="M20.1367 33.6543H17.8574V32.7344H20.1367C20.5781 32.7344 20.9355 32.6641 21.209 32.5234C21.4824 32.3828 21.6816 32.1875 21.8066 31.9375C21.9355 31.6875 22 31.4023 22 31.082C22 30.7891 21.9355 30.5137 21.8066 30.2559C21.6816 29.998 21.4824 29.791 21.209 29.6348C20.9355 29.4746 20.5781 29.3945 20.1367 29.3945H18.1211V37H16.9902V28.4688H20.1367C20.7812 28.4688 21.3262 28.5801 21.7715 28.8027C22.2168 29.0254 22.5547 29.334 22.7852 29.7285C23.0156 30.1191 23.1309 30.5664 23.1309 31.0703C23.1309 31.6172 23.0156 32.084 22.7852 32.4707C22.5547 32.8574 22.2168 33.1523 21.7715 33.3555C21.3262 33.5547 20.7812 33.6543 20.1367 33.6543ZM25.4805 31.6562V37H24.3965V30.6602H25.4512L25.4805 31.6562ZM27.4609 30.625L27.4551 31.6328C27.3652 31.6133 27.2793 31.6016 27.1973 31.5977C27.1191 31.5898 27.0293 31.5859 26.9277 31.5859C26.6777 31.5859 26.457 31.625 26.2656 31.7031C26.0742 31.7812 25.9121 31.8906 25.7793 32.0312C25.6465 32.1719 25.541 32.3398 25.4629 32.5352C25.3887 32.7266 25.3398 32.9375 25.3164 33.168L25.0117 33.3438C25.0117 32.9609 25.0488 32.6016 25.123 32.2656C25.2012 31.9297 25.3203 31.6328 25.4805 31.375C25.6406 31.1133 25.8438 30.9102 26.0898 30.7656C26.3398 30.6172 26.6367 30.543 26.9805 30.543C27.0586 30.543 27.1484 30.5527 27.25 30.5723C27.3516 30.5879 27.4219 30.6055 27.4609 30.625ZM29.6406 30.6602V37H28.5508V30.6602H29.6406ZM28.4688 28.9785C28.4688 28.8027 28.5215 28.6543 28.627 28.5332C28.7363 28.4121 28.8965 28.3516 29.1074 28.3516C29.3145 28.3516 29.4727 28.4121 29.582 28.5332C29.6953 28.6543 29.752 28.8027 29.752 28.9785C29.752 29.1465 29.6953 29.291 29.582 29.4121C29.4727 29.5293 29.3145 29.5879 29.1074 29.5879C28.8965 29.5879 28.7363 29.5293 28.627 29.4121C28.5215 29.291 28.4688 29.1465 28.4688 28.9785ZM33.918 36.2266C34.1758 36.2266 34.4141 36.1738 34.6328 36.0684C34.8516 35.9629 35.0312 35.8184 35.1719 35.6348C35.3125 35.4473 35.3926 35.2344 35.4121 34.9961H36.4434C36.4238 35.3711 36.2969 35.7207 36.0625 36.0449C35.832 36.3652 35.5293 36.625 35.1543 36.8242C34.7793 37.0195 34.3672 37.1172 33.918 37.1172C33.4414 37.1172 33.0254 37.0332 32.6699 36.8652C32.3184 36.6973 32.0254 36.4668 31.791 36.1738C31.5605 35.8809 31.3867 35.5449 31.2695 35.166C31.1562 34.7832 31.0996 34.3789 31.0996 33.9531V33.707C31.0996 33.2812 31.1562 32.8789 31.2695 32.5C31.3867 32.1172 31.5605 31.7793 31.791 31.4863C32.0254 31.1934 32.3184 30.9629 32.6699 30.7949C33.0254 30.627 33.4414 30.543 33.918 30.543C34.4141 30.543 34.8477 30.6445 35.2188 30.8477C35.5898 31.0469 35.8809 31.3203 36.0918 31.668C36.3066 32.0117 36.4238 32.4023 36.4434 32.8398H35.4121C35.3926 32.5781 35.3184 32.3418 35.1895 32.1309C35.0645 31.9199 34.8926 31.752 34.6738 31.627C34.459 31.498 34.207 31.4336 33.918 31.4336C33.5859 31.4336 33.3066 31.5 33.0801 31.6328C32.8574 31.7617 32.6797 31.9375 32.5469 32.1602C32.418 32.3789 32.3242 32.623 32.2656 32.8926C32.2109 33.1582 32.1836 33.4297 32.1836 33.707V33.9531C32.1836 34.2305 32.2109 34.5039 32.2656 34.7734C32.3203 35.043 32.4121 35.2871 32.541 35.5059C32.6738 35.7246 32.8516 35.9004 33.0742 36.0332C33.3008 36.1621 33.582 36.2266 33.918 36.2266ZM40.293 37.1172C39.8516 37.1172 39.4512 37.043 39.0918 36.8945C38.7363 36.7422 38.4297 36.5293 38.1719 36.2559C37.918 35.9824 37.7227 35.6582 37.5859 35.2832C37.4492 34.9082 37.3809 34.498 37.3809 34.0527V33.8066C37.3809 33.291 37.457 32.832 37.6094 32.4297C37.7617 32.0234 37.9688 31.6797 38.2305 31.3984C38.4922 31.1172 38.7891 30.9043 39.1211 30.7598C39.4531 30.6152 39.7969 30.543 40.1523 30.543C40.6055 30.543 40.9961 30.6211 41.3242 30.7773C41.6562 30.9336 41.9277 31.1523 42.1387 31.4336C42.3496 31.7109 42.5059 32.0391 42.6074 32.418C42.709 32.793 42.7598 33.2031 42.7598 33.6484V34.1348H38.0254V33.25H41.6758V33.168C41.6602 32.8867 41.6016 32.6133 41.5 32.3477C41.4023 32.082 41.2461 31.8633 41.0312 31.6914C40.8164 31.5195 40.5234 31.4336 40.1523 31.4336C39.9062 31.4336 39.6797 31.4863 39.4727 31.5918C39.2656 31.6934 39.0879 31.8457 38.9395 32.0488C38.791 32.252 38.6758 32.5 38.5938 32.793C38.5117 33.0859 38.4707 33.4238 38.4707 33.8066V34.0527C38.4707 34.3535 38.5117 34.6367 38.5938 34.9023C38.6797 35.1641 38.8027 35.3945 38.9629 35.5938C39.127 35.793 39.3242 35.9492 39.5547 36.0625C39.7891 36.1758 40.0547 36.2324 40.3516 36.2324C40.7344 36.2324 41.0586 36.1543 41.3242 35.998C41.5898 35.8418 41.8223 35.6328 42.0215 35.3711L42.6777 35.8926C42.541 36.0996 42.3672 36.2969 42.1562 36.4844C41.9453 36.6719 41.6855 36.8242 41.377 36.9414C41.0723 37.0586 40.7109 37.1172 40.293 37.1172Z" fill="black"/>
<path d="M215.367 236.021L217.535 237.738L216.773 238.441L214.641 236.748L215.367 236.021ZM217.506 232.465V233.004C217.506 233.645 217.426 234.219 217.266 234.727C217.105 235.234 216.875 235.666 216.574 236.021C216.273 236.377 215.912 236.648 215.49 236.836C215.072 237.023 214.604 237.117 214.084 237.117C213.58 237.117 213.117 237.023 212.695 236.836C212.277 236.648 211.914 236.377 211.605 236.021C211.301 235.666 211.064 235.234 210.896 234.727C210.729 234.219 210.645 233.645 210.645 233.004V232.465C210.645 231.824 210.727 231.252 210.891 230.748C211.059 230.24 211.295 229.809 211.6 229.453C211.904 229.094 212.266 228.82 212.684 228.633C213.105 228.445 213.568 228.352 214.072 228.352C214.592 228.352 215.062 228.445 215.484 228.633C215.906 228.82 216.268 229.094 216.568 229.453C216.869 229.809 217.1 230.24 217.26 230.748C217.424 231.252 217.506 231.824 217.506 232.465ZM216.387 233.004V232.453C216.387 231.945 216.334 231.496 216.229 231.105C216.127 230.715 215.977 230.387 215.777 230.121C215.578 229.855 215.336 229.654 215.051 229.518C214.766 229.381 214.439 229.312 214.072 229.312C213.725 229.312 213.408 229.381 213.123 229.518C212.842 229.654 212.6 229.855 212.396 230.121C212.193 230.387 212.037 230.715 211.928 231.105C211.818 231.496 211.764 231.945 211.764 232.453V233.004C211.764 233.516 211.818 233.969 211.928 234.363C212.037 234.754 212.193 235.084 212.396 235.354C212.604 235.619 212.85 235.82 213.135 235.957C213.42 236.094 213.736 236.162 214.084 236.162C214.451 236.162 214.777 236.094 215.062 235.957C215.348 235.82 215.588 235.619 215.783 235.354C215.982 235.084 216.133 234.754 216.234 234.363C216.336 233.969 216.387 233.516 216.387 233.004ZM222.967 235.535V230.66H224.057V237H223.02L222.967 235.535ZM223.172 234.199L223.623 234.188C223.623 234.609 223.578 235 223.488 235.359C223.402 235.715 223.262 236.023 223.066 236.285C222.871 236.547 222.615 236.752 222.299 236.9C221.982 237.045 221.598 237.117 221.145 237.117C220.836 237.117 220.553 237.072 220.295 236.982C220.041 236.893 219.822 236.754 219.639 236.566C219.455 236.379 219.312 236.135 219.211 235.834C219.113 235.533 219.064 235.172 219.064 234.75V230.66H220.148V234.762C220.148 235.047 220.18 235.283 220.242 235.471C220.309 235.654 220.396 235.801 220.506 235.91C220.619 236.016 220.744 236.09 220.881 236.133C221.021 236.176 221.166 236.197 221.314 236.197C221.775 236.197 222.141 236.109 222.41 235.934C222.68 235.754 222.873 235.514 222.99 235.213C223.111 234.908 223.172 234.57 223.172 234.199ZM229.447 235.916V232.652C229.447 232.402 229.396 232.186 229.295 232.002C229.197 231.814 229.049 231.67 228.85 231.568C228.65 231.467 228.404 231.416 228.111 231.416C227.838 231.416 227.598 231.463 227.391 231.557C227.188 231.65 227.027 231.773 226.91 231.926C226.797 232.078 226.74 232.242 226.74 232.418H225.656C225.656 232.191 225.715 231.967 225.832 231.744C225.949 231.521 226.117 231.32 226.336 231.141C226.559 230.957 226.824 230.812 227.133 230.707C227.445 230.598 227.793 230.543 228.176 230.543C228.637 230.543 229.043 230.621 229.395 230.777C229.75 230.934 230.027 231.17 230.227 231.486C230.43 231.799 230.531 232.191 230.531 232.664V235.617C230.531 235.828 230.549 236.053 230.584 236.291C230.623 236.529 230.68 236.734 230.754 236.906V237H229.623C229.568 236.875 229.525 236.709 229.494 236.502C229.463 236.291 229.447 236.096 229.447 235.916ZM229.635 233.156L229.646 233.918H228.551C228.242 233.918 227.967 233.943 227.725 233.994C227.482 234.041 227.279 234.113 227.115 234.211C226.951 234.309 226.826 234.432 226.74 234.58C226.654 234.725 226.611 234.895 226.611 235.09C226.611 235.289 226.656 235.471 226.746 235.635C226.836 235.799 226.971 235.93 227.15 236.027C227.334 236.121 227.559 236.168 227.824 236.168C228.156 236.168 228.449 236.098 228.703 235.957C228.957 235.816 229.158 235.645 229.307 235.441C229.459 235.238 229.541 235.041 229.553 234.85L230.016 235.371C229.988 235.535 229.914 235.717 229.793 235.916C229.672 236.115 229.51 236.307 229.307 236.49C229.107 236.67 228.869 236.82 228.592 236.941C228.318 237.059 228.01 237.117 227.666 237.117C227.236 237.117 226.859 237.033 226.535 236.865C226.215 236.697 225.965 236.473 225.785 236.191C225.609 235.906 225.521 235.588 225.521 235.236C225.521 234.896 225.588 234.598 225.721 234.34C225.854 234.078 226.045 233.861 226.295 233.689C226.545 233.514 226.846 233.381 227.197 233.291C227.549 233.201 227.941 233.156 228.375 233.156H229.635ZM233.32 232.014V237H232.236V230.66H233.262L233.32 232.014ZM233.062 233.59L232.611 233.572C232.615 233.139 232.68 232.738 232.805 232.371C232.93 232 233.105 231.678 233.332 231.404C233.559 231.131 233.828 230.92 234.141 230.771C234.457 230.619 234.807 230.543 235.189 230.543C235.502 230.543 235.783 230.586 236.033 230.672C236.283 230.754 236.496 230.887 236.672 231.07C236.852 231.254 236.988 231.492 237.082 231.785C237.176 232.074 237.223 232.428 237.223 232.846V237H236.133V232.834C236.133 232.502 236.084 232.236 235.986 232.037C235.889 231.834 235.746 231.688 235.559 231.598C235.371 231.504 235.141 231.457 234.867 231.457C234.598 231.457 234.352 231.514 234.129 231.627C233.91 231.74 233.721 231.896 233.561 232.096C233.404 232.295 233.281 232.523 233.191 232.781C233.105 233.035 233.062 233.305 233.062 233.59ZM241.523 230.66V231.492H238.096V230.66H241.523ZM239.256 229.119H240.34V235.43C240.34 235.645 240.373 235.807 240.439 235.916C240.506 236.025 240.592 236.098 240.697 236.133C240.803 236.168 240.916 236.186 241.037 236.186C241.127 236.186 241.221 236.178 241.318 236.162C241.42 236.143 241.496 236.127 241.547 236.115L241.553 237C241.467 237.027 241.354 237.053 241.213 237.076C241.076 237.104 240.91 237.117 240.715 237.117C240.449 237.117 240.205 237.064 239.982 236.959C239.76 236.854 239.582 236.678 239.449 236.432C239.32 236.182 239.256 235.846 239.256 235.424V229.119ZM243.973 230.66V237H242.883V230.66H243.973ZM242.801 228.979C242.801 228.803 242.854 228.654 242.959 228.533C243.068 228.412 243.229 228.352 243.439 228.352C243.646 228.352 243.805 228.412 243.914 228.533C244.027 228.654 244.084 228.803 244.084 228.979C244.084 229.146 244.027 229.291 243.914 229.412C243.805 229.529 243.646 229.588 243.439 229.588C243.229 229.588 243.068 229.529 242.959 229.412C242.854 229.291 242.801 229.146 242.801 228.979ZM248.367 230.66V231.492H244.939V230.66H248.367ZM246.1 229.119H247.184V235.43C247.184 235.645 247.217 235.807 247.283 235.916C247.35 236.025 247.436 236.098 247.541 236.133C247.646 236.168 247.76 236.186 247.881 236.186C247.971 236.186 248.064 236.178 248.162 236.162C248.264 236.143 248.34 236.127 248.391 236.115L248.396 237C248.311 237.027 248.197 237.053 248.057 237.076C247.92 237.104 247.754 237.117 247.559 237.117C247.293 237.117 247.049 237.064 246.826 236.959C246.604 236.854 246.426 236.678 246.293 236.432C246.164 236.182 246.1 235.846 246.1 235.424V229.119ZM251.42 236.344L253.184 230.66H254.344L251.801 237.979C251.742 238.135 251.664 238.303 251.566 238.482C251.473 238.666 251.352 238.84 251.203 239.004C251.055 239.168 250.875 239.301 250.664 239.402C250.457 239.508 250.209 239.561 249.92 239.561C249.834 239.561 249.725 239.549 249.592 239.525C249.459 239.502 249.365 239.482 249.311 239.467L249.305 238.588C249.336 238.592 249.385 238.596 249.451 238.6C249.521 238.607 249.57 238.611 249.598 238.611C249.844 238.611 250.053 238.578 250.225 238.512C250.396 238.449 250.541 238.342 250.658 238.189C250.779 238.041 250.883 237.836 250.969 237.574L251.42 236.344ZM250.125 230.66L251.771 235.582L252.053 236.725L251.273 237.123L248.941 230.66H250.125Z" fill="black"/>
<path d="M79.239 167C79.239 167 94.529 197.907 124.029 176.907C153.529 155.907 207.5 55.4998 207.5 55.4998" stroke="black" stroke-width="2"/>
<path d="M210.348 40.4688H211.443L214.238 47.4238L217.027 40.4688H218.129L214.66 49H213.805L210.348 40.4688ZM209.99 40.4688H210.957L211.115 45.6719V49H209.99V40.4688ZM217.514 40.4688H218.48V49H217.355V45.6719L217.514 40.4688ZM225.617 46.2871H226.742C226.684 46.8262 226.529 47.3086 226.279 47.7344C226.029 48.1602 225.676 48.498 225.219 48.748C224.762 48.9941 224.191 49.1172 223.508 49.1172C223.008 49.1172 222.553 49.0234 222.143 48.8359C221.736 48.6484 221.387 48.3828 221.094 48.0391C220.801 47.6914 220.574 47.2754 220.414 46.791C220.258 46.3027 220.18 45.7598 220.18 45.1621V44.3125C220.18 43.7148 220.258 43.1738 220.414 42.6895C220.574 42.2012 220.803 41.7832 221.1 41.4355C221.4 41.0879 221.762 40.8203 222.184 40.6328C222.605 40.4453 223.08 40.3516 223.607 40.3516C224.252 40.3516 224.797 40.4727 225.242 40.7148C225.688 40.957 226.033 41.293 226.279 41.7227C226.529 42.1484 226.684 42.6426 226.742 43.2051H225.617C225.562 42.8066 225.461 42.4648 225.312 42.1797C225.164 41.8906 224.953 41.668 224.68 41.5117C224.406 41.3555 224.049 41.2773 223.607 41.2773C223.229 41.2773 222.895 41.3496 222.605 41.4941C222.32 41.6387 222.08 41.8438 221.885 42.1094C221.693 42.375 221.549 42.6934 221.451 43.0645C221.354 43.4355 221.305 43.8477 221.305 44.3008V45.1621C221.305 45.5801 221.348 45.9727 221.434 46.3398C221.523 46.707 221.658 47.0293 221.838 47.3066C222.018 47.584 222.246 47.8027 222.523 47.9629C222.801 48.1191 223.129 48.1973 223.508 48.1973C223.988 48.1973 224.371 48.1211 224.656 47.9688C224.941 47.8164 225.156 47.5977 225.301 47.3125C225.449 47.0273 225.555 46.6855 225.617 46.2871Z" fill="black"/>
<path d="M265.148 55.2246L262.324 63H261.17L264.422 54.4688H265.166L265.148 55.2246ZM267.516 63L264.686 55.2246L264.668 54.4688H265.412L268.676 63H267.516ZM267.369 59.8418V60.7676H262.576V59.8418H267.369ZM272.209 54.4688V63H271.096V54.4688H272.209ZM274.951 54.4688V55.3945H268.359V54.4688H274.951ZM281.203 60.2871H282.328C282.27 60.8262 282.115 61.3086 281.865 61.7344C281.615 62.1602 281.262 62.498 280.805 62.748C280.348 62.9941 279.777 63.1172 279.094 63.1172C278.594 63.1172 278.139 63.0234 277.729 62.8359C277.322 62.6484 276.973 62.3828 276.68 62.0391C276.387 61.6914 276.16 61.2754 276 60.791C275.844 60.3027 275.766 59.7598 275.766 59.1621V58.3125C275.766 57.7148 275.844 57.1738 276 56.6895C276.16 56.2012 276.389 55.7832 276.686 55.4355C276.986 55.0879 277.348 54.8203 277.77 54.6328C278.191 54.4453 278.666 54.3516 279.193 54.3516C279.838 54.3516 280.383 54.4727 280.828 54.7148C281.273 54.957 281.619 55.293 281.865 55.7227C282.115 56.1484 282.27 56.6426 282.328 57.2051H281.203C281.148 56.8066 281.047 56.4648 280.898 56.1797C280.75 55.8906 280.539 55.668 280.266 55.5117C279.992 55.3555 279.635 55.2773 279.193 55.2773C278.814 55.2773 278.48 55.3496 278.191 55.4941C277.906 55.6387 277.666 55.8438 277.471 56.1094C277.279 56.375 277.135 56.6934 277.037 57.0645C276.939 57.4355 276.891 57.8477 276.891 58.3008V59.1621C276.891 59.5801 276.934 59.9727 277.02 60.3398C277.109 60.707 277.244 61.0293 277.424 61.3066C277.604 61.584 277.832 61.8027 278.109 61.9629C278.387 62.1191 278.715 62.1973 279.094 62.1973C279.574 62.1973 279.957 62.1211 280.242 61.9688C280.527 61.8164 280.742 61.5977 280.887 61.3125C281.035 61.0273 281.141 60.6855 281.203 60.2871Z" fill="black"/>
<path d="M266.148 89.2246L263.324 97H262.17L265.422 88.4688H266.166L266.148 89.2246ZM268.516 97L265.686 89.2246L265.668 88.4688H266.412L269.676 97H268.516ZM268.369 93.8418V94.7676H263.576V93.8418H268.369ZM273.057 95.7051L275.57 88.4688H276.795L273.637 97H272.764L273.057 95.7051ZM270.707 88.4688L273.197 95.7051L273.508 97H272.635L269.482 88.4688H270.707ZM283.012 94.2871H284.137C284.078 94.8262 283.924 95.3086 283.674 95.7344C283.424 96.1602 283.07 96.498 282.613 96.748C282.156 96.9941 281.586 97.1172 280.902 97.1172C280.402 97.1172 279.947 97.0234 279.537 96.8359C279.131 96.6484 278.781 96.3828 278.488 96.0391C278.195 95.6914 277.969 95.2754 277.809 94.791C277.652 94.3027 277.574 93.7598 277.574 93.1621V92.3125C277.574 91.7148 277.652 91.1738 277.809 90.6895C277.969 90.2012 278.197 89.7832 278.494 89.4355C278.795 89.0879 279.156 88.8203 279.578 88.6328C280 88.4453 280.475 88.3516 281.002 88.3516C281.646 88.3516 282.191 88.4727 282.637 88.7148C283.082 88.957 283.428 89.293 283.674 89.7227C283.924 90.1484 284.078 90.6426 284.137 91.2051H283.012C282.957 90.8066 282.855 90.4648 282.707 90.1797C282.559 89.8906 282.348 89.668 282.074 89.5117C281.801 89.3555 281.443 89.2773 281.002 89.2773C280.623 89.2773 280.289 89.3496 280 89.4941C279.715 89.6387 279.475 89.8438 279.279 90.1094C279.088 90.375 278.943 90.6934 278.846 91.0645C278.748 91.4355 278.699 91.8477 278.699 92.3008V93.1621C278.699 93.5801 278.742 93.9727 278.828 94.3398C278.918 94.707 279.053 95.0293 279.232 95.3066C279.412 95.584 279.641 95.8027 279.918 95.9629C280.195 96.1191 280.523 96.1973 280.902 96.1973C281.383 96.1973 281.766 96.1211 282.051 95.9688C282.336 95.8164 282.551 95.5977 282.695 95.3125C282.844 95.0273 282.949 94.6855 283.012 94.2871Z" fill="black"/>
<path d="M83 105C83 105 93 143.5 132 156.5C171 169.5 242.927 103.476 255.5 92" stroke="black" stroke-width="2"/>
<path d="M94 52C94 52 116 111 155 124C194 137 240.927 78.4759 253.5 67" stroke="black" stroke-width="2"/>
<line x1="190.5" y1="216" x2="190.5" y2="84" stroke="black" stroke-dasharray="4 4"/>
<line x1="224.5" y1="216" x2="224.5" y2="95" stroke="black" stroke-dasharray="4 4"/>
<line x1="164.5" y1="216" x2="164.5" y2="125" stroke="black" stroke-dasharray="4 4"/>
<line x1="142.2" y1="216" x2="142.2" y2="158" stroke="black" stroke-dasharray="4 4"/>
<line x1="104" y1="216" x2="104" y2="181" stroke="black" stroke-dasharray="4 4"/>
<circle cx="104" cy="184" r="3" fill="black"/>
<circle cx="142" cy="158" r="3" fill="black"/>
<circle cx="165" cy="126" r="3" fill="black"/>
<circle cx="190" cy="85" r="3" fill="black"/>
<circle cx="225" cy="95" r="3" fill="black"/>
<path d="M103.376 169.786V170.929H99.665V169.786H103.376ZM100.1 166.891V174H98.6348V166.891H100.1ZM104.421 166.891V174H102.961V166.891H104.421Z" fill="black"/>
<path d="M147.192 164.891V172H145.732V164.891H147.192Z" fill="black"/>
<path d="M170.511 138.817V133.891H171.971V138.817C171.971 139.293 171.867 139.701 171.658 140.043C171.45 140.382 171.165 140.642 170.804 140.824C170.446 141.007 170.042 141.098 169.593 141.098C169.127 141.098 168.715 141.02 168.357 140.863C167.999 140.707 167.718 140.468 167.513 140.146C167.308 139.82 167.205 139.408 167.205 138.91H168.675C168.675 139.171 168.711 139.377 168.782 139.53C168.857 139.683 168.963 139.792 169.1 139.857C169.236 139.923 169.401 139.955 169.593 139.955C169.778 139.955 169.939 139.911 170.076 139.823C170.213 139.735 170.319 139.607 170.394 139.438C170.472 139.268 170.511 139.062 170.511 138.817Z" fill="black"/>
<path d="M204.1 73.8906V81H202.635V73.8906H204.1ZM208.357 73.8906L205.54 77.4014L203.914 79.1494L203.65 77.7627L204.749 76.2588L206.561 73.8906H208.357ZM206.692 81L204.598 77.7139L205.682 76.8057L208.426 81H206.692Z" fill="black"/>
<path d="M239.205 96.8574V98H235.626V96.8574H239.205ZM236.1 90.8906V98H234.635V90.8906H236.1Z" fill="black"/>
</svg>
