<svg width="279" height="251" viewBox="0 0 279 251" fill="none" xmlns="http://www.w3.org/2000/svg">
<rect width="279" height="251" fill="white"/>
<line x1="57.5" y1="29" x2="57.5" y2="219" stroke="black" stroke-width="3"/>
<line x1="56.0085" y1="217.5" x2="246.005" y2="218.573" stroke="black" stroke-width="3"/>
<line x1="141" y1="219" x2="141" y2="29" stroke="black" stroke-width="2"/>
<line x1="72.7071" y1="67.2929" x2="214.128" y2="208.714" stroke="black" stroke-width="2"/>
<line x1="98.7071" y1="45.2929" x2="240.128" y2="186.714" stroke="black" stroke-width="2"/>
<line x1="76.2929" y1="199.714" x2="217.714" y2="58.2929" stroke="black" stroke-width="2"/>
<line x1="60.2929" y1="168.714" x2="191.293" y2="37.7143" stroke="black" stroke-width="2"/>
<path d="M17.1367 35.6543H14.8574V34.7344H17.1367C17.5781 34.7344 17.9355 34.6641 18.209 34.5234C18.4824 34.3828 18.6816 34.1875 18.8066 33.9375C18.9355 33.6875 19 33.4023 19 33.082C19 32.7891 18.9355 32.5137 18.8066 32.2559C18.6816 31.998 18.4824 31.791 18.209 31.6348C17.9355 31.4746 17.5781 31.3945 17.1367 31.3945H15.1211V39H13.9902V30.4688H17.1367C17.7812 30.4688 18.3262 30.5801 18.7715 30.8027C19.2168 31.0254 19.5547 31.334 19.7852 31.7285C20.0156 32.1191 20.1309 32.5664 20.1309 33.0703C20.1309 33.6172 20.0156 34.084 19.7852 34.4707C19.5547 34.8574 19.2168 35.1523 18.7715 35.3555C18.3262 35.5547 17.7812 35.6543 17.1367 35.6543ZM22.4805 33.6562V39H21.3965V32.6602H22.4512L22.4805 33.6562ZM24.4609 32.625L24.4551 33.6328C24.3652 33.6133 24.2793 33.6016 24.1973 33.5977C24.1191 33.5898 24.0293 33.5859 23.9277 33.5859C23.6777 33.5859 23.457 33.625 23.2656 33.7031C23.0742 33.7812 22.9121 33.8906 22.7793 34.0312C22.6465 34.1719 22.541 34.3398 22.4629 34.5352C22.3887 34.7266 22.3398 34.9375 22.3164 35.168L22.0117 35.3438C22.0117 34.9609 22.0488 34.6016 22.123 34.2656C22.2012 33.9297 22.3203 33.6328 22.4805 33.375C22.6406 33.1133 22.8438 32.9102 23.0898 32.7656C23.3398 32.6172 23.6367 32.543 23.9805 32.543C24.0586 32.543 24.1484 32.5527 24.25 32.5723C24.3516 32.5879 24.4219 32.6055 24.4609 32.625ZM26.6406 32.6602V39H25.5508V32.6602H26.6406ZM25.4688 30.9785C25.4688 30.8027 25.5215 30.6543 25.627 30.5332C25.7363 30.4121 25.8965 30.3516 26.1074 30.3516C26.3145 30.3516 26.4727 30.4121 26.582 30.5332C26.6953 30.6543 26.752 30.8027 26.752 30.9785C26.752 31.1465 26.6953 31.291 26.582 31.4121C26.4727 31.5293 26.3145 31.5879 26.1074 31.5879C25.8965 31.5879 25.7363 31.5293 25.627 31.4121C25.5215 31.291 25.4688 31.1465 25.4688 30.9785ZM30.918 38.2266C31.1758 38.2266 31.4141 38.1738 31.6328 38.0684C31.8516 37.9629 32.0312 37.8184 32.1719 37.6348C32.3125 37.4473 32.3926 37.2344 32.4121 36.9961H33.4434C33.4238 37.3711 33.2969 37.7207 33.0625 38.0449C32.832 38.3652 32.5293 38.625 32.1543 38.8242C31.7793 39.0195 31.3672 39.1172 30.918 39.1172C30.4414 39.1172 30.0254 39.0332 29.6699 38.8652C29.3184 38.6973 29.0254 38.4668 28.791 38.1738C28.5605 37.8809 28.3867 37.5449 28.2695 37.166C28.1562 36.7832 28.0996 36.3789 28.0996 35.9531V35.707C28.0996 35.2812 28.1562 34.8789 28.2695 34.5C28.3867 34.1172 28.5605 33.7793 28.791 33.4863C29.0254 33.1934 29.3184 32.9629 29.6699 32.7949C30.0254 32.627 30.4414 32.543 30.918 32.543C31.4141 32.543 31.8477 32.6445 32.2188 32.8477C32.5898 33.0469 32.8809 33.3203 33.0918 33.668C33.3066 34.0117 33.4238 34.4023 33.4434 34.8398H32.4121C32.3926 34.5781 32.3184 34.3418 32.1895 34.1309C32.0645 33.9199 31.8926 33.752 31.6738 33.627C31.459 33.498 31.207 33.4336 30.918 33.4336C30.5859 33.4336 30.3066 33.5 30.0801 33.6328C29.8574 33.7617 29.6797 33.9375 29.5469 34.1602C29.418 34.3789 29.3242 34.623 29.2656 34.8926C29.2109 35.1582 29.1836 35.4297 29.1836 35.707V35.9531C29.1836 36.2305 29.2109 36.5039 29.2656 36.7734C29.3203 37.043 29.4121 37.2871 29.541 37.5059C29.6738 37.7246 29.8516 37.9004 30.0742 38.0332C30.3008 38.1621 30.582 38.2266 30.918 38.2266ZM37.293 39.1172C36.8516 39.1172 36.4512 39.043 36.0918 38.8945C35.7363 38.7422 35.4297 38.5293 35.1719 38.2559C34.918 37.9824 34.7227 37.6582 34.5859 37.2832C34.4492 36.9082 34.3809 36.498 34.3809 36.0527V35.8066C34.3809 35.291 34.457 34.832 34.6094 34.4297C34.7617 34.0234 34.9688 33.6797 35.2305 33.3984C35.4922 33.1172 35.7891 32.9043 36.1211 32.7598C36.4531 32.6152 36.7969 32.543 37.1523 32.543C37.6055 32.543 37.9961 32.6211 38.3242 32.7773C38.6562 32.9336 38.9277 33.1523 39.1387 33.4336C39.3496 33.7109 39.5059 34.0391 39.6074 34.418C39.709 34.793 39.7598 35.2031 39.7598 35.6484V36.1348H35.0254V35.25H38.6758V35.168C38.6602 34.8867 38.6016 34.6133 38.5 34.3477C38.4023 34.082 38.2461 33.8633 38.0312 33.6914C37.8164 33.5195 37.5234 33.4336 37.1523 33.4336C36.9062 33.4336 36.6797 33.4863 36.4727 33.5918C36.2656 33.6934 36.0879 33.8457 35.9395 34.0488C35.791 34.252 35.6758 34.5 35.5938 34.793C35.5117 35.0859 35.4707 35.4238 35.4707 35.8066V36.0527C35.4707 36.3535 35.5117 36.6367 35.5938 36.9023C35.6797 37.1641 35.8027 37.3945 35.9629 37.5938C36.127 37.793 36.3242 37.9492 36.5547 38.0625C36.7891 38.1758 37.0547 38.2324 37.3516 38.2324C37.7344 38.2324 38.0586 38.1543 38.3242 37.998C38.5898 37.8418 38.8223 37.6328 39.0215 37.3711L39.6777 37.8926C39.541 38.0996 39.3672 38.2969 39.1562 38.4844C38.9453 38.6719 38.6855 38.8242 38.377 38.9414C38.0723 39.0586 37.7109 39.1172 37.293 39.1172ZM19.1641 52.0801V53H14.8984V52.0801H19.1641ZM15.1211 44.4688V53H13.9902V44.4688H15.1211ZM22.9258 53.1172C22.4844 53.1172 22.084 53.043 21.7246 52.8945C21.3691 52.7422 21.0625 52.5293 20.8047 52.2559C20.5508 51.9824 20.3555 51.6582 20.2188 51.2832C20.082 50.9082 20.0137 50.498 20.0137 50.0527V49.8066C20.0137 49.291 20.0898 48.832 20.2422 48.4297C20.3945 48.0234 20.6016 47.6797 20.8633 47.3984C21.125 47.1172 21.4219 46.9043 21.7539 46.7598C22.0859 46.6152 22.4297 46.543 22.7852 46.543C23.2383 46.543 23.6289 46.6211 23.957 46.7773C24.2891 46.9336 24.5605 47.1523 24.7715 47.4336C24.9824 47.7109 25.1387 48.0391 25.2402 48.418C25.3418 48.793 25.3926 49.2031 25.3926 49.6484V50.1348H20.6582V49.25H24.3086V49.168C24.293 48.8867 24.2344 48.6133 24.1328 48.3477C24.0352 48.082 23.8789 47.8633 23.6641 47.6914C23.4492 47.5195 23.1562 47.4336 22.7852 47.4336C22.5391 47.4336 22.3125 47.4863 22.1055 47.5918C21.8984 47.6934 21.7207 47.8457 21.5723 48.0488C21.4238 48.252 21.3086 48.5 21.2266 48.793C21.1445 49.0859 21.1035 49.4238 21.1035 49.8066V50.0527C21.1035 50.3535 21.1445 50.6367 21.2266 50.9023C21.3125 51.1641 21.4355 51.3945 21.5957 51.5938C21.7598 51.793 21.957 51.9492 22.1875 52.0625C22.4219 52.1758 22.6875 52.2324 22.9844 52.2324C23.3672 52.2324 23.6914 52.1543 23.957 51.998C24.2227 51.8418 24.4551 51.6328 24.6543 51.3711L25.3105 51.8926C25.1738 52.0996 25 52.2969 24.7891 52.4844C24.5781 52.6719 24.3184 52.8242 24.0098 52.9414C23.7051 53.0586 23.3438 53.1172 22.9258 53.1172ZM28.5039 52.0215L30.2383 46.6602H31.3457L29.0664 53H28.3398L28.5039 52.0215ZM27.0566 46.6602L28.8438 52.0508L28.9668 53H28.2402L25.9434 46.6602H27.0566ZM34.9375 53.1172C34.4961 53.1172 34.0957 53.043 33.7363 52.8945C33.3809 52.7422 33.0742 52.5293 32.8164 52.2559C32.5625 51.9824 32.3672 51.6582 32.2305 51.2832C32.0938 50.9082 32.0254 50.498 32.0254 50.0527V49.8066C32.0254 49.291 32.1016 48.832 32.2539 48.4297C32.4062 48.0234 32.6133 47.6797 32.875 47.3984C33.1367 47.1172 33.4336 46.9043 33.7656 46.7598C34.0977 46.6152 34.4414 46.543 34.7969 46.543C35.25 46.543 35.6406 46.6211 35.9688 46.7773C36.3008 46.9336 36.5723 47.1523 36.7832 47.4336C36.9941 47.7109 37.1504 48.0391 37.252 48.418C37.3535 48.793 37.4043 49.2031 37.4043 49.6484V50.1348H32.6699V49.25H36.3203V49.168C36.3047 48.8867 36.2461 48.6133 36.1445 48.3477C36.0469 48.082 35.8906 47.8633 35.6758 47.6914C35.4609 47.5195 35.168 47.4336 34.7969 47.4336C34.5508 47.4336 34.3242 47.4863 34.1172 47.5918C33.9102 47.6934 33.7324 47.8457 33.584 48.0488C33.4355 48.252 33.3203 48.5 33.2383 48.793C33.1562 49.0859 33.1152 49.4238 33.1152 49.8066V50.0527C33.1152 50.3535 33.1562 50.6367 33.2383 50.9023C33.3242 51.1641 33.4473 51.3945 33.6074 51.5938C33.7715 51.793 33.9688 51.9492 34.1992 52.0625C34.4336 52.1758 34.6992 52.2324 34.9961 52.2324C35.3789 52.2324 35.7031 52.1543 35.9688 51.998C36.2344 51.8418 36.4668 51.6328 36.666 51.3711L37.3223 51.8926C37.1855 52.0996 37.0117 52.2969 36.8008 52.4844C36.5898 52.6719 36.3301 52.8242 36.0215 52.9414C35.7168 53.0586 35.3555 53.1172 34.9375 53.1172ZM39.8477 44V53H38.7578V44H39.8477Z" fill="black"/>
<path d="M215.99 232.469H218.814C219.455 232.469 219.996 232.566 220.438 232.762C220.883 232.957 221.221 233.246 221.451 233.629C221.686 234.008 221.803 234.475 221.803 235.029C221.803 235.42 221.723 235.777 221.562 236.102C221.406 236.422 221.18 236.695 220.883 236.922C220.59 237.145 220.238 237.311 219.828 237.42L219.512 237.543H216.857L216.846 236.623H218.85C219.256 236.623 219.594 236.553 219.863 236.412C220.133 236.268 220.336 236.074 220.473 235.832C220.609 235.59 220.678 235.322 220.678 235.029C220.678 234.701 220.613 234.414 220.484 234.168C220.355 233.922 220.152 233.732 219.875 233.6C219.602 233.463 219.248 233.395 218.814 233.395H217.121V241H215.99V232.469ZM220.977 241L218.902 237.133L220.08 237.127L222.184 240.93V241H220.977ZM229.689 236.752V239.875C229.584 240.031 229.416 240.207 229.186 240.402C228.955 240.594 228.637 240.762 228.23 240.906C227.828 241.047 227.309 241.117 226.672 241.117C226.152 241.117 225.674 241.027 225.236 240.848C224.803 240.664 224.426 240.398 224.105 240.051C223.789 239.699 223.543 239.273 223.367 238.773C223.195 238.27 223.109 237.699 223.109 237.062V236.4C223.109 235.764 223.184 235.195 223.332 234.695C223.484 234.195 223.707 233.771 224 233.424C224.293 233.072 224.652 232.807 225.078 232.627C225.504 232.443 225.992 232.352 226.543 232.352C227.195 232.352 227.74 232.465 228.178 232.691C228.619 232.914 228.963 233.223 229.209 233.617C229.459 234.012 229.619 234.461 229.689 234.965H228.559C228.508 234.656 228.406 234.375 228.254 234.121C228.105 233.867 227.893 233.664 227.615 233.512C227.338 233.355 226.98 233.277 226.543 233.277C226.148 233.277 225.807 233.35 225.518 233.494C225.229 233.639 224.99 233.846 224.803 234.115C224.615 234.385 224.475 234.711 224.381 235.094C224.291 235.477 224.246 235.908 224.246 236.389V237.062C224.246 237.555 224.303 237.994 224.416 238.381C224.533 238.768 224.699 239.098 224.914 239.371C225.129 239.641 225.385 239.846 225.682 239.986C225.982 240.127 226.314 240.197 226.678 240.197C227.08 240.197 227.406 240.164 227.656 240.098C227.906 240.027 228.102 239.945 228.242 239.852C228.383 239.754 228.49 239.662 228.564 239.576V237.666H226.59V236.752H229.689ZM233.873 241H232.092L232.104 240.08H233.873C234.482 240.08 234.99 239.953 235.396 239.699C235.803 239.441 236.107 239.082 236.311 238.621C236.518 238.156 236.621 237.613 236.621 236.992V236.471C236.621 235.982 236.562 235.549 236.445 235.17C236.328 234.787 236.156 234.465 235.93 234.203C235.703 233.938 235.426 233.736 235.098 233.6C234.773 233.463 234.4 233.395 233.979 233.395H232.057V232.469H233.979C234.537 232.469 235.047 232.562 235.508 232.75C235.969 232.934 236.365 233.201 236.697 233.553C237.033 233.9 237.291 234.322 237.471 234.818C237.65 235.311 237.74 235.865 237.74 236.482V236.992C237.74 237.609 237.65 238.166 237.471 238.662C237.291 239.154 237.031 239.574 236.691 239.922C236.355 240.27 235.949 240.537 235.473 240.725C235 240.908 234.467 241 233.873 241ZM232.695 232.469V241H231.564V232.469H232.695ZM242.586 237.654H240.307V236.734H242.586C243.027 236.734 243.385 236.664 243.658 236.523C243.932 236.383 244.131 236.188 244.256 235.938C244.385 235.688 244.449 235.402 244.449 235.082C244.449 234.789 244.385 234.514 244.256 234.256C244.131 233.998 243.932 233.791 243.658 233.635C243.385 233.475 243.027 233.395 242.586 233.395H240.57V241H239.439V232.469H242.586C243.23 232.469 243.775 232.58 244.221 232.803C244.666 233.025 245.004 233.334 245.234 233.729C245.465 234.119 245.58 234.566 245.58 235.07C245.58 235.617 245.465 236.084 245.234 236.471C245.004 236.857 244.666 237.152 244.221 237.355C243.775 237.555 243.23 237.654 242.586 237.654Z" fill="black"/>
<path d="M231.537 54.8438C231.537 54.6445 231.506 54.4688 231.443 54.3164C231.385 54.1602 231.279 54.0195 231.127 53.8945C230.979 53.7695 230.771 53.6504 230.506 53.5371C230.244 53.4238 229.912 53.3086 229.51 53.1914C229.088 53.0664 228.707 52.9277 228.367 52.7754C228.027 52.6191 227.736 52.4414 227.494 52.2422C227.252 52.043 227.066 51.8145 226.938 51.5566C226.809 51.2988 226.744 51.0039 226.744 50.6719C226.744 50.3398 226.812 50.0332 226.949 49.752C227.086 49.4707 227.281 49.2266 227.535 49.0195C227.793 48.8086 228.1 48.6445 228.455 48.5273C228.811 48.4102 229.207 48.3516 229.645 48.3516C230.285 48.3516 230.828 48.4746 231.273 48.7207C231.723 48.9629 232.064 49.2812 232.299 49.6758C232.533 50.0664 232.65 50.4844 232.65 50.9297H231.525C231.525 50.6094 231.457 50.3262 231.32 50.0801C231.184 49.8301 230.977 49.6348 230.699 49.4941C230.422 49.3496 230.07 49.2773 229.645 49.2773C229.242 49.2773 228.91 49.3379 228.648 49.459C228.387 49.5801 228.191 49.7441 228.062 49.9512C227.938 50.1582 227.875 50.3945 227.875 50.6602C227.875 50.8398 227.912 51.0039 227.986 51.1523C228.064 51.2969 228.184 51.4316 228.344 51.5566C228.508 51.6816 228.715 51.7969 228.965 51.9023C229.219 52.0078 229.521 52.1094 229.873 52.207C230.357 52.3438 230.775 52.4961 231.127 52.6641C231.479 52.832 231.768 53.0215 231.994 53.2324C232.225 53.4395 232.395 53.6758 232.504 53.9414C232.617 54.2031 232.674 54.5 232.674 54.832C232.674 55.1797 232.604 55.4941 232.463 55.7754C232.322 56.0566 232.121 56.2969 231.859 56.4961C231.598 56.6953 231.283 56.8496 230.916 56.959C230.553 57.0645 230.146 57.1172 229.697 57.1172C229.303 57.1172 228.914 57.0625 228.531 56.9531C228.152 56.8438 227.807 56.6797 227.494 56.4609C227.186 56.2422 226.938 55.9727 226.75 55.6523C226.566 55.3281 226.475 54.9531 226.475 54.5273H227.6C227.6 54.8203 227.656 55.0723 227.77 55.2832C227.883 55.4902 228.037 55.6621 228.232 55.7988C228.432 55.9355 228.656 56.0371 228.906 56.1035C229.16 56.166 229.424 56.1973 229.697 56.1973C230.092 56.1973 230.426 56.1426 230.699 56.0332C230.973 55.9238 231.18 55.7676 231.32 55.5645C231.465 55.3613 231.537 55.1211 231.537 54.8438ZM234.115 48.4688H236.939C237.58 48.4688 238.121 48.5664 238.562 48.7617C239.008 48.957 239.346 49.2461 239.576 49.6289C239.811 50.0078 239.928 50.4746 239.928 51.0293C239.928 51.4199 239.848 51.7773 239.688 52.1016C239.531 52.4219 239.305 52.6953 239.008 52.9219C238.715 53.1445 238.363 53.3105 237.953 53.4199L237.637 53.543H234.982L234.971 52.623H236.975C237.381 52.623 237.719 52.5527 237.988 52.4121C238.258 52.2676 238.461 52.0742 238.598 51.832C238.734 51.5898 238.803 51.3223 238.803 51.0293C238.803 50.7012 238.738 50.4141 238.609 50.168C238.48 49.9219 238.277 49.7324 238 49.5996C237.727 49.4629 237.373 49.3945 236.939 49.3945H235.246V57H234.115V48.4688ZM239.102 57L237.027 53.1328L238.205 53.127L240.309 56.9297V57H239.102ZM244.668 49.2246L241.844 57H240.689L243.941 48.4688H244.686L244.668 49.2246ZM247.035 57L244.205 49.2246L244.188 48.4688H244.932L248.195 57H247.035ZM246.889 53.8418V54.7676H242.096V53.8418H246.889ZM253.885 54.8438C253.885 54.6445 253.854 54.4688 253.791 54.3164C253.732 54.1602 253.627 54.0195 253.475 53.8945C253.326 53.7695 253.119 53.6504 252.854 53.5371C252.592 53.4238 252.26 53.3086 251.857 53.1914C251.436 53.0664 251.055 52.9277 250.715 52.7754C250.375 52.6191 250.084 52.4414 249.842 52.2422C249.6 52.043 249.414 51.8145 249.285 51.5566C249.156 51.2988 249.092 51.0039 249.092 50.6719C249.092 50.3398 249.16 50.0332 249.297 49.752C249.434 49.4707 249.629 49.2266 249.883 49.0195C250.141 48.8086 250.447 48.6445 250.803 48.5273C251.158 48.4102 251.555 48.3516 251.992 48.3516C252.633 48.3516 253.176 48.4746 253.621 48.7207C254.07 48.9629 254.412 49.2812 254.646 49.6758C254.881 50.0664 254.998 50.4844 254.998 50.9297H253.873C253.873 50.6094 253.805 50.3262 253.668 50.0801C253.531 49.8301 253.324 49.6348 253.047 49.4941C252.77 49.3496 252.418 49.2773 251.992 49.2773C251.59 49.2773 251.258 49.3379 250.996 49.459C250.734 49.5801 250.539 49.7441 250.41 49.9512C250.285 50.1582 250.223 50.3945 250.223 50.6602C250.223 50.8398 250.26 51.0039 250.334 51.1523C250.412 51.2969 250.531 51.4316 250.691 51.5566C250.855 51.6816 251.062 51.7969 251.312 51.9023C251.566 52.0078 251.869 52.1094 252.221 52.207C252.705 52.3438 253.123 52.4961 253.475 52.6641C253.826 52.832 254.115 53.0215 254.342 53.2324C254.572 53.4395 254.742 53.6758 254.852 53.9414C254.965 54.2031 255.021 54.5 255.021 54.832C255.021 55.1797 254.951 55.4941 254.811 55.7754C254.67 56.0566 254.469 56.2969 254.207 56.4961C253.945 56.6953 253.631 56.8496 253.264 56.959C252.9 57.0645 252.494 57.1172 252.045 57.1172C251.65 57.1172 251.262 57.0625 250.879 56.9531C250.5 56.8438 250.154 56.6797 249.842 56.4609C249.533 56.2422 249.285 55.9727 249.098 55.6523C248.914 55.3281 248.822 54.9531 248.822 54.5273H249.947C249.947 54.8203 250.004 55.0723 250.117 55.2832C250.23 55.4902 250.385 55.6621 250.58 55.7988C250.779 55.9355 251.004 56.0371 251.254 56.1035C251.508 56.166 251.771 56.1973 252.045 56.1973C252.439 56.1973 252.773 56.1426 253.047 56.0332C253.32 55.9238 253.527 55.7676 253.668 55.5645C253.812 55.3613 253.885 55.1211 253.885 54.8438ZM257.964 51.9961V57H257.332V52.7856L256.057 53.2505V52.6797L257.865 51.9961H257.964Z" fill="black"/>
<path d="M202.537 32.8438C202.537 32.6445 202.506 32.4688 202.443 32.3164C202.385 32.1602 202.279 32.0195 202.127 31.8945C201.979 31.7695 201.771 31.6504 201.506 31.5371C201.244 31.4238 200.912 31.3086 200.51 31.1914C200.088 31.0664 199.707 30.9277 199.367 30.7754C199.027 30.6191 198.736 30.4414 198.494 30.2422C198.252 30.043 198.066 29.8145 197.938 29.5566C197.809 29.2988 197.744 29.0039 197.744 28.6719C197.744 28.3398 197.812 28.0332 197.949 27.752C198.086 27.4707 198.281 27.2266 198.535 27.0195C198.793 26.8086 199.1 26.6445 199.455 26.5273C199.811 26.4102 200.207 26.3516 200.645 26.3516C201.285 26.3516 201.828 26.4746 202.273 26.7207C202.723 26.9629 203.064 27.2812 203.299 27.6758C203.533 28.0664 203.65 28.4844 203.65 28.9297H202.525C202.525 28.6094 202.457 28.3262 202.32 28.0801C202.184 27.8301 201.977 27.6348 201.699 27.4941C201.422 27.3496 201.07 27.2773 200.645 27.2773C200.242 27.2773 199.91 27.3379 199.648 27.459C199.387 27.5801 199.191 27.7441 199.062 27.9512C198.938 28.1582 198.875 28.3945 198.875 28.6602C198.875 28.8398 198.912 29.0039 198.986 29.1523C199.064 29.2969 199.184 29.4316 199.344 29.5566C199.508 29.6816 199.715 29.7969 199.965 29.9023C200.219 30.0078 200.521 30.1094 200.873 30.207C201.357 30.3438 201.775 30.4961 202.127 30.6641C202.479 30.832 202.768 31.0215 202.994 31.2324C203.225 31.4395 203.395 31.6758 203.504 31.9414C203.617 32.2031 203.674 32.5 203.674 32.832C203.674 33.1797 203.604 33.4941 203.463 33.7754C203.322 34.0566 203.121 34.2969 202.859 34.4961C202.598 34.6953 202.283 34.8496 201.916 34.959C201.553 35.0645 201.146 35.1172 200.697 35.1172C200.303 35.1172 199.914 35.0625 199.531 34.9531C199.152 34.8438 198.807 34.6797 198.494 34.4609C198.186 34.2422 197.938 33.9727 197.75 33.6523C197.566 33.3281 197.475 32.9531 197.475 32.5273H198.6C198.6 32.8203 198.656 33.0723 198.77 33.2832C198.883 33.4902 199.037 33.6621 199.232 33.7988C199.432 33.9355 199.656 34.0371 199.906 34.1035C200.16 34.166 200.424 34.1973 200.697 34.1973C201.092 34.1973 201.426 34.1426 201.699 34.0332C201.973 33.9238 202.18 33.7676 202.32 33.5645C202.465 33.3613 202.537 33.1211 202.537 32.8438ZM205.115 26.4688H207.939C208.58 26.4688 209.121 26.5664 209.562 26.7617C210.008 26.957 210.346 27.2461 210.576 27.6289C210.811 28.0078 210.928 28.4746 210.928 29.0293C210.928 29.4199 210.848 29.7773 210.688 30.1016C210.531 30.4219 210.305 30.6953 210.008 30.9219C209.715 31.1445 209.363 31.3105 208.953 31.4199L208.637 31.543H205.982L205.971 30.623H207.975C208.381 30.623 208.719 30.5527 208.988 30.4121C209.258 30.2676 209.461 30.0742 209.598 29.832C209.734 29.5898 209.803 29.3223 209.803 29.0293C209.803 28.7012 209.738 28.4141 209.609 28.168C209.48 27.9219 209.277 27.7324 209 27.5996C208.727 27.4629 208.373 27.3945 207.939 27.3945H206.246V35H205.115V26.4688ZM210.102 35L208.027 31.1328L209.205 31.127L211.309 34.9297V35H210.102ZM215.668 27.2246L212.844 35H211.689L214.941 26.4688H215.686L215.668 27.2246ZM218.035 35L215.205 27.2246L215.188 26.4688H215.932L219.195 35H218.035ZM217.889 31.8418V32.7676H213.096V31.8418H217.889ZM224.885 32.8438C224.885 32.6445 224.854 32.4688 224.791 32.3164C224.732 32.1602 224.627 32.0195 224.475 31.8945C224.326 31.7695 224.119 31.6504 223.854 31.5371C223.592 31.4238 223.26 31.3086 222.857 31.1914C222.436 31.0664 222.055 30.9277 221.715 30.7754C221.375 30.6191 221.084 30.4414 220.842 30.2422C220.6 30.043 220.414 29.8145 220.285 29.5566C220.156 29.2988 220.092 29.0039 220.092 28.6719C220.092 28.3398 220.16 28.0332 220.297 27.752C220.434 27.4707 220.629 27.2266 220.883 27.0195C221.141 26.8086 221.447 26.6445 221.803 26.5273C222.158 26.4102 222.555 26.3516 222.992 26.3516C223.633 26.3516 224.176 26.4746 224.621 26.7207C225.07 26.9629 225.412 27.2812 225.646 27.6758C225.881 28.0664 225.998 28.4844 225.998 28.9297H224.873C224.873 28.6094 224.805 28.3262 224.668 28.0801C224.531 27.8301 224.324 27.6348 224.047 27.4941C223.77 27.3496 223.418 27.2773 222.992 27.2773C222.59 27.2773 222.258 27.3379 221.996 27.459C221.734 27.5801 221.539 27.7441 221.41 27.9512C221.285 28.1582 221.223 28.3945 221.223 28.6602C221.223 28.8398 221.26 29.0039 221.334 29.1523C221.412 29.2969 221.531 29.4316 221.691 29.5566C221.855 29.6816 222.062 29.7969 222.312 29.9023C222.566 30.0078 222.869 30.1094 223.221 30.207C223.705 30.3438 224.123 30.4961 224.475 30.6641C224.826 30.832 225.115 31.0215 225.342 31.2324C225.572 31.4395 225.742 31.6758 225.852 31.9414C225.965 32.2031 226.021 32.5 226.021 32.832C226.021 33.1797 225.951 33.4941 225.811 33.7754C225.67 34.0566 225.469 34.2969 225.207 34.4961C224.945 34.6953 224.631 34.8496 224.264 34.959C223.9 35.0645 223.494 35.1172 223.045 35.1172C222.65 35.1172 222.262 35.0625 221.879 34.9531C221.5 34.8438 221.154 34.6797 220.842 34.4609C220.533 34.2422 220.285 33.9727 220.098 33.6523C219.914 33.3281 219.822 32.9531 219.822 32.5273H220.947C220.947 32.8203 221.004 33.0723 221.117 33.2832C221.23 33.4902 221.385 33.6621 221.58 33.7988C221.779 33.9355 222.004 34.0371 222.254 34.1035C222.508 34.166 222.771 34.1973 223.045 34.1973C223.439 34.1973 223.773 34.1426 224.047 34.0332C224.32 33.9238 224.527 33.7676 224.668 33.5645C224.812 33.3613 224.885 33.1211 224.885 32.8438ZM230.147 34.4805V35H226.89V34.5454L228.52 32.7305C228.721 32.5072 228.875 32.318 228.985 32.1631C229.097 32.0059 229.174 31.8657 229.217 31.7427C229.263 31.6174 229.286 31.4897 229.286 31.3599C229.286 31.1958 229.251 31.0477 229.183 30.9155C229.117 30.7811 229.019 30.674 228.889 30.5942C228.759 30.5145 228.602 30.4746 228.417 30.4746C228.196 30.4746 228.012 30.5179 227.864 30.6045C227.718 30.6888 227.609 30.8073 227.536 30.96C227.463 31.1126 227.426 31.2881 227.426 31.4863H226.794C226.794 31.2061 226.855 30.9497 226.979 30.7173C227.102 30.4849 227.284 30.3003 227.525 30.1636C227.767 30.0246 228.064 29.9551 228.417 29.9551C228.732 29.9551 229.001 30.0109 229.224 30.1226C229.447 30.2319 229.618 30.3869 229.737 30.5874C229.858 30.7856 229.918 31.0181 229.918 31.2847C229.918 31.4305 229.893 31.5786 229.843 31.729C229.795 31.8771 229.728 32.0252 229.641 32.1733C229.557 32.3215 229.458 32.4673 229.344 32.6108C229.232 32.7544 229.112 32.8957 228.985 33.0347L227.652 34.4805H230.147Z" fill="black"/>
<path d="M226.148 198.225L223.324 206H222.17L225.422 197.469H226.166L226.148 198.225ZM228.516 206L225.686 198.225L225.668 197.469H226.412L229.676 206H228.516ZM228.369 202.842V203.768H223.576V202.842H228.369ZM233.127 206H231.346L231.357 205.08H233.127C233.736 205.08 234.244 204.953 234.65 204.699C235.057 204.441 235.361 204.082 235.564 203.621C235.771 203.156 235.875 202.613 235.875 201.992V201.471C235.875 200.982 235.816 200.549 235.699 200.17C235.582 199.787 235.41 199.465 235.184 199.203C234.957 198.938 234.68 198.736 234.352 198.6C234.027 198.463 233.654 198.395 233.232 198.395H231.311V197.469H233.232C233.791 197.469 234.301 197.562 234.762 197.75C235.223 197.934 235.619 198.201 235.951 198.553C236.287 198.9 236.545 199.322 236.725 199.818C236.904 200.311 236.994 200.865 236.994 201.482V201.992C236.994 202.609 236.904 203.166 236.725 203.662C236.545 204.154 236.285 204.574 235.945 204.922C235.609 205.27 235.203 205.537 234.727 205.725C234.254 205.908 233.721 206 233.127 206ZM231.949 197.469V206H230.818V197.469H231.949ZM240.195 200.996V206H239.562V201.786L238.288 202.25V201.68L240.096 200.996H240.195Z" fill="black"/>
<path d="M249.148 179.225L246.324 187H245.17L248.422 178.469H249.166L249.148 179.225ZM251.516 187L248.686 179.225L248.668 178.469H249.412L252.676 187H251.516ZM251.369 183.842V184.768H246.576V183.842H251.369ZM256.127 187H254.346L254.357 186.08H256.127C256.736 186.08 257.244 185.953 257.65 185.699C258.057 185.441 258.361 185.082 258.564 184.621C258.771 184.156 258.875 183.613 258.875 182.992V182.471C258.875 181.982 258.816 181.549 258.699 181.17C258.582 180.787 258.41 180.465 258.184 180.203C257.957 179.938 257.68 179.736 257.352 179.6C257.027 179.463 256.654 179.395 256.232 179.395H254.311V178.469H256.232C256.791 178.469 257.301 178.562 257.762 178.75C258.223 178.934 258.619 179.201 258.951 179.553C259.287 179.9 259.545 180.322 259.725 180.818C259.904 181.311 259.994 181.865 259.994 182.482V182.992C259.994 183.609 259.904 184.166 259.725 184.662C259.545 185.154 259.285 185.574 258.945 185.922C258.609 186.27 258.203 186.537 257.727 186.725C257.254 186.908 256.721 187 256.127 187ZM254.949 178.469V187H253.818V178.469H254.949ZM264.377 186.48V187H261.12V186.545L262.75 184.73C262.951 184.507 263.106 184.318 263.215 184.163C263.327 184.006 263.404 183.866 263.448 183.743C263.493 183.617 263.516 183.49 263.516 183.36C263.516 183.196 263.482 183.048 263.414 182.916C263.347 182.781 263.25 182.674 263.12 182.594C262.99 182.514 262.833 182.475 262.648 182.475C262.427 182.475 262.242 182.518 262.094 182.604C261.948 182.689 261.839 182.807 261.766 182.96C261.693 183.113 261.657 183.288 261.657 183.486H261.024C261.024 183.206 261.086 182.95 261.209 182.717C261.332 182.485 261.514 182.3 261.756 182.164C261.997 182.025 262.295 181.955 262.648 181.955C262.962 181.955 263.231 182.011 263.455 182.123C263.678 182.232 263.849 182.387 263.967 182.587C264.088 182.786 264.148 183.018 264.148 183.285C264.148 183.431 264.123 183.579 264.073 183.729C264.025 183.877 263.958 184.025 263.872 184.173C263.787 184.321 263.688 184.467 263.574 184.611C263.463 184.754 263.343 184.896 263.215 185.035L261.882 186.48H264.377Z" fill="black"/>
<path d="M148.057 22V13.2727H149.114V21.0625H153.17V22H148.057ZM154.807 22V13.2727H157.756C158.438 13.2727 158.997 13.3892 159.435 13.6222C159.872 13.8523 160.196 14.169 160.406 14.5724C160.616 14.9759 160.722 15.4347 160.722 15.9489C160.722 16.4631 160.616 16.919 160.406 17.3168C160.196 17.7145 159.874 18.027 159.439 18.2543C159.004 18.4787 158.449 18.5909 157.773 18.5909H155.386V17.6364H157.739C158.205 17.6364 158.58 17.5682 158.864 17.4318C159.151 17.2955 159.358 17.1023 159.486 16.8523C159.616 16.5994 159.682 16.2983 159.682 15.9489C159.682 15.5994 159.616 15.294 159.486 15.0327C159.355 14.7713 159.146 14.5696 158.859 14.4276C158.572 14.2827 158.193 14.2102 157.722 14.2102H155.864V22H154.807ZM158.915 18.0795L161.062 22H159.835L157.722 18.0795H158.915ZM162.841 22H161.733L164.937 13.2727H166.028L169.233 22H168.125L165.517 14.6534H165.449L162.841 22ZM163.25 18.5909H167.716V19.5284H163.25V18.5909ZM175.365 15.4545C175.314 15.0227 175.106 14.6875 174.743 14.4489C174.379 14.2102 173.933 14.0909 173.404 14.0909C173.018 14.0909 172.68 14.1534 172.39 14.2784C172.103 14.4034 171.879 14.5753 171.717 14.794C171.558 15.0128 171.478 15.2614 171.478 15.5398C171.478 15.7727 171.534 15.973 171.645 16.1406C171.758 16.3054 171.903 16.4432 172.079 16.554C172.255 16.6619 172.44 16.7514 172.633 16.8224C172.826 16.8906 173.004 16.946 173.166 16.9886L174.052 17.2273C174.279 17.2869 174.532 17.3693 174.811 17.4744C175.092 17.5795 175.36 17.723 175.616 17.9048C175.875 18.0838 176.088 18.3139 176.255 18.5952C176.423 18.8764 176.507 19.2216 176.507 19.6307C176.507 20.1023 176.383 20.5284 176.136 20.9091C175.892 21.2898 175.534 21.5923 175.062 21.8168C174.593 22.0412 174.024 22.1534 173.353 22.1534C172.728 22.1534 172.187 22.0526 171.73 21.8509C171.275 21.6491 170.917 21.3679 170.656 21.0071C170.397 20.6463 170.251 20.2273 170.217 19.75H171.308C171.336 20.0795 171.447 20.3523 171.64 20.5682C171.836 20.7812 172.083 20.9403 172.382 21.0455C172.683 21.1477 173.007 21.1989 173.353 21.1989C173.757 21.1989 174.119 21.1335 174.44 21.0028C174.761 20.8693 175.015 20.6847 175.203 20.4489C175.39 20.2102 175.484 19.9318 175.484 19.6136C175.484 19.3239 175.403 19.0881 175.241 18.9062C175.079 18.7244 174.866 18.5767 174.602 18.4631C174.338 18.3494 174.052 18.25 173.745 18.1648L172.672 17.858C171.99 17.6619 171.45 17.3821 171.052 17.0185C170.654 16.6548 170.456 16.179 170.456 15.5909C170.456 15.1023 170.588 14.6761 170.852 14.3125C171.119 13.946 171.477 13.6619 171.926 13.4602C172.377 13.2557 172.882 13.1534 173.439 13.1534C174.001 13.1534 174.501 13.2543 174.939 13.456C175.376 13.6548 175.723 13.9276 175.978 14.2741C176.237 14.6207 176.373 15.0142 176.387 15.4545H175.365Z" fill="black"/>
<line x1="141" y1="113" x2="141" y2="193" stroke="black" stroke-width="2" stroke-dasharray="5 5"/>
<path d="M137.268 229.18L139.298 233.106L141.333 229.18H142.51L139.813 234.078V237H138.777V234.078L136.081 229.18H137.268ZM144.728 237H143.734V230.576C143.734 230.157 143.81 229.805 143.96 229.518C144.114 229.228 144.334 229.01 144.621 228.863C144.907 228.712 145.247 228.637 145.641 228.637C145.756 228.637 145.87 228.644 145.985 228.659C146.103 228.673 146.218 228.694 146.329 228.723L146.275 229.534C146.2 229.516 146.114 229.504 146.017 229.497C145.924 229.489 145.831 229.486 145.738 229.486C145.527 229.486 145.344 229.529 145.19 229.615C145.04 229.697 144.925 229.819 144.846 229.98C144.767 230.141 144.728 230.34 144.728 230.576V237ZM145.963 231.188V231.951H142.816V231.188H145.963Z" fill="black"/>
</svg>
