<svg width="317" height="257" viewBox="0 0 317 257" fill="none" xmlns="http://www.w3.org/2000/svg">
<rect width="317" height="257" fill="white"/>
<line x1="58.5" y1="27" x2="58.5" y2="217" stroke="black" stroke-width="3"/>
<line x1="57.0085" y1="215.5" x2="247.005" y2="216.573" stroke="black" stroke-width="3"/>
<line x1="167" y1="217" x2="167" y2="27" stroke="black" stroke-width="2"/>
<line x1="73.7071" y1="65.2929" x2="215.128" y2="206.714" stroke="black" stroke-width="2"/>
<line x1="103.707" y1="46.2929" x2="245.128" y2="187.714" stroke="black" stroke-width="2"/>
<line x1="131.707" y1="26.2929" x2="273.128" y2="167.714" stroke="black" stroke-width="2"/>
<line x1="77.2929" y1="197.714" x2="218.714" y2="56.2929" stroke="black" stroke-width="2"/>
<line x1="115.293" y1="210.714" x2="256.714" y2="69.2929" stroke="black" stroke-width="2"/>
<path d="M18.1367 33.6543H15.8574V32.7344H18.1367C18.5781 32.7344 18.9355 32.6641 19.209 32.5234C19.4824 32.3828 19.6816 32.1875 19.8066 31.9375C19.9355 31.6875 20 31.4023 20 31.082C20 30.7891 19.9355 30.5137 19.8066 30.2559C19.6816 29.998 19.4824 29.791 19.209 29.6348C18.9355 29.4746 18.5781 29.3945 18.1367 29.3945H16.1211V37H14.9902V28.4688H18.1367C18.7812 28.4688 19.3262 28.5801 19.7715 28.8027C20.2168 29.0254 20.5547 29.334 20.7852 29.7285C21.0156 30.1191 21.1309 30.5664 21.1309 31.0703C21.1309 31.6172 21.0156 32.084 20.7852 32.4707C20.5547 32.8574 20.2168 33.1523 19.7715 33.3555C19.3262 33.5547 18.7812 33.6543 18.1367 33.6543ZM23.4805 31.6562V37H22.3965V30.6602H23.4512L23.4805 31.6562ZM25.4609 30.625L25.4551 31.6328C25.3652 31.6133 25.2793 31.6016 25.1973 31.5977C25.1191 31.5898 25.0293 31.5859 24.9277 31.5859C24.6777 31.5859 24.457 31.625 24.2656 31.7031C24.0742 31.7812 23.9121 31.8906 23.7793 32.0312C23.6465 32.1719 23.541 32.3398 23.4629 32.5352C23.3887 32.7266 23.3398 32.9375 23.3164 33.168L23.0117 33.3438C23.0117 32.9609 23.0488 32.6016 23.123 32.2656C23.2012 31.9297 23.3203 31.6328 23.4805 31.375C23.6406 31.1133 23.8438 30.9102 24.0898 30.7656C24.3398 30.6172 24.6367 30.543 24.9805 30.543C25.0586 30.543 25.1484 30.5527 25.25 30.5723C25.3516 30.5879 25.4219 30.6055 25.4609 30.625ZM27.6406 30.6602V37H26.5508V30.6602H27.6406ZM26.4688 28.9785C26.4688 28.8027 26.5215 28.6543 26.627 28.5332C26.7363 28.4121 26.8965 28.3516 27.1074 28.3516C27.3145 28.3516 27.4727 28.4121 27.582 28.5332C27.6953 28.6543 27.752 28.8027 27.752 28.9785C27.752 29.1465 27.6953 29.291 27.582 29.4121C27.4727 29.5293 27.3145 29.5879 27.1074 29.5879C26.8965 29.5879 26.7363 29.5293 26.627 29.4121C26.5215 29.291 26.4688 29.1465 26.4688 28.9785ZM31.918 36.2266C32.1758 36.2266 32.4141 36.1738 32.6328 36.0684C32.8516 35.9629 33.0312 35.8184 33.1719 35.6348C33.3125 35.4473 33.3926 35.2344 33.4121 34.9961H34.4434C34.4238 35.3711 34.2969 35.7207 34.0625 36.0449C33.832 36.3652 33.5293 36.625 33.1543 36.8242C32.7793 37.0195 32.3672 37.1172 31.918 37.1172C31.4414 37.1172 31.0254 37.0332 30.6699 36.8652C30.3184 36.6973 30.0254 36.4668 29.791 36.1738C29.5605 35.8809 29.3867 35.5449 29.2695 35.166C29.1562 34.7832 29.0996 34.3789 29.0996 33.9531V33.707C29.0996 33.2812 29.1562 32.8789 29.2695 32.5C29.3867 32.1172 29.5605 31.7793 29.791 31.4863C30.0254 31.1934 30.3184 30.9629 30.6699 30.7949C31.0254 30.627 31.4414 30.543 31.918 30.543C32.4141 30.543 32.8477 30.6445 33.2188 30.8477C33.5898 31.0469 33.8809 31.3203 34.0918 31.668C34.3066 32.0117 34.4238 32.4023 34.4434 32.8398H33.4121C33.3926 32.5781 33.3184 32.3418 33.1895 32.1309C33.0645 31.9199 32.8926 31.752 32.6738 31.627C32.459 31.498 32.207 31.4336 31.918 31.4336C31.5859 31.4336 31.3066 31.5 31.0801 31.6328C30.8574 31.7617 30.6797 31.9375 30.5469 32.1602C30.418 32.3789 30.3242 32.623 30.2656 32.8926C30.2109 33.1582 30.1836 33.4297 30.1836 33.707V33.9531C30.1836 34.2305 30.2109 34.5039 30.2656 34.7734C30.3203 35.043 30.4121 35.2871 30.541 35.5059C30.6738 35.7246 30.8516 35.9004 31.0742 36.0332C31.3008 36.1621 31.582 36.2266 31.918 36.2266ZM38.293 37.1172C37.8516 37.1172 37.4512 37.043 37.0918 36.8945C36.7363 36.7422 36.4297 36.5293 36.1719 36.2559C35.918 35.9824 35.7227 35.6582 35.5859 35.2832C35.4492 34.9082 35.3809 34.498 35.3809 34.0527V33.8066C35.3809 33.291 35.457 32.832 35.6094 32.4297C35.7617 32.0234 35.9688 31.6797 36.2305 31.3984C36.4922 31.1172 36.7891 30.9043 37.1211 30.7598C37.4531 30.6152 37.7969 30.543 38.1523 30.543C38.6055 30.543 38.9961 30.6211 39.3242 30.7773C39.6562 30.9336 39.9277 31.1523 40.1387 31.4336C40.3496 31.7109 40.5059 32.0391 40.6074 32.418C40.709 32.793 40.7598 33.2031 40.7598 33.6484V34.1348H36.0254V33.25H39.6758V33.168C39.6602 32.8867 39.6016 32.6133 39.5 32.3477C39.4023 32.082 39.2461 31.8633 39.0312 31.6914C38.8164 31.5195 38.5234 31.4336 38.1523 31.4336C37.9062 31.4336 37.6797 31.4863 37.4727 31.5918C37.2656 31.6934 37.0879 31.8457 36.9395 32.0488C36.791 32.252 36.6758 32.5 36.5938 32.793C36.5117 33.0859 36.4707 33.4238 36.4707 33.8066V34.0527C36.4707 34.3535 36.5117 34.6367 36.5938 34.9023C36.6797 35.1641 36.8027 35.3945 36.9629 35.5938C37.127 35.793 37.3242 35.9492 37.5547 36.0625C37.7891 36.1758 38.0547 36.2324 38.3516 36.2324C38.7344 36.2324 39.0586 36.1543 39.3242 35.998C39.5898 35.8418 39.8223 35.6328 40.0215 35.3711L40.6777 35.8926C40.541 36.0996 40.3672 36.2969 40.1562 36.4844C39.9453 36.6719 39.6855 36.8242 39.377 36.9414C39.0723 37.0586 38.7109 37.1172 38.293 37.1172ZM20.1641 50.0801V51H15.8984V50.0801H20.1641ZM16.1211 42.4688V51H14.9902V42.4688H16.1211ZM23.9258 51.1172C23.4844 51.1172 23.084 51.043 22.7246 50.8945C22.3691 50.7422 22.0625 50.5293 21.8047 50.2559C21.5508 49.9824 21.3555 49.6582 21.2188 49.2832C21.082 48.9082 21.0137 48.498 21.0137 48.0527V47.8066C21.0137 47.291 21.0898 46.832 21.2422 46.4297C21.3945 46.0234 21.6016 45.6797 21.8633 45.3984C22.125 45.1172 22.4219 44.9043 22.7539 44.7598C23.0859 44.6152 23.4297 44.543 23.7852 44.543C24.2383 44.543 24.6289 44.6211 24.957 44.7773C25.2891 44.9336 25.5605 45.1523 25.7715 45.4336C25.9824 45.7109 26.1387 46.0391 26.2402 46.418C26.3418 46.793 26.3926 47.2031 26.3926 47.6484V48.1348H21.6582V47.25H25.3086V47.168C25.293 46.8867 25.2344 46.6133 25.1328 46.3477C25.0352 46.082 24.8789 45.8633 24.6641 45.6914C24.4492 45.5195 24.1562 45.4336 23.7852 45.4336C23.5391 45.4336 23.3125 45.4863 23.1055 45.5918C22.8984 45.6934 22.7207 45.8457 22.5723 46.0488C22.4238 46.252 22.3086 46.5 22.2266 46.793C22.1445 47.0859 22.1035 47.4238 22.1035 47.8066V48.0527C22.1035 48.3535 22.1445 48.6367 22.2266 48.9023C22.3125 49.1641 22.4355 49.3945 22.5957 49.5938C22.7598 49.793 22.957 49.9492 23.1875 50.0625C23.4219 50.1758 23.6875 50.2324 23.9844 50.2324C24.3672 50.2324 24.6914 50.1543 24.957 49.998C25.2227 49.8418 25.4551 49.6328 25.6543 49.3711L26.3105 49.8926C26.1738 50.0996 26 50.2969 25.7891 50.4844C25.5781 50.6719 25.3184 50.8242 25.0098 50.9414C24.7051 51.0586 24.3438 51.1172 23.9258 51.1172ZM29.5039 50.0215L31.2383 44.6602H32.3457L30.0664 51H29.3398L29.5039 50.0215ZM28.0566 44.6602L29.8438 50.0508L29.9668 51H29.2402L26.9434 44.6602H28.0566ZM35.9375 51.1172C35.4961 51.1172 35.0957 51.043 34.7363 50.8945C34.3809 50.7422 34.0742 50.5293 33.8164 50.2559C33.5625 49.9824 33.3672 49.6582 33.2305 49.2832C33.0938 48.9082 33.0254 48.498 33.0254 48.0527V47.8066C33.0254 47.291 33.1016 46.832 33.2539 46.4297C33.4062 46.0234 33.6133 45.6797 33.875 45.3984C34.1367 45.1172 34.4336 44.9043 34.7656 44.7598C35.0977 44.6152 35.4414 44.543 35.7969 44.543C36.25 44.543 36.6406 44.6211 36.9688 44.7773C37.3008 44.9336 37.5723 45.1523 37.7832 45.4336C37.9941 45.7109 38.1504 46.0391 38.252 46.418C38.3535 46.793 38.4043 47.2031 38.4043 47.6484V48.1348H33.6699V47.25H37.3203V47.168C37.3047 46.8867 37.2461 46.6133 37.1445 46.3477C37.0469 46.082 36.8906 45.8633 36.6758 45.6914C36.4609 45.5195 36.168 45.4336 35.7969 45.4336C35.5508 45.4336 35.3242 45.4863 35.1172 45.5918C34.9102 45.6934 34.7324 45.8457 34.584 46.0488C34.4355 46.252 34.3203 46.5 34.2383 46.793C34.1562 47.0859 34.1152 47.4238 34.1152 47.8066V48.0527C34.1152 48.3535 34.1562 48.6367 34.2383 48.9023C34.3242 49.1641 34.4473 49.3945 34.6074 49.5938C34.7715 49.793 34.9688 49.9492 35.1992 50.0625C35.4336 50.1758 35.6992 50.2324 35.9961 50.2324C36.3789 50.2324 36.7031 50.1543 36.9688 49.998C37.2344 49.8418 37.4668 49.6328 37.666 49.3711L38.3223 49.8926C38.1855 50.0996 38.0117 50.2969 37.8008 50.4844C37.5898 50.6719 37.3301 50.8242 37.0215 50.9414C36.7168 51.0586 36.3555 51.1172 35.9375 51.1172ZM40.8477 42V51H39.7578V42H40.8477Z" fill="black"/>
<path d="M216.99 230.469H219.814C220.455 230.469 220.996 230.566 221.438 230.762C221.883 230.957 222.221 231.246 222.451 231.629C222.686 232.008 222.803 232.475 222.803 233.029C222.803 233.42 222.723 233.777 222.562 234.102C222.406 234.422 222.18 234.695 221.883 234.922C221.59 235.145 221.238 235.311 220.828 235.42L220.512 235.543H217.857L217.846 234.623H219.85C220.256 234.623 220.594 234.553 220.863 234.412C221.133 234.268 221.336 234.074 221.473 233.832C221.609 233.59 221.678 233.322 221.678 233.029C221.678 232.701 221.613 232.414 221.484 232.168C221.355 231.922 221.152 231.732 220.875 231.6C220.602 231.463 220.248 231.395 219.814 231.395H218.121V239H216.99V230.469ZM221.977 239L219.902 235.133L221.08 235.127L223.184 238.93V239H221.977ZM230.689 234.752V237.875C230.584 238.031 230.416 238.207 230.186 238.402C229.955 238.594 229.637 238.762 229.23 238.906C228.828 239.047 228.309 239.117 227.672 239.117C227.152 239.117 226.674 239.027 226.236 238.848C225.803 238.664 225.426 238.398 225.105 238.051C224.789 237.699 224.543 237.273 224.367 236.773C224.195 236.27 224.109 235.699 224.109 235.062V234.4C224.109 233.764 224.184 233.195 224.332 232.695C224.484 232.195 224.707 231.771 225 231.424C225.293 231.072 225.652 230.807 226.078 230.627C226.504 230.443 226.992 230.352 227.543 230.352C228.195 230.352 228.74 230.465 229.178 230.691C229.619 230.914 229.963 231.223 230.209 231.617C230.459 232.012 230.619 232.461 230.689 232.965H229.559C229.508 232.656 229.406 232.375 229.254 232.121C229.105 231.867 228.893 231.664 228.615 231.512C228.338 231.355 227.98 231.277 227.543 231.277C227.148 231.277 226.807 231.35 226.518 231.494C226.229 231.639 225.99 231.846 225.803 232.115C225.615 232.385 225.475 232.711 225.381 233.094C225.291 233.477 225.246 233.908 225.246 234.389V235.062C225.246 235.555 225.303 235.994 225.416 236.381C225.533 236.768 225.699 237.098 225.914 237.371C226.129 237.641 226.385 237.846 226.682 237.986C226.982 238.127 227.314 238.197 227.678 238.197C228.08 238.197 228.406 238.164 228.656 238.098C228.906 238.027 229.102 237.945 229.242 237.852C229.383 237.754 229.49 237.662 229.564 237.576V235.666H227.59V234.752H230.689ZM234.873 239H233.092L233.104 238.08H234.873C235.482 238.08 235.99 237.953 236.396 237.699C236.803 237.441 237.107 237.082 237.311 236.621C237.518 236.156 237.621 235.613 237.621 234.992V234.471C237.621 233.982 237.562 233.549 237.445 233.17C237.328 232.787 237.156 232.465 236.93 232.203C236.703 231.938 236.426 231.736 236.098 231.6C235.773 231.463 235.4 231.395 234.979 231.395H233.057V230.469H234.979C235.537 230.469 236.047 230.562 236.508 230.75C236.969 230.934 237.365 231.201 237.697 231.553C238.033 231.9 238.291 232.322 238.471 232.818C238.65 233.311 238.74 233.865 238.74 234.482V234.992C238.74 235.609 238.65 236.166 238.471 236.662C238.291 237.154 238.031 237.574 237.691 237.922C237.355 238.27 236.949 238.537 236.473 238.725C236 238.908 235.467 239 234.873 239ZM233.695 230.469V239H232.564V230.469H233.695ZM243.586 235.654H241.307V234.734H243.586C244.027 234.734 244.385 234.664 244.658 234.523C244.932 234.383 245.131 234.188 245.256 233.938C245.385 233.688 245.449 233.402 245.449 233.082C245.449 232.789 245.385 232.514 245.256 232.256C245.131 231.998 244.932 231.791 244.658 231.635C244.385 231.475 244.027 231.395 243.586 231.395H241.57V239H240.439V230.469H243.586C244.23 230.469 244.775 230.58 245.221 230.803C245.666 231.025 246.004 231.334 246.234 231.729C246.465 232.119 246.58 232.566 246.58 233.07C246.58 233.617 246.465 234.084 246.234 234.471C246.004 234.857 245.666 235.152 245.221 235.355C244.775 235.555 244.23 235.654 243.586 235.654Z" fill="black"/>
<path d="M229.537 48.8438C229.537 48.6445 229.506 48.4688 229.443 48.3164C229.385 48.1602 229.279 48.0195 229.127 47.8945C228.979 47.7695 228.771 47.6504 228.506 47.5371C228.244 47.4238 227.912 47.3086 227.51 47.1914C227.088 47.0664 226.707 46.9277 226.367 46.7754C226.027 46.6191 225.736 46.4414 225.494 46.2422C225.252 46.043 225.066 45.8145 224.938 45.5566C224.809 45.2988 224.744 45.0039 224.744 44.6719C224.744 44.3398 224.812 44.0332 224.949 43.752C225.086 43.4707 225.281 43.2266 225.535 43.0195C225.793 42.8086 226.1 42.6445 226.455 42.5273C226.811 42.4102 227.207 42.3516 227.645 42.3516C228.285 42.3516 228.828 42.4746 229.273 42.7207C229.723 42.9629 230.064 43.2812 230.299 43.6758C230.533 44.0664 230.65 44.4844 230.65 44.9297H229.525C229.525 44.6094 229.457 44.3262 229.32 44.0801C229.184 43.8301 228.977 43.6348 228.699 43.4941C228.422 43.3496 228.07 43.2773 227.645 43.2773C227.242 43.2773 226.91 43.3379 226.648 43.459C226.387 43.5801 226.191 43.7441 226.062 43.9512C225.938 44.1582 225.875 44.3945 225.875 44.6602C225.875 44.8398 225.912 45.0039 225.986 45.1523C226.064 45.2969 226.184 45.4316 226.344 45.5566C226.508 45.6816 226.715 45.7969 226.965 45.9023C227.219 46.0078 227.521 46.1094 227.873 46.207C228.357 46.3438 228.775 46.4961 229.127 46.6641C229.479 46.832 229.768 47.0215 229.994 47.2324C230.225 47.4395 230.395 47.6758 230.504 47.9414C230.617 48.2031 230.674 48.5 230.674 48.832C230.674 49.1797 230.604 49.4941 230.463 49.7754C230.322 50.0566 230.121 50.2969 229.859 50.4961C229.598 50.6953 229.283 50.8496 228.916 50.959C228.553 51.0645 228.146 51.1172 227.697 51.1172C227.303 51.1172 226.914 51.0625 226.531 50.9531C226.152 50.8438 225.807 50.6797 225.494 50.4609C225.186 50.2422 224.938 49.9727 224.75 49.6523C224.566 49.3281 224.475 48.9531 224.475 48.5273H225.6C225.6 48.8203 225.656 49.0723 225.77 49.2832C225.883 49.4902 226.037 49.6621 226.232 49.7988C226.432 49.9355 226.656 50.0371 226.906 50.1035C227.16 50.166 227.424 50.1973 227.697 50.1973C228.092 50.1973 228.426 50.1426 228.699 50.0332C228.973 49.9238 229.18 49.7676 229.32 49.5645C229.465 49.3613 229.537 49.1211 229.537 48.8438ZM232.115 42.4688H234.939C235.58 42.4688 236.121 42.5664 236.562 42.7617C237.008 42.957 237.346 43.2461 237.576 43.6289C237.811 44.0078 237.928 44.4746 237.928 45.0293C237.928 45.4199 237.848 45.7773 237.688 46.1016C237.531 46.4219 237.305 46.6953 237.008 46.9219C236.715 47.1445 236.363 47.3105 235.953 47.4199L235.637 47.543H232.982L232.971 46.623H234.975C235.381 46.623 235.719 46.5527 235.988 46.4121C236.258 46.2676 236.461 46.0742 236.598 45.832C236.734 45.5898 236.803 45.3223 236.803 45.0293C236.803 44.7012 236.738 44.4141 236.609 44.168C236.48 43.9219 236.277 43.7324 236 43.5996C235.727 43.4629 235.373 43.3945 234.939 43.3945H233.246V51H232.115V42.4688ZM237.102 51L235.027 47.1328L236.205 47.127L238.309 50.9297V51H237.102ZM242.668 43.2246L239.844 51H238.689L241.941 42.4688H242.686L242.668 43.2246ZM245.035 51L242.205 43.2246L242.188 42.4688H242.932L246.195 51H245.035ZM244.889 47.8418V48.7676H240.096V47.8418H244.889ZM251.885 48.8438C251.885 48.6445 251.854 48.4688 251.791 48.3164C251.732 48.1602 251.627 48.0195 251.475 47.8945C251.326 47.7695 251.119 47.6504 250.854 47.5371C250.592 47.4238 250.26 47.3086 249.857 47.1914C249.436 47.0664 249.055 46.9277 248.715 46.7754C248.375 46.6191 248.084 46.4414 247.842 46.2422C247.6 46.043 247.414 45.8145 247.285 45.5566C247.156 45.2988 247.092 45.0039 247.092 44.6719C247.092 44.3398 247.16 44.0332 247.297 43.752C247.434 43.4707 247.629 43.2266 247.883 43.0195C248.141 42.8086 248.447 42.6445 248.803 42.5273C249.158 42.4102 249.555 42.3516 249.992 42.3516C250.633 42.3516 251.176 42.4746 251.621 42.7207C252.07 42.9629 252.412 43.2812 252.646 43.6758C252.881 44.0664 252.998 44.4844 252.998 44.9297H251.873C251.873 44.6094 251.805 44.3262 251.668 44.0801C251.531 43.8301 251.324 43.6348 251.047 43.4941C250.77 43.3496 250.418 43.2773 249.992 43.2773C249.59 43.2773 249.258 43.3379 248.996 43.459C248.734 43.5801 248.539 43.7441 248.41 43.9512C248.285 44.1582 248.223 44.3945 248.223 44.6602C248.223 44.8398 248.26 45.0039 248.334 45.1523C248.412 45.2969 248.531 45.4316 248.691 45.5566C248.855 45.6816 249.062 45.7969 249.312 45.9023C249.566 46.0078 249.869 46.1094 250.221 46.207C250.705 46.3438 251.123 46.4961 251.475 46.6641C251.826 46.832 252.115 47.0215 252.342 47.2324C252.572 47.4395 252.742 47.6758 252.852 47.9414C252.965 48.2031 253.021 48.5 253.021 48.832C253.021 49.1797 252.951 49.4941 252.811 49.7754C252.67 50.0566 252.469 50.2969 252.207 50.4961C251.945 50.6953 251.631 50.8496 251.264 50.959C250.9 51.0645 250.494 51.1172 250.045 51.1172C249.65 51.1172 249.262 51.0625 248.879 50.9531C248.5 50.8438 248.154 50.6797 247.842 50.4609C247.533 50.2422 247.285 49.9727 247.098 49.6523C246.914 49.3281 246.822 48.9531 246.822 48.5273H247.947C247.947 48.8203 248.004 49.0723 248.117 49.2832C248.23 49.4902 248.385 49.6621 248.58 49.7988C248.779 49.9355 249.004 50.0371 249.254 50.1035C249.508 50.166 249.771 50.1973 250.045 50.1973C250.439 50.1973 250.773 50.1426 251.047 50.0332C251.32 49.9238 251.527 49.7676 251.668 49.5645C251.812 49.3613 251.885 49.1211 251.885 48.8438ZM257.744 42.4219V51H256.66V43.7754L254.475 44.5723V43.5938L257.574 42.4219H257.744Z" fill="black"/>
<path d="M271.537 71.8438C271.537 71.6445 271.506 71.4688 271.443 71.3164C271.385 71.1602 271.279 71.0195 271.127 70.8945C270.979 70.7695 270.771 70.6504 270.506 70.5371C270.244 70.4238 269.912 70.3086 269.51 70.1914C269.088 70.0664 268.707 69.9277 268.367 69.7754C268.027 69.6191 267.736 69.4414 267.494 69.2422C267.252 69.043 267.066 68.8145 266.938 68.5566C266.809 68.2988 266.744 68.0039 266.744 67.6719C266.744 67.3398 266.812 67.0332 266.949 66.752C267.086 66.4707 267.281 66.2266 267.535 66.0195C267.793 65.8086 268.1 65.6445 268.455 65.5273C268.811 65.4102 269.207 65.3516 269.645 65.3516C270.285 65.3516 270.828 65.4746 271.273 65.7207C271.723 65.9629 272.064 66.2812 272.299 66.6758C272.533 67.0664 272.65 67.4844 272.65 67.9297H271.525C271.525 67.6094 271.457 67.3262 271.32 67.0801C271.184 66.8301 270.977 66.6348 270.699 66.4941C270.422 66.3496 270.07 66.2773 269.645 66.2773C269.242 66.2773 268.91 66.3379 268.648 66.459C268.387 66.5801 268.191 66.7441 268.062 66.9512C267.938 67.1582 267.875 67.3945 267.875 67.6602C267.875 67.8398 267.912 68.0039 267.986 68.1523C268.064 68.2969 268.184 68.4316 268.344 68.5566C268.508 68.6816 268.715 68.7969 268.965 68.9023C269.219 69.0078 269.521 69.1094 269.873 69.207C270.357 69.3438 270.775 69.4961 271.127 69.6641C271.479 69.832 271.768 70.0215 271.994 70.2324C272.225 70.4395 272.395 70.6758 272.504 70.9414C272.617 71.2031 272.674 71.5 272.674 71.832C272.674 72.1797 272.604 72.4941 272.463 72.7754C272.322 73.0566 272.121 73.2969 271.859 73.4961C271.598 73.6953 271.283 73.8496 270.916 73.959C270.553 74.0645 270.146 74.1172 269.697 74.1172C269.303 74.1172 268.914 74.0625 268.531 73.9531C268.152 73.8438 267.807 73.6797 267.494 73.4609C267.186 73.2422 266.938 72.9727 266.75 72.6523C266.566 72.3281 266.475 71.9531 266.475 71.5273H267.6C267.6 71.8203 267.656 72.0723 267.77 72.2832C267.883 72.4902 268.037 72.6621 268.232 72.7988C268.432 72.9355 268.656 73.0371 268.906 73.1035C269.16 73.166 269.424 73.1973 269.697 73.1973C270.092 73.1973 270.426 73.1426 270.699 73.0332C270.973 72.9238 271.18 72.7676 271.32 72.5645C271.465 72.3613 271.537 72.1211 271.537 71.8438ZM274.115 65.4688H276.939C277.58 65.4688 278.121 65.5664 278.562 65.7617C279.008 65.957 279.346 66.2461 279.576 66.6289C279.811 67.0078 279.928 67.4746 279.928 68.0293C279.928 68.4199 279.848 68.7773 279.688 69.1016C279.531 69.4219 279.305 69.6953 279.008 69.9219C278.715 70.1445 278.363 70.3105 277.953 70.4199L277.637 70.543H274.982L274.971 69.623H276.975C277.381 69.623 277.719 69.5527 277.988 69.4121C278.258 69.2676 278.461 69.0742 278.598 68.832C278.734 68.5898 278.803 68.3223 278.803 68.0293C278.803 67.7012 278.738 67.4141 278.609 67.168C278.48 66.9219 278.277 66.7324 278 66.5996C277.727 66.4629 277.373 66.3945 276.939 66.3945H275.246V74H274.115V65.4688ZM279.102 74L277.027 70.1328L278.205 70.127L280.309 73.9297V74H279.102ZM284.668 66.2246L281.844 74H280.689L283.941 65.4688H284.686L284.668 66.2246ZM287.035 74L284.205 66.2246L284.188 65.4688H284.932L288.195 74H287.035ZM286.889 70.8418V71.7676H282.096V70.8418H286.889ZM293.885 71.8438C293.885 71.6445 293.854 71.4688 293.791 71.3164C293.732 71.1602 293.627 71.0195 293.475 70.8945C293.326 70.7695 293.119 70.6504 292.854 70.5371C292.592 70.4238 292.26 70.3086 291.857 70.1914C291.436 70.0664 291.055 69.9277 290.715 69.7754C290.375 69.6191 290.084 69.4414 289.842 69.2422C289.6 69.043 289.414 68.8145 289.285 68.5566C289.156 68.2988 289.092 68.0039 289.092 67.6719C289.092 67.3398 289.16 67.0332 289.297 66.752C289.434 66.4707 289.629 66.2266 289.883 66.0195C290.141 65.8086 290.447 65.6445 290.803 65.5273C291.158 65.4102 291.555 65.3516 291.992 65.3516C292.633 65.3516 293.176 65.4746 293.621 65.7207C294.07 65.9629 294.412 66.2812 294.646 66.6758C294.881 67.0664 294.998 67.4844 294.998 67.9297H293.873C293.873 67.6094 293.805 67.3262 293.668 67.0801C293.531 66.8301 293.324 66.6348 293.047 66.4941C292.77 66.3496 292.418 66.2773 291.992 66.2773C291.59 66.2773 291.258 66.3379 290.996 66.459C290.734 66.5801 290.539 66.7441 290.41 66.9512C290.285 67.1582 290.223 67.3945 290.223 67.6602C290.223 67.8398 290.26 68.0039 290.334 68.1523C290.412 68.2969 290.531 68.4316 290.691 68.5566C290.855 68.6816 291.062 68.7969 291.312 68.9023C291.566 69.0078 291.869 69.1094 292.221 69.207C292.705 69.3438 293.123 69.4961 293.475 69.6641C293.826 69.832 294.115 70.0215 294.342 70.2324C294.572 70.4395 294.742 70.6758 294.852 70.9414C294.965 71.2031 295.021 71.5 295.021 71.832C295.021 72.1797 294.951 72.4941 294.811 72.7754C294.67 73.0566 294.469 73.2969 294.207 73.4961C293.945 73.6953 293.631 73.8496 293.264 73.959C292.9 74.0645 292.494 74.1172 292.045 74.1172C291.65 74.1172 291.262 74.0625 290.879 73.9531C290.5 73.8438 290.154 73.6797 289.842 73.4609C289.533 73.2422 289.285 72.9727 289.098 72.6523C288.914 72.3281 288.822 71.9531 288.822 71.5273H289.947C289.947 71.8203 290.004 72.0723 290.117 72.2832C290.23 72.4902 290.385 72.6621 290.58 72.7988C290.779 72.9355 291.004 73.0371 291.254 73.1035C291.508 73.166 291.771 73.1973 292.045 73.1973C292.439 73.1973 292.773 73.1426 293.047 73.0332C293.32 72.9238 293.527 72.7676 293.668 72.5645C293.812 72.3613 293.885 72.1211 293.885 71.8438ZM301.771 73.1094V74H296.188V73.2207L298.982 70.1094C299.326 69.7266 299.592 69.4023 299.779 69.1367C299.971 68.8672 300.104 68.627 300.178 68.416C300.256 68.2012 300.295 67.9824 300.295 67.7598C300.295 67.4785 300.236 67.2246 300.119 66.998C300.006 66.7676 299.838 66.584 299.615 66.4473C299.393 66.3105 299.123 66.2422 298.807 66.2422C298.428 66.2422 298.111 66.3164 297.857 66.4648C297.607 66.6094 297.42 66.8125 297.295 67.0742C297.17 67.3359 297.107 67.6367 297.107 67.9766H296.023C296.023 67.4961 296.129 67.0566 296.34 66.6582C296.551 66.2598 296.863 65.9434 297.277 65.709C297.691 65.4707 298.201 65.3516 298.807 65.3516C299.346 65.3516 299.807 65.4473 300.189 65.6387C300.572 65.8262 300.865 66.0918 301.068 66.4355C301.275 66.7754 301.379 67.1738 301.379 67.6309C301.379 67.8809 301.336 68.1348 301.25 68.3926C301.168 68.6465 301.053 68.9004 300.904 69.1543C300.76 69.4082 300.59 69.6582 300.395 69.9043C300.203 70.1504 299.998 70.3926 299.779 70.6309L297.494 73.1094H301.771Z" fill="black"/>
<path d="M123.99 128.469H126.814C127.455 128.469 127.996 128.566 128.438 128.762C128.883 128.957 129.221 129.246 129.451 129.629C129.686 130.008 129.803 130.475 129.803 131.029C129.803 131.42 129.723 131.777 129.562 132.102C129.406 132.422 129.18 132.695 128.883 132.922C128.59 133.145 128.238 133.311 127.828 133.42L127.512 133.543H124.857L124.846 132.623H126.85C127.256 132.623 127.594 132.553 127.863 132.412C128.133 132.268 128.336 132.074 128.473 131.832C128.609 131.59 128.678 131.322 128.678 131.029C128.678 130.701 128.613 130.414 128.484 130.168C128.355 129.922 128.152 129.732 127.875 129.6C127.602 129.463 127.248 129.395 126.814 129.395H125.121V137H123.99V128.469ZM128.977 137L126.902 133.133L128.08 133.127L130.184 136.93V137H128.977Z" fill="black"/>
<path d="M153.143 154.469V163H152.029V154.469H153.143ZM155.885 154.469V155.395H149.293V154.469H155.885Z" fill="black"/>
<path d="M209.871 128.469H210.996V134.24C210.996 134.881 210.854 135.414 210.568 135.84C210.283 136.266 209.904 136.586 209.432 136.801C208.963 137.012 208.453 137.117 207.902 137.117C207.324 137.117 206.801 137.012 206.332 136.801C205.867 136.586 205.498 136.266 205.225 135.84C204.955 135.414 204.82 134.881 204.82 134.24V128.469H205.939V134.24C205.939 134.686 206.021 135.053 206.186 135.342C206.35 135.631 206.578 135.846 206.871 135.986C207.168 136.127 207.512 136.197 207.902 136.197C208.297 136.197 208.641 136.127 208.934 135.986C209.23 135.846 209.461 135.631 209.625 135.342C209.789 135.053 209.871 134.686 209.871 134.24V128.469Z" fill="black"/>
<path d="M234.744 112.705L237.258 105.469H238.482L235.324 114H234.451L234.744 112.705ZM232.395 105.469L234.885 112.705L235.195 114H234.322L231.17 105.469H232.395Z" fill="black"/>
<path d="M154.537 109.844C154.537 109.645 154.506 109.469 154.443 109.316C154.385 109.16 154.279 109.02 154.127 108.895C153.979 108.77 153.771 108.65 153.506 108.537C153.244 108.424 152.912 108.309 152.51 108.191C152.088 108.066 151.707 107.928 151.367 107.775C151.027 107.619 150.736 107.441 150.494 107.242C150.252 107.043 150.066 106.814 149.938 106.557C149.809 106.299 149.744 106.004 149.744 105.672C149.744 105.34 149.812 105.033 149.949 104.752C150.086 104.471 150.281 104.227 150.535 104.02C150.793 103.809 151.1 103.645 151.455 103.527C151.811 103.41 152.207 103.352 152.645 103.352C153.285 103.352 153.828 103.475 154.273 103.721C154.723 103.963 155.064 104.281 155.299 104.676C155.533 105.066 155.65 105.484 155.65 105.93H154.525C154.525 105.609 154.457 105.326 154.32 105.08C154.184 104.83 153.977 104.635 153.699 104.494C153.422 104.35 153.07 104.277 152.645 104.277C152.242 104.277 151.91 104.338 151.648 104.459C151.387 104.58 151.191 104.744 151.062 104.951C150.938 105.158 150.875 105.395 150.875 105.66C150.875 105.84 150.912 106.004 150.986 106.152C151.064 106.297 151.184 106.432 151.344 106.557C151.508 106.682 151.715 106.797 151.965 106.902C152.219 107.008 152.521 107.109 152.873 107.207C153.357 107.344 153.775 107.496 154.127 107.664C154.479 107.832 154.768 108.021 154.994 108.232C155.225 108.439 155.395 108.676 155.504 108.941C155.617 109.203 155.674 109.5 155.674 109.832C155.674 110.18 155.604 110.494 155.463 110.775C155.322 111.057 155.121 111.297 154.859 111.496C154.598 111.695 154.283 111.85 153.916 111.959C153.553 112.064 153.146 112.117 152.697 112.117C152.303 112.117 151.914 112.062 151.531 111.953C151.152 111.844 150.807 111.68 150.494 111.461C150.186 111.242 149.938 110.973 149.75 110.652C149.566 110.328 149.475 109.953 149.475 109.527H150.6C150.6 109.82 150.656 110.072 150.77 110.283C150.883 110.49 151.037 110.662 151.232 110.799C151.432 110.936 151.656 111.037 151.906 111.104C152.16 111.166 152.424 111.197 152.697 111.197C153.092 111.197 153.426 111.143 153.699 111.033C153.973 110.924 154.18 110.768 154.32 110.564C154.465 110.361 154.537 110.121 154.537 109.844Z" fill="black"/>
<path d="M224.148 199.225L221.324 207H220.17L223.422 198.469H224.166L224.148 199.225ZM226.516 207L223.686 199.225L223.668 198.469H224.412L227.676 207H226.516ZM226.369 203.842V204.768H221.576V203.842H226.369ZM231.127 207H229.346L229.357 206.08H231.127C231.736 206.08 232.244 205.953 232.65 205.699C233.057 205.441 233.361 205.082 233.564 204.621C233.771 204.156 233.875 203.613 233.875 202.992V202.471C233.875 201.982 233.816 201.549 233.699 201.17C233.582 200.787 233.41 200.465 233.184 200.203C232.957 199.938 232.68 199.736 232.352 199.6C232.027 199.463 231.654 199.395 231.232 199.395H229.311V198.469H231.232C231.791 198.469 232.301 198.562 232.762 198.75C233.223 198.934 233.619 199.201 233.951 199.553C234.287 199.9 234.545 200.322 234.725 200.818C234.904 201.311 234.994 201.865 234.994 202.482V202.992C234.994 203.609 234.904 204.166 234.725 204.662C234.545 205.154 234.285 205.574 233.945 205.922C233.609 206.27 233.203 206.537 232.727 206.725C232.254 206.908 231.721 207 231.127 207ZM229.949 198.469V207H228.818V198.469H229.949ZM239.975 198.422V207H238.891V199.775L236.705 200.572V199.594L239.805 198.422H239.975Z" fill="black"/>
<path d="M254.148 185.225L251.324 193H250.17L253.422 184.469H254.166L254.148 185.225ZM256.516 193L253.686 185.225L253.668 184.469H254.412L257.676 193H256.516ZM256.369 189.842V190.768H251.576V189.842H256.369ZM261.127 193H259.346L259.357 192.08H261.127C261.736 192.08 262.244 191.953 262.65 191.699C263.057 191.441 263.361 191.082 263.564 190.621C263.771 190.156 263.875 189.613 263.875 188.992V188.471C263.875 187.982 263.816 187.549 263.699 187.17C263.582 186.787 263.41 186.465 263.184 186.203C262.957 185.938 262.68 185.736 262.352 185.6C262.027 185.463 261.654 185.395 261.232 185.395H259.311V184.469H261.232C261.791 184.469 262.301 184.562 262.762 184.75C263.223 184.934 263.619 185.201 263.951 185.553C264.287 185.9 264.545 186.322 264.725 186.818C264.904 187.311 264.994 187.865 264.994 188.482V188.992C264.994 189.609 264.904 190.166 264.725 190.662C264.545 191.154 264.285 191.574 263.945 191.922C263.609 192.27 263.203 192.537 262.727 192.725C262.254 192.908 261.721 193 261.127 193ZM259.949 184.469V193H258.818V184.469H259.949ZM272.002 192.109V193H266.418V192.221L269.213 189.109C269.557 188.727 269.822 188.402 270.01 188.137C270.201 187.867 270.334 187.627 270.408 187.416C270.486 187.201 270.525 186.982 270.525 186.76C270.525 186.479 270.467 186.225 270.35 185.998C270.236 185.768 270.068 185.584 269.846 185.447C269.623 185.311 269.354 185.242 269.037 185.242C268.658 185.242 268.342 185.316 268.088 185.465C267.838 185.609 267.65 185.812 267.525 186.074C267.4 186.336 267.338 186.637 267.338 186.977H266.254C266.254 186.496 266.359 186.057 266.57 185.658C266.781 185.26 267.094 184.943 267.508 184.709C267.922 184.471 268.432 184.352 269.037 184.352C269.576 184.352 270.037 184.447 270.42 184.639C270.803 184.826 271.096 185.092 271.299 185.436C271.506 185.775 271.609 186.174 271.609 186.631C271.609 186.881 271.566 187.135 271.48 187.393C271.398 187.646 271.283 187.9 271.135 188.154C270.99 188.408 270.82 188.658 270.625 188.904C270.434 189.15 270.229 189.393 270.01 189.631L267.725 192.109H272.002Z" fill="black"/>
<path d="M285.148 160.225L282.324 168H281.17L284.422 159.469H285.166L285.148 160.225ZM287.516 168L284.686 160.225L284.668 159.469H285.412L288.676 168H287.516ZM287.369 164.842V165.768H282.576V164.842H287.369ZM292.127 168H290.346L290.357 167.08H292.127C292.736 167.08 293.244 166.953 293.65 166.699C294.057 166.441 294.361 166.082 294.564 165.621C294.771 165.156 294.875 164.613 294.875 163.992V163.471C294.875 162.982 294.816 162.549 294.699 162.17C294.582 161.787 294.41 161.465 294.184 161.203C293.957 160.938 293.68 160.736 293.352 160.6C293.027 160.463 292.654 160.395 292.232 160.395H290.311V159.469H292.232C292.791 159.469 293.301 159.562 293.762 159.75C294.223 159.934 294.619 160.201 294.951 160.553C295.287 160.9 295.545 161.322 295.725 161.818C295.904 162.311 295.994 162.865 295.994 163.482V163.992C295.994 164.609 295.904 165.166 295.725 165.662C295.545 166.154 295.285 166.574 294.945 166.922C294.609 167.27 294.203 167.537 293.727 167.725C293.254 167.908 292.721 168 292.127 168ZM290.949 159.469V168H289.818V159.469H290.949ZM298.994 163.201H299.768C300.146 163.201 300.459 163.139 300.705 163.014C300.955 162.885 301.141 162.711 301.262 162.492C301.387 162.27 301.449 162.02 301.449 161.742C301.449 161.414 301.395 161.139 301.285 160.916C301.176 160.693 301.012 160.525 300.793 160.412C300.574 160.299 300.297 160.242 299.961 160.242C299.656 160.242 299.387 160.303 299.152 160.424C298.922 160.541 298.74 160.709 298.607 160.928C298.479 161.146 298.414 161.404 298.414 161.701H297.33C297.33 161.268 297.439 160.873 297.658 160.518C297.877 160.162 298.184 159.879 298.578 159.668C298.977 159.457 299.438 159.352 299.961 159.352C300.477 159.352 300.928 159.443 301.314 159.627C301.701 159.807 302.002 160.076 302.217 160.436C302.432 160.791 302.539 161.234 302.539 161.766C302.539 161.98 302.488 162.211 302.387 162.457C302.289 162.699 302.135 162.926 301.924 163.137C301.717 163.348 301.447 163.521 301.115 163.658C300.783 163.791 300.385 163.857 299.92 163.857H298.994V163.201ZM298.994 164.092V163.441H299.92C300.463 163.441 300.912 163.506 301.268 163.635C301.623 163.764 301.902 163.936 302.105 164.15C302.312 164.365 302.457 164.602 302.539 164.859C302.625 165.113 302.668 165.367 302.668 165.621C302.668 166.02 302.6 166.373 302.463 166.682C302.33 166.99 302.141 167.252 301.895 167.467C301.652 167.682 301.367 167.844 301.039 167.953C300.711 168.062 300.354 168.117 299.967 168.117C299.596 168.117 299.246 168.064 298.918 167.959C298.594 167.854 298.307 167.701 298.057 167.502C297.807 167.299 297.611 167.051 297.471 166.758C297.33 166.461 297.26 166.123 297.26 165.744H298.344C298.344 166.041 298.408 166.301 298.537 166.523C298.67 166.746 298.857 166.92 299.1 167.045C299.346 167.166 299.635 167.227 299.967 167.227C300.299 167.227 300.584 167.17 300.822 167.057C301.064 166.939 301.25 166.764 301.379 166.529C301.512 166.295 301.578 166 301.578 165.645C301.578 165.289 301.504 164.998 301.355 164.771C301.207 164.541 300.996 164.371 300.723 164.262C300.453 164.148 300.135 164.092 299.768 164.092H298.994Z" fill="black"/>
<path d="M175.057 27V18.2727H176.114V26.0625H180.17V27H175.057ZM181.807 27V18.2727H184.756C185.438 18.2727 185.997 18.3892 186.435 18.6222C186.872 18.8523 187.196 19.169 187.406 19.5724C187.616 19.9759 187.722 20.4347 187.722 20.9489C187.722 21.4631 187.616 21.919 187.406 22.3168C187.196 22.7145 186.874 23.027 186.439 23.2543C186.004 23.4787 185.449 23.5909 184.773 23.5909H182.386V22.6364H184.739C185.205 22.6364 185.58 22.5682 185.864 22.4318C186.151 22.2955 186.358 22.1023 186.486 21.8523C186.616 21.5994 186.682 21.2983 186.682 20.9489C186.682 20.5994 186.616 20.294 186.486 20.0327C186.355 19.7713 186.146 19.5696 185.859 19.4276C185.572 19.2827 185.193 19.2102 184.722 19.2102H182.864V27H181.807ZM185.915 23.0795L188.062 27H186.835L184.722 23.0795H185.915ZM189.841 27H188.733L191.937 18.2727H193.028L196.233 27H195.125L192.517 19.6534H192.449L189.841 27ZM190.25 23.5909H194.716V24.5284H190.25V23.5909ZM202.365 20.4545C202.314 20.0227 202.106 19.6875 201.743 19.4489C201.379 19.2102 200.933 19.0909 200.404 19.0909C200.018 19.0909 199.68 19.1534 199.39 19.2784C199.103 19.4034 198.879 19.5753 198.717 19.794C198.558 20.0128 198.478 20.2614 198.478 20.5398C198.478 20.7727 198.534 20.973 198.645 21.1406C198.758 21.3054 198.903 21.4432 199.079 21.554C199.255 21.6619 199.44 21.7514 199.633 21.8224C199.826 21.8906 200.004 21.946 200.166 21.9886L201.052 22.2273C201.279 22.2869 201.532 22.3693 201.811 22.4744C202.092 22.5795 202.36 22.723 202.616 22.9048C202.875 23.0838 203.088 23.3139 203.255 23.5952C203.423 23.8764 203.507 24.2216 203.507 24.6307C203.507 25.1023 203.383 25.5284 203.136 25.9091C202.892 26.2898 202.534 26.5923 202.062 26.8168C201.593 27.0412 201.024 27.1534 200.353 27.1534C199.728 27.1534 199.187 27.0526 198.73 26.8509C198.275 26.6491 197.917 26.3679 197.656 26.0071C197.397 25.6463 197.251 25.2273 197.217 24.75H198.308C198.336 25.0795 198.447 25.3523 198.64 25.5682C198.836 25.7812 199.083 25.9403 199.382 26.0455C199.683 26.1477 200.007 26.1989 200.353 26.1989C200.757 26.1989 201.119 26.1335 201.44 26.0028C201.761 25.8693 202.015 25.6847 202.203 25.4489C202.39 25.2102 202.484 24.9318 202.484 24.6136C202.484 24.3239 202.403 24.0881 202.241 23.9062C202.079 23.7244 201.866 23.5767 201.602 23.4631C201.338 23.3494 201.052 23.25 200.745 23.1648L199.672 22.858C198.99 22.6619 198.45 22.3821 198.052 22.0185C197.654 21.6548 197.456 21.179 197.456 20.5909C197.456 20.1023 197.588 19.6761 197.852 19.3125C198.119 18.946 198.477 18.6619 198.926 18.4602C199.377 18.2557 199.882 18.1534 200.439 18.1534C201.001 18.1534 201.501 18.2543 201.939 18.456C202.376 18.6548 202.723 18.9276 202.978 19.2741C203.237 19.6207 203.373 20.0142 203.387 20.4545H202.365Z" fill="black"/>
<circle cx="167" cy="108" r="4" fill="black"/>
<circle cx="167" cy="159" r="4" fill="black"/>
<circle cx="192" cy="134" r="4" fill="black"/>
<circle cx="216" cy="110" r="4" fill="black"/>
<circle cx="142" cy="133" r="4" fill="black"/>
</svg>
